<?xml version="1.0" standalone="no"?>
<!DOCTYPE svg PUBLIC "-//W3C//DTD SVG 1.1//EN" "http://www.w3.org/Graphics/SVG/1.1/DTD/svg11.dtd" >
<svg xmlns="http://www.w3.org/2000/svg">
<metadata>
Created by FontForge 20120731 at Mon Oct 20 23:37:20 2014
 By Ads
</metadata>
<defs>
<font id="iconfont" horiz-adv-x="1024" >
  <font-face 
    font-family="iconfont"
    font-weight="500"
    font-stretch="normal"
    units-per-em="1024"
    panose-1="2 0 6 3 0 0 0 0 0 0"
    ascent="812"
    descent="-212"
    x-height="792"
    bbox="-2 -224 1040.15 812.043"
    underline-thickness="50"
    underline-position="-100"
    unicode-range="U+0078-E63A"
  />
<missing-glyph horiz-adv-x="374" 
d="M34 0v682h272v-682h-272zM68 34h204v614h-204v-614z" />
    <glyph glyph-name=".notdef" horiz-adv-x="374" 
d="M34 0v682h272v-682h-272zM68 34h204v614h-204v-614z" />
    <glyph glyph-name=".null" horiz-adv-x="0" 
 />
    <glyph glyph-name="nonmarkingreturn" horiz-adv-x="341" 
 />
    <glyph glyph-name="x" unicode="x" horiz-adv-x="1001" 
d="M281 543q-27 -1 -53 -1h-83q-18 0 -36.5 -6t-32.5 -18.5t-23 -32t-9 -45.5v-76h912v41q0 16 -0.5 30t-0.5 18q0 13 -5 29t-17 29.5t-31.5 22.5t-49.5 9h-133v-97h-438v97zM955 310v-52q0 -23 0.5 -52t0.5 -58t-10.5 -47.5t-26 -30t-33 -16t-31.5 -4.5q-14 -1 -29.5 -0.5
t-29.5 0.5h-32l-45 128h-439l-44 -128h-29h-34q-20 0 -45 1q-25 0 -41 9.5t-25.5 23t-13.5 29.5t-4 30v167h911zM163 247q-12 0 -21 -8.5t-9 -21.5t9 -21.5t21 -8.5q13 0 22 8.5t9 21.5t-9 21.5t-22 8.5zM316 123q-8 -26 -14 -48q-5 -19 -10.5 -37t-7.5 -25t-3 -15t1 -14.5
t9.5 -10.5t21.5 -4h37h67h81h80h64h36q23 0 34 12t2 38q-5 13 -9.5 30.5t-9.5 34.5q-5 19 -11 39h-368zM336 498v228q0 11 2.5 23t10 21.5t20.5 15.5t34 6h188q31 0 51.5 -14.5t20.5 -52.5v-227h-327z" />
    <glyph glyph-name="uniE600" unicode="&#xe600;" horiz-adv-x="1034" 
d="M819 407q44 0 83 -16.5t68 -46t45.5 -68t16.5 -82.5t-16.5 -83t-45.5 -67.5t-68 -45t-82.5 -16.5t-82 16.5t-67.5 45t-45.5 67.5t-16.5 83q0 29 7 54q2 7 4 13t4 13l14 44l-317 58q46 -28 74.5 -75.5t28.5 -106.5q0 -44 -16.5 -83t-46 -67.5t-68 -45t-82 -16.5t-82 16.5
t-68 45t-46 67.5t-16.5 83t16.5 82.5t46 68t68 46t81.5 16.5q5 0 9 -0.5t8 -0.5q18 57 35.5 117.5t32 112t25.5 89t15 50.5q6 21 21 30t30 6.5t25.5 -13t6.5 -28.5q-1 -6 -5 -21t-11 -37l80 -1l-1 -34l-88 1q-12 -41 -26.5 -92t-31.5 -105l340 -49l33 100h-103q-7 11 -10 22
q-2 9 -1 16.5t12 12.5q11 4 37.5 9.5t57 8t57 1.5t37.5 -9t12 -18.5t-2 -19.5q-4 -11 -12 -23h-20l-44 -125h87h3zM360 195q0 41 -19 75.5t-53 54.5q-18 -62 -31 -105.5t-17 -55.5q-6 -17 -21.5 -23t-30.5 -3t-24.5 13.5t-3.5 27.5q4 11 17.5 58t32.5 111h-2
q-33 0 -60.5 -12t-48 -32.5t-32.5 -48.5t-12 -60t12 -59.5t32.5 -48.5t48 -33.5t60 -12.5t60 12.5t48 33.5t32.5 48.5t12 59.5zM817 41q32 0 59.5 12.5t48.5 33.5t33 48.5t12 59.5t-12 60t-33 48.5t-48.5 32.5t-59.5 12h-6q-47 -2 -83 -27.5t-53 -65.5l-6 -18q-6 -20 -6 -42
q0 -32 12.5 -59.5t33.5 -48.5t48.5 -33.5t59.5 -12.5zM543.5 286q25.5 0 43.5 -18t18 -43.5t-18 -43.5t-43.5 -18t-43 18t-17.5 43.5t17.5 43.5t43 18z" />
    <glyph glyph-name="uniE601" unicode="&#xe601;" 
d="M689 204h-448v25h448v-25zM984 752q-25 -155 -49 -287q-10 -56 -21.5 -113.5t-22.5 -107t-21.5 -89t-19.5 -61.5q-19 -44 -53.5 -74.5t-81 -49.5t-103 -29t-117.5 -12q-31 -1 -69.5 -1t-79.5 5t-80.5 16t-72.5 33q-30 18 -52.5 46t-38.5 56.5t-25 52.5t-11 35
q-8 35 -2 67t36 58q21 16 59 34t88.5 33t111 24t126.5 9q75 -1 133.5 -10.5t101 -14.5t67.5 0.5t32 35.5q14 58 26.5 122t22.5 117q12 63 22 123zM482 324q-58 -1 -109.5 -9t-93 -19.5t-70.5 -25t-42 -25.5q-21 -20 -20 -44t13 -57q5 -14 13 -31.5t24 -35.5t41 -34.5
t64 -30.5q19 -6 51.5 -9.5t72.5 -3.5t84 2.5t84 9t72.5 17t51.5 24.5q32 25 53.5 58t30 65.5t5 58.5t-21.5 36q-16 11 -44.5 20.5t-67 17t-86.5 12.5t-105 4zM836 484l99 -18l7 39l-98 17zM603 132h-362v25h362v-25zM497 64h-256v24h256v-24z" />
    <glyph glyph-name="uniE602" unicode="&#xe602;" horiz-adv-x="1041" 
d="M1040 -58q5 -159 -155 -154h-833v1008h988v-854zM853 -146q88 -5 84 79v794h-782v-873h698zM722 529h159v-66h-159v-407q5 -137 -148 -132h-59v67h55q62 -5 57 65v407h-57q-60 -347 -349 -516v67q107 89 169.5 199.5t86.5 249.5h-265v66h415v142h95v-142z" />
    <glyph glyph-name="uniE603" unicode="&#xe603;" 
d="M1024 599q0 -71 -46 -122q46 -89 46 -193q0 -97 -40 -182t-109.5 -148t-163 -99t-199.5 -36t-199.5 36t-162.5 99t-109.5 148t-40.5 182q0 104 46 193q-46 51 -46 122q0 38 14 71t37.5 58.5t55.5 39.5t68 14q43 0 79 -18.5t59 -49.5q46 17 96.5 26.5t102.5 9.5
t102.5 -9.5t96.5 -26.5q24 31 59.5 49.5t78.5 18.5q37 0 68.5 -14t55 -39.5t37.5 -58.5t14 -71zM206 184q10 0 18.5 10.5t15.5 29t10.5 42.5t3.5 51.5t-3.5 51.5t-10.5 42t-15.5 28.5t-18.5 10.5q-9 0 -18 -10.5t-15.5 -28.5t-10.5 -42t-4 -51.5t4 -51.5t10.5 -42.5
t15.5 -29t18 -10.5zM512 -116q53 0 99.5 13.5t81.5 36t55 52.5t20 65q0 34 -20 64t-55 52.5t-81.5 36t-99.5 13.5t-99.5 -13.5t-81.5 -36t-55 -52.5t-20 -64q0 -35 20 -65t55 -52.5t81.5 -36t99.5 -13.5zM818 184q10 0 19 10.5t15.5 29t10 42.5t3.5 51.5t-3.5 51.5t-10 42
t-15.5 28.5t-19 10.5q-9 0 -17.5 -10.5t-15.5 -28.5t-11 -42t-4 -51.5t4 -51.5t11 -42.5t15.5 -29t17.5 -10.5zM512 152q40 0 68 -10t28 -24.5t-28 -24t-68 -9.5t-68 9.5t-28 24t28 24.5t68 10z" />
    <glyph glyph-name="uniE604" unicode="&#xe604;" 
d="M1024 315q-83 11 -168 54t-158.5 116.5t-116 158.5t-54.5 168q96 -3 185.5 -40t162 -109.5t110 -162t39.5 -185.5zM465 810q11 -95 57.5 -191t129.5 -179t179 -130t191 -58q-8 -87 -44.5 -167.5t-103 -147t-147 -103t-167.5 -44.5q-11 95 -58 191t-130 179t-179 129.5
t-191 57.5q8 87 45 168t103 147t147 103t168 45zM0 285q83 -12 168 -54.5t158.5 -116t116.5 -158.5t54 -168q-96 2 -185.5 39.5t-162 110t-109.5 162t-40 185.5z" />
    <glyph glyph-name="uniE605" unicode="&#xe605;" 
d="M283 625q-22 -24 -49 -51q-23 -23 -56 -54.5t-75 -66.5l-58 53q38 35 66 67.5t46 58.5q20 29 34 56zM724 583v75h249v-74zM944 195v-72q0 -35 -3.5 -64t-14 -50.5t-31.5 -32.5q-16 -7 -38 -11t-46 -5.5t-47 -1t-41 2.5l10 76q10 -4 24.5 -6t27.5 3t21 20.5t6 46.5v269
h-112v-23h-106v-110h96v-72h-95v-77l120 17l10 -71l-403 -80l-7 94l134 19l-2 97h-100v71h100v111h-124v66q-12 -12 -26.5 -25.5t-33.5 -30.5l1 -402l-123 -1l-1 316q-15 -9 -32 -18t-35 -18q0 -1 -6.5 9t-13.5 21l-18 31q61 42 106.5 85t75.5 79q35 41 58 80l76 -94
q-2 -2 -5 -6q-2 -3 -5.5 -7t-8.5 -9l115 1l-1 88l-101 -1v64l101 1v110h147l1 -110h95v-64h-95v-88h104v32l291 1v-85l-45 -1v-175z" />
    <glyph glyph-name="uniE606" unicode="&#xe606;" 
d="M268 289q44 5 62.5 -19t18.5 -56v-276h-112v233q-1 7 -4 13q-4 14 -15 20q-12 4 -27 1v-119q0 -38 -3 -63.5t-20 -46t-41.5 -28.5t-47.5 -10q-27 -4 -56 2v47q15 1 24.5 9t14.5 17q7 12 10 25v600h119v-206h46v243h112v-243h28v-58h-186v-103q14 4 33.5 9t43.5 9z
M781 135h213v-64h-213v-133h-116v133h-293v64h53l-14 53q23 6 49 15q21 8 46.5 20t49.5 31h-40v-8l-115 -1v360l115 1v-28q5 0 10 1q11 2 26 3q19 20 31 40t19 34q8 18 11 32l104 -37q-5 -8 -14 -17q-7 -8 -16.5 -18.5t-23.5 -21.5q45 5 91 8.5t85 5.5q46 2 71 -11t36 -32.5
t13 -39.5t2 -32v-92q0 -20 -2 -45.5t-8.5 -48t-22.5 -38t-45 -15.5h-199q-39 -47 -105 -73q-39 -14 -72.5 -26.5t-53.5 -19.5h212v79h116v-79zM792 305q23 0 35 7t18 16q6 10 8 23v40h-120q-2 -47 -18 -85zM853 504q0 13 -3 24t-15 18t-33.5 10t-58.5 0q-3 -1 -10 -1v-105
h120v54zM624 544q-23 -3 -42.5 -5t-33.5 -5q-18 -2 -32 -4v-80h108v94zM516 306h85q10 18 16.5 38.5t6.5 44.5v2h-108v-85z" />
    <glyph glyph-name="uniE607" unicode="&#xe607;" horiz-adv-x="1000" 
d="M50 -24v-25v-20q0 -38 28 -65.5t66.5 -27.5t66 27t27.5 66v66q-88 -10 -188 -21zM755 -18v-51q0 -39 27 -66t65 -27q39 0 67.5 27.5t28.5 65.5v20v52q-83 -10 -188 -21zM3 91v-16q0 -16 11 -26.5t26 -10.5h11v-2l274 1v1h136h36h224v-2l221 1v1h11q15 0 26 10.5t11 26.5
v15q3 13 3 30.5t-1.5 43.5t-1.5 41q0 6 0.5 28.5t0 33t-3.5 30t-8.5 30.5t-17 24t-28.5 21q-13 35 -28 71l-52 194q0 8 -2 16q2 5 2 9q0 40 -104.5 68.5t-251.5 28.5t-251.5 -28.5t-104.5 -68.5q0 -4 2 -9q-2 -8 -2 -16l-51 -194l-1 1q-1 -3 -13 -30t-17 -42
q-17 -8 -28.5 -20.5t-17 -24.5t-8 -30.5t-3 -30t0 -32.5t0.5 -29q0 -15 -1.5 -42.5t-1.5 -38.5t3 -33zM861 205q0 -32 -22.5 -54t-54 -22t-54 22t-22.5 54t22.5 54t54 22t54 -22t22.5 -54zM223 562q0 17 8 30t21 18q2 1 9 3h1h3q1 0 2 1q100 23 230 23q129 0 229 -23l3 -1h3
h1q7 -2 9 -3q13 -5 21 -18t8 -30l21 -137q1 -16 -7.5 -25t-25 -11t-31.5 -2t-38.5 2t-34.5 2h-158h-160q-12 0 -35 -2t-37.5 -2t-30.5 2t-24.5 11t-8.5 25zM208.5 281q31.5 0 54 -22t22.5 -54t-22.5 -54t-54 -22t-54 22t-22.5 54t22.5 54t54 22z" />
    <glyph glyph-name="uniE608" unicode="&#xe608;" horiz-adv-x="1000" 
d="M852 -86h-672q-26 0 -45 18.5t-19 45.5v671q0 27 19 45.5t45 18.5h672q26 0 45 -18.5t19 -45.5v-671q0 -27 -19 -45.5t-45 -18.5zM735 547h-438v-467h38v25h362v-24h38v466zM335 512h362v-372h-362v372zM367 198q119 72 180 167v-117q0 -47 -41 -47q-24 0 -57 4
q5 -22 8 -39q30 -1 58 -1q69 0 69 72v153h96v34h-96v72h-37v-72h-187v-34h163q-65 -94 -181 -159q16 -17 25 -33z" />
    <glyph glyph-name="uniE609" unicode="&#xe609;" horiz-adv-x="1000" 
d="M992 101v-17q0 -15 -10.5 -26t-26.5 -11h-10h-219h-222h-34h-136h-271h-1h-11q-15 0 -25.5 11t-10.5 26v18q-3 22 -3 32.5t1.5 37t1.5 41.5q0 7 -0.5 28.5t-0.5 32.5t3 29.5t8.5 30t16.5 24t28 20.5q5 14 16 33.5t15 28.5l4 8l47 193q0 8 1 16q-1 4 -1 8q0 40 103 68.5
t249 28.5t249 -28.5t103 -68.5q0 -4 -1 -8q1 -8 1 -16l47 -193l2 -4q3 -9 14.5 -30.5t16.5 -35.5q16 -8 27.5 -20.5t17.5 -24t8.5 -30.5t3 -29t0 -32.5t-0.5 -28.5q0 -15 1.5 -40t1.5 -42t-3 -30zM143 212.5q0 -31.5 22 -53.5t53.5 -22t53.5 22t22 53.5t-22 53.5t-53.5 22
t-53.5 -22t-22 -53.5zM775 567q0 16 -8 29t-20 18q-2 1 -9 3h-2h-2q-1 1 -3 1q-99 23 -227 23q-129 0 -228 -23l-2 -1h-2h-2q-7 -2 -9 -3q-12 -5 -20 -18t-8 -29l-22 -135v-2q0 -16 8 -24.5t24 -11t30.5 -2t37.5 2.5t34 2h159h156q12 0 35 -2t38 -2.5t31.5 1.5t24.5 11t8 25
v2zM788.5 288q-31.5 0 -53.5 -22t-22 -53.5t22 -53.5t53.5 -22t53.5 22t22 53.5t-22 53.5t-53.5 22zM248 7v-66q0 -38 -27.5 -65t-66 -27t-66 27t-27.5 65v20v25q98 11 187 21zM946 -39v-20q0 -38 -28 -65t-67 -27q-38 0 -65 27t-27 65v50q100 11 187 21v-51z" />
    <glyph glyph-name="uniE60A" unicode="&#xe60a;" horiz-adv-x="1000" 
d="M1000 -12v750h-1000v-750h375v-63h-187v-63h624v63h-187v63h375zM125 112v500h750v-500h-750z" />
    <glyph glyph-name="uniE60B" unicode="&#xe60b;" 
d="M170 127l-22 -21q-2 -2 -5.5 -6t-9 -18.5t-5 -30.5t11.5 -41t34 -51q41 -46 101 -37q29 4 58 29q9 8 8 22t-12 25l-111 122q-11 11 -24.5 13t-23.5 -6zM453 464q5 15 11.5 14t8.5 -17l1 -10q5 -40 -7 -73q-22 -62 -31 -20q-8 41 17 106zM632 246q20 6 20 0q1 -4 -6 -10
q-25 -23 -58 -30q-30 -7 -46 -3q-22 6 87 42q2 0 3 1zM421 28l12 11q29 25 65 35l371 102q15 5 22.5 15t2.5 20q-2 3 -5 6t-6 4.5t-9 3.5l-9 3q-3 1 -10.5 3t-10.5 2q-4 1 -8 3q-14 5 -20 18t0 21q13 21 20 21q8 0 -10 25q-7 10 -22.5 18t-30.5 11q-15 2 -23 12.5t-5 22.5
t-1 27t-12 23.5t-24 13t-30 2t-23.5 6.5t-8.5 24.5t-3.5 31t-12 22t-21.5 7.5t-27 -4.5t-22 1.5t-8.5 22t-4 29.5t-11.5 19.5q-16 11 -40 3q-10 -3 -16 0.5t-4 12t-6 20.5t-22 20q-8 4 -15 9q-14 7 -26.5 1.5t-16.5 -21.5l-95 -384q-4 -15 -14.5 -33.5t-22.5 -28.5l-1 -2
q-12 -10 -12.5 -25.5t10.5 -27.5l112 -123q11 -11 26.5 -12t27.5 9z" />
    <glyph glyph-name="uniE60C" unicode="&#xe60c;" 
d="M513 -61q-95 -2 -178.5 45t-134 131t-51.5 184q0 98 49 182t132.5 132.5t181.5 48.5q97 -1 179.5 -48t132 -130.5t49.5 -183.5q0 -101 -50 -185t-133 -130.5t-177 -45.5zM643 330l-9 -3q-66 -31 -139 -16q-56 12 -142 61q-80 45 -87 48q-23 11 -40.5 2t-23.5 -33
q-9 -39 -11 -61q-10 -105 45 -193q9 -16 24 -18q49 -7 71 -4q68 11 132 30q90 27 202 98q8 5 6 12q-5 15 -28 77zM634 347q-47 105 -114 182q-43 50 -82 69q-22 11 -39 4q-78 -31 -131 -91q-32 -37 -44 -66q6 -1 17 -2.5t19.5 -3.5t15.5 -5q17 -7 60 -32q36 -22 56.5 -33
t53.5 -24t63 -18q71 -11 125 20zM679 229q-11 -6 -12 -7q-78 -50 -169 -85q-89 -34 -151 -40h-84l2 -5q1 -2 5 -5q101 -110 250 -108q19 0 28 13t31 47q59 91 106 128q7 6 6 11q-2 8 -12 51zM449 617q35 -24 64.5 -53.5t54.5 -66.5t42 -66.5t40 -74.5q58 40 53 110
q-4 51 -38 109q-5 10 -14 14q-61 32 -142 33q-3 0 -60 -5zM688 257q50 41 54 44q2 2 12 11.5t13.5 12.5t12 11.5t12.5 14t9 13.5t8 16q4 7 4.5 16t-2 18.5t-5 16.5t-9 17.5t-10 15.5t-11 16t-9.5 14q-26 38 -76 72q15 -35 22 -63t6.5 -58t-16 -56.5t-46.5 -49.5
q13 -34 31 -82zM824 369q-40 -62 -125 -125q-5 -4 -3.5 -11.5t11.5 -46.5q0 -1 18 -6t38 -15.5t25 -23.5q29 19 41 109q5 41 4 67.5t-4 38.5t-5 13zM698 149q-1 0 -25.5 -28t-57 -68.5t-49.5 -67.5h7q46 8 99 36q26 13 26 36v92zM714 55q2 0 5 -2q36 38 39 41q15 16 15 26.5
t-14 27.5q-4 5 -7 8q-19 16 -38 7v-108z" />
    <glyph glyph-name="uniE60D" unicode="&#xe60d;" 
d="M818 319q0 123 -87 210t-210 87t-209 -87q-73 -72 -85.5 -172.5t39.5 -187.5l-106 -105q-9 -9 -9 -22.5t9 -23.5l60 -60q10 -9 23.5 -9t22.5 9l106 105q69 -40 150 -40q122 0 209 86.5t87 209.5zM344 128l-101 -102l-14 15l101 101q8 9 9 20.5t-6 21.5q-33 45 -41 101
l195 -195q-55 8 -101 41q-10 7 -21.5 6t-20.5 -9zM794.5 96q-30.5 0 -52 -21.5t-21.5 -52t21.5 -52t52 -21.5t52.5 21.5t22 52t-22 52t-52.5 21.5z" />
    <glyph glyph-name="uniE60E" unicode="&#xe60e;" 
d="M617 216q-30 76 -60 148q0 5 -1.5 13.5t-3 36t3.5 51.5q3 11 5 25t6 52.5t-2 52.5q-17 35 -55 38q-6 0 -15 -2t-25.5 -15.5t-20.5 -35.5q-2 -29 6 -62q3 -12 7 -32.5t4 -68.5t-14 -80q-44 -91 -47 -113q-2 -9 -3.5 -25t-4 -60.5t7.5 -70.5q34 -113 58 -149q50 -13 94 0
q52 85 62 160q1 0 3.5 21.5t1.5 56t-7 59.5zM779 270q-30 75 -60 148q-1 4 -2 13t-2.5 36.5t1.5 50.5q3 10 5.5 25t7 53.5t-2.5 52.5q-18 35 -56 38q-4 -2 -13 -3.5t-25.5 -15t-20.5 -35.5q-3 -28 4 -61q4 -13 7.5 -33.5t4.5 -68.5t-13 -79q-8 -16 -16 -33l54 -134v-1l1 -2
q14 -58 2 -143q-7 -46 -32 -102q0 -4 2 -4q50 -14 93 0q52 85 63 161q12 80 -2 137zM419 344q1 4 4 12q-4 11 -13 32.5t-12 29.5q-1 4 -2 13t-2.5 35.5t3.5 51.5q1 10 3.5 25t7 53.5t-2.5 50.5q-18 37 -54 40q-6 -2 -15 -3.5t-25.5 -15t-20.5 -35.5q-3 -30 4 -63
q5 -11 8 -31.5t4 -68.5t-13 -81q-44 -91 -47 -111q-4 -11 -5.5 -26t-3 -60t6.5 -70q35 -113 60 -151q50 -13 93 1q1 2 3 5q-19 49 -30 88q-17 69 0 162q5 24 49 117z" />
    <glyph glyph-name="uniE60F" unicode="&#xe60f;" 
d="M511.5 683q-103.5 0 -192 -51.5t-139.5 -139.5t-51 -191.5t51 -191.5t139.5 -139.5t192 -51.5t191.5 51.5t139.5 139.5t51.5 191.5t-51.5 191.5t-139.5 139.5t-191.5 51.5zM266 44q-52 49 -81 115.5t-29 140.5v4v3l99 -34l69 -179zM347 568l180 65l128 -120l-105 -152
l-197 38zM749 36q-11 -10 -23 -19l-148 -63l-97 101l126 141l168 -20zM796 513q71 -95 71 -213v-4v-2l-20 5l-61 171z" />
    <glyph glyph-name="uniE610" unicode="&#xe610;" 
d="M926 -31q-27 0 -51 12q-27 12 -53.5 12t-52.5 -12q-23 -12 -50 -12t-50 12q-27 12 -54 12t-52 -12q-24 -12 -51 -12t-50 12q-25 12 -52 12t-54 -12q-23 -12 -50 -12t-51 12q-25 12 -52 12t-52 -12t-52 -12v76q27 0 52 11.5t52 11.5t52.5 -11.5t51.5 -11.5t49 11
q25 12 53 12t53 -11.5t51 -11.5t50 11q25 12 53 12q26 0 53 -12q23 -11 49 -11t51.5 11.5t53 11.5t52.5 -12q24 -11 51 -11v-76zM806 184q41 0 69.5 28.5t28.5 69t-28.5 69t-70 28.5t-70 -28.5t-28.5 -68.5q0 -42 28 -70t71 -28zM233 129q11 -2 22 -7q26 -12 52 -12t49 12
q27 12 53 12t53 -12q25 -12 51 -12t50 12q27 12 53 12t53 -12q23 -12 50 -12q18 0 37 7l-163 292l190 35q22 4 35 19t13 37t-16.5 38.5t-38.5 16.5q-5 0 -7 -1l-294 -52q-18 -5 -30.5 -26t-2.5 -47l1 -2l2 -3l77 -137z" />
    <glyph glyph-name="uniE611" unicode="&#xe611;" 
d="M665 624q-1 51 -37 87t-87 37q6 -44 43 -81t81 -43zM311 607h54l-20 27h-54zM564 465l-20 26h-57l20 -26h57zM303 465l-20 26h-55l20 -26h55zM419 465h55l-21 26h-54zM386 465l-21 26h-49l20 -26h50zM366 535h54l-20 27h-55zM332 535l-20 27h-49l20 -27h49zM523 328h55
l-21 27h-54zM420 355l20 -27h50l-21 27h-49zM298 355h-56l20 -27h57zM332 355l20 -27h55l-21 27h-54zM353 398l-20 27h-55l21 -27h54zM470 398h54l-20 27h-55zM436 398l-20 27h-50l21 -27h49zM245 425h-57l20 -27h57zM297 283l20 -27h57l-20 27h-57zM441 283h-54l20 -27h55z
M316 491l-33 44h-34l34 -44h33zM420 355l-33 43h-34l33 -43h34zM366 425l-30 40h-33l30 -40h33zM407 328l34 -45h34l-35 45h-33zM299 398h-34l33 -43h34zM319 328l35 -45h33l-35 45h-33zM278 425l-30 40h-33l30 -40h33zM557 355h34l-33 43h-34zM474 465l30 -40h33l-30 40
h-33zM399 491l-33 44h-34l33 -44h34zM469 355h34l-33 43h-34zM490 328l34 -45h34l-35 45h-33zM416 425h33l-30 40h-33zM345 562l-34 45h-34l35 -45h33zM877 -61l-157 177l-1 2l-37 41q-5 6 -13 10q-41 65 -43 157q10 34 9 71q-2 58 -28 116q-1 0 -3 -1l-1 -1q15 9 25 19
q32 32 37 78q-51 6 -92.5 47.5t-47.5 92.5q-46 -4 -78 -37q-10 -10 -19 -25q-49 19 -97 19q-75 0 -129 -45q-73 -61 -71 -167.5t77 -195.5q41 -50 96 -79.5t112 -34.5v-1q3 0 11 -1t29 -6t42 -13.5t49 -25.5t52 -40q3 -4 5 -6l195 -220q14 -16 35.5 -17.5t37.5 13t17.5 36
t-12.5 37.5zM585 502l-10 -4q4 1 10 4zM433 222l-26 34h-33l23 -30q-64 11 -119 57h19l-35 45h-29q-9 13 -19 27h28l-34 43h-17q-14 33 -18 67h42l-21 26h-24q0 13 2 30l22 -30h34l-33 44h-21q2 10 5 21l16 -21h54l-20 27h-48q8 21 19 38l29 -38h34l-35 45h-22q6 8 12 14
l10 -14h49l-20 27h-24q38 28 88 31l24 -31h33l-23 30q29 -4 58 -15q-3 -10 -3 -17q51 -6 92 -47t47 -92q8 1 19 3q-11 -2 -19 -3l-20 17q-10 35 -38 64q-37 37 -82 42q1 -13 5 -30l-15 21h-34l35 -45h24v0v-1q8 -14 18 -26h1q0 -1 1 -3l3 -2q5 -5 15 -13q-9 7 -15 13l-3 2
q-1 2 -1 3h-23l33 -44h34l-15 20q29 -18 61 -19q-1 8 -4 18l15 -19h29q14 -33 19 -66h-55l21 -27h37v-1v-1q1 -21 -3 -41h-1l1 -2q-7 -40 -30 -70h-5l3 -3q-9 -11 -19 -20l-17 23h-49l20 -27h41q-42 -34 -102 -34h-1zM419 668zM608 164q-15 -14 -17 -34q-49 39 -107 58
q45 10 80 39q28 24 45 56q8 -59 33 -106q-20 -1 -34 -13z" />
    <glyph glyph-name="uniE612" unicode="&#xe612;" 
d="M717 578q57 -42 92 -101t45 -125.5t-6 -133.5t-57.5 -123.5t-100.5 -91.5t-126 -45t-133.5 6t-123 57.5t-91.5 100.5t-45 126t6 133.5t57.5 123t100.5 91.5t125.5 45t133.5 -6t123 -57zM219 347q64 33 124 2q15 26 33 51l-103 75q-42 -57 -54 -128zM370 332
q18 -13 34 -29v-1q22 -22 43 -52q21 -29 53 -95q17 -36 27 -55t28.5 -44.5t39.5 -40.5q96 27 156 108l-349 258q-17 -25 -32 -49zM555 6q-18 17 -34.5 42t-25.5 42.5t-25 49.5q-31 65 -49 92q-20 27 -40 48q-13 13 -27 23q-40 -76 -51 -139q-9 -44 -1 -74q16 -16 34 -29
q99 -72 219 -55zM327 321q-16 8 -33 9.5t-29 -1t-24 -8t-16 -8t-7 -5.5l-2 3q-1 -28 3 -56q10 -66 47 -121q1 17 5 36q12 69 56 151zM431 585q-8 -52 25 -88q65 67 126 91q-57 14 -114 5q-19 -3 -37 -8zM481 476q14 -10 31 -19q26 -13 57 -23q31 -11 102 -21q86 -13 125 -28
q-28 95 -108 154q-24 17 -51 30q-16 -1 -35 -8q-57 -20 -121 -85zM805 346q-40 20 -139 35q-73 11 -107 22t-62 26q-21 10 -39 24q-19 -22 -37 -46l348 -256q52 90 37 193zM434 474q-40 40 -37 99q-59 -25 -103 -73l101 -74q19 26 39 48z" />
    <glyph glyph-name="uniE613" unicode="&#xe613;" 
d="M822 432q-5 -5 -17 -7.5t-22 -2.5h-9q-101 12 -115 26q-6 6 -12.5 36t-9.5 56l-2 27q-3 29 11 44l122 121q0 1 1 2t2 3.5t1 4.5t-2.5 4t-7.5 2q-193 0 -258 -65l-13 -13q-62 -62 -61.5 -147t61.5 -146l99 -98q61 -62 145.5 -62.5t146.5 61.5l13 13q63 62 63 256
q0 9 -3.5 11t-7.5 -1l-4 -3q-109 -110 -121 -122zM616 368l-35 36q-22 22 -53.5 22t-53.5 -22l-372 -337q-13 -13 -22.5 -31.5t-14.5 -42.5t4 -52t33 -52t52 -32.5t52 -3.5t42.5 14.5t30.5 21.5q242 265 263 288q9 10 11.5 22t0.5 19l-2 6q-43 60 -66 95q-9 15 -5.5 17.5
t16.5 -6.5q102 -65 116 -72l3 4q22 22 22 53t-22 53zM200.5 -73q-25.5 0 -44 18.5t-18.5 44t18.5 43.5t44 18t43.5 -18t18 -43.5t-18 -44t-43.5 -18.5z" />
    <glyph glyph-name="uniE614" unicode="&#xe614;" 
d="M512 749q-91 0 -174 -35.5t-143.5 -95.5t-96 -143.5t-35.5 -174.5t35.5 -174t96 -143t143.5 -95.5t174 -35.5t174 35.5t143 95.5t95.5 143t35.5 174t-35.5 174.5t-95.5 143.5t-143 95.5t-174 35.5zM512 -108q-111 0 -205 55t-148.5 148.5t-54.5 204.5q0 37 7 76
q48 -10 107 6t111 47.5t94.5 73t60.5 80.5q10 21 9 -9q-1 -61 -21 -123q-7 -20 -14 -27q32 -9 104.5 36t110.5 89q17 18 41 -26q24 -43 19 -64q-1 -3 -2 -5q-4 -5 16 -4q56 4 105 26q15 7 21 13q47 -89 47 -189q0 -110 -54.5 -204t-148.5 -149t-205 -55zM333 342
q-36 0 -61.5 -25t-25.5 -61t25.5 -61.5t61.5 -25.5t61.5 25.5t25.5 61.5t-25.5 61t-61.5 25zM333.5 206q-20.5 0 -35 14.5t-14.5 35t14.5 35t35 14.5t34.5 -14.5t14 -35t-14 -35t-34.5 -14.5zM683 352q-36 0 -61.5 -25.5t-25.5 -61.5t25.5 -61.5t61 -25.5t61 25.5t25.5 61.5
t-25 61.5t-61 25.5zM682.5 216q-20.5 0 -35 14.5t-14.5 35t14.5 35t35 14.5t35 -14.5t14.5 -35t-14.5 -35t-35 -14.5zM601 108h-190q0 -5 0.5 -12.5t6 -28t14.5 -36t30 -29t50 -14.5q51 3 70.5 34.5t18.5 85.5zM512 29q-16 0 -28 5.5t-18 12t-9.5 14.5t-4 12t-0.5 5
q93 1 113 1q-8 -53 -53 -50zM512 749q-91 0 -174 -35.5t-143.5 -95.5t-96 -143.5t-35.5 -174.5t35.5 -174t96 -143t143.5 -95.5t174 -35.5t174 35.5t143 95.5t95.5 143t35.5 174t-35.5 174.5t-95.5 143.5t-143 95.5t-174 35.5zM512 -108q-111 0 -205 55t-148.5 148.5
t-54.5 204.5q0 37 7 76q48 -10 107 6t111 47.5t94.5 73t60.5 80.5q10 21 9 -9q-1 -61 -21 -123q-7 -20 -14 -27q32 -9 104.5 36t110.5 89q17 18 41 -26q24 -43 19 -64q-1 -3 -2 -5q-4 -5 16 -4q56 4 105 26q15 7 21 13q47 -89 47 -189q0 -110 -54.5 -204t-148.5 -149
t-205 -55zM333 342q-36 0 -61.5 -25t-25.5 -61t25.5 -61.5t61.5 -25.5t61.5 25.5t25.5 61.5t-25.5 61t-61.5 25zM333.5 206q-20.5 0 -35 14.5t-14.5 35t14.5 35t35 14.5t34.5 -14.5t14 -35t-14 -35t-34.5 -14.5zM683 352q-36 0 -61.5 -25.5t-25.5 -61.5t25.5 -61.5t61 -25.5
t61 25.5t25.5 61.5t-25 61.5t-61 25.5zM682.5 216q-20.5 0 -35 14.5t-14.5 35t14.5 35t35 14.5t35 -14.5t14.5 -35t-14.5 -35t-35 -14.5zM601 108h-190q0 -5 0.5 -12.5t6 -28t14.5 -36t30 -29t50 -14.5q51 3 70.5 34.5t18.5 85.5zM512 29q-16 0 -28 5.5t-18 12t-9.5 14.5
t-4 12t-0.5 5q93 1 113 1q-8 -53 -53 -50z" />
    <glyph glyph-name="uniE615" unicode="&#xe615;" 
d="M974 73q-1 1 -3 4l-230 288q-1 0 -2 2.5t-3 5t-6 6t-8 6t-10.5 4.5t-13.5 2h-367q-5 0 -9.5 -1t-7.5 -2.5t-7 -4.5l-6 -5q-2 -1 -6.5 -5t-5.5 -5l-3 -3l-230 -282q-2 -1 -3 -3q-14 -18 -16 -42t9 -44q9 -21 30.5 -36t42.5 -15h8q2 0 5 1l141 49v-73q0 -9 6.5 -15.5
t16.5 -6.5h447q9 0 15.5 6.5t6.5 15.5v71l143 -47q4 -2 12 -2q32 0 54 34q16 22 16 49.5t-16 47.5zM707 172l-33 5q-2 1 -4 1q-26 3 -48 -14.5t-28 -46.5t6.5 -54.5t36.5 -33.5q1 -1 4 -2l66 -18l-185 -50l-189 51l65 31q3 0 5 1q24 9 36.5 34t6.5 54q-6 28 -27.5 42
t-48.5 11q-2 0 -4 -1l-33 -10v148l188 -66l186 66v-148zM527 416q62 0 106 44t44 106t-44 106t-106 44t-106 -44t-44 -106t44 -106t106 -44z" />
    <glyph glyph-name="uniE616" unicode="&#xe616;" 
d="M513 0q-122 0 -208 86.5t-86 208.5t86 208t208 86t208.5 -86t86.5 -208t-86.5 -208.5t-208.5 -86.5zM513 533q-98 0 -168 -70t-70 -168.5t70 -168t168 -69.5t168 70t70 168t-70 168t-168 70zM151 424q5 7 8 16t3 15t-0.5 18.5t-0.5 16.5v4v5q0 21 -0.5 50.5t-1 52.5
t-0.5 27h-1h-5l-6 -128q0 -2 -1 -3.5t-4 -3.5t-6 6q-8 15 -2 129h-4l-9 -126l-4 -8q-4 -4 -8 6q-8 20 -2 128h-4l-9 -124l-5 -9q-3 -2 -5 7q-3 9 -3 125h-5q-8 -65 -9 -129q0 -6 1 -9q0 -39 4 -52q2 -6 6.5 -10.5t13.5 -10.5t10 -7q2 -1 3 -6q2 -10 1 -35q0 -17 -4 -105.5
t-8 -169.5l-3 -80q0 -2 -0.5 -5t-0.5 -11t2.5 -14.5t9.5 -11.5t18 -5q18 -1 25.5 8.5t6.5 19.5l-1 10l-18 388q0 5 2 11q1 4 3 7.5t6.5 7t6.5 5.5zM890 624q0 2 2 5t8.5 3.5t15.5 -9.5q17 -18 32 -94.5t7 -137.5q-31 -25 -32 -41l7 -137l14 -209v-6q0 -3 -7 -10t-22 -10
q-9 -2 -16 1t-9.5 6.5t-4 10t-2 8t-0.5 4.5z" />
    <glyph glyph-name="uniE617" unicode="&#xe617;" 
d="M226 12q10 -17 63 -101q23 -38 25 -40q10 -17 30 -18h1q18 0 35 17q28 33 27 56v2v51v74l104 100q68 -187 93 -251q9 -24 32 -27q22 -2 40 17q40 42 57 63q19 22 18 50q0 3 -8 136q-10 166 -14 230l180 180q50 50 50 113q0 41 -20 61q-20 21 -62 21q-63 0 -113 -50
l-180 -180q-49 3 -195 13q-169 11 -173 11h-5q-24 0 -45 -17q-22 -18 -63 -58q-19 -18 -16 -40q2 -23 26 -32q48 -19 253 -95l-100 -103h-15h-64q-41 1 -47 1v-6l-2 6h-1q-22 0 -54 -28l-3 -2q-14 -14 -15 -31q0 -19 14 -30q19 -15 147 -93zM252 53q-73 45 -132 83
q12 9 18 11h9h36l4 -1h83q17 0 30 13l108 112q16 16 11 39t-27 31q-125 46 -251 93q40 37 56 51q8 6 14 6h3q6 0 172 -11q148 -10 198 -13q19 -1 33 13l181 181q36 36 79 36q21 0 28 -6q4 -5 5.5 -20t-7 -39.5t-29.5 -45.5l-182 -182q-13 -14 -12 -33q3 -53 13 -222l1 -11
q8 -130 8 -135q0 -9 -6 -17q-14 -17 -51 -56q-54 147 -91 249q-8 22 -30.5 27t-39.5 -11l-113 -108q-13 -13 -13 -30v-79v-49v-4t-10 -16l-18 28q-55 88 -63 102q-6 9 -15 14z" />
    <glyph glyph-name="uniE618" unicode="&#xe618;" 
d="M331 240h94v-93h-94v93zM937 368l-393 333q-14 12 -31.5 12t-31.5 -12l-393 -333q-16 -12 -17.5 -32t11.5 -35.5t33 -17t35 11.5l6 5v-383q0 -13 9 -22t22 -9h651q13 0 21.5 9t8.5 22v383l7 -5q13 -12 31 -12q22 0 37 17q12 16 10.5 36t-16.5 32zM808 -53h-114v293h-166
v-293h-311v404l295 250l296 -250v-404z" />
    <glyph glyph-name="uniE619" unicode="&#xe619;" 
d="M932 374q0 -44 -31 -75t-75 -31t-75.5 31t-31.5 75q0 -44 -31 -75t-75 -31t-75.5 31t-31.5 75q0 -44 -31 -75t-75 -31t-75.5 31t-31.5 75q0 -44 -31 -75t-75.5 -31t-75.5 31t-31 75l75 200h702zM799 614h-586q-16 0 -28 12t-12 28.5t12 28t28 11.5h586q17 0 28.5 -11.5
t11.5 -28t-11.5 -28.5t-28.5 -12zM200 229q5 0 11 1l3 1q1 0 2.5 0.5t2.5 0.5q11 2 21 6v-223h533v223q9 -4 21 -6h2q2 -1 3 -1l2 -1q7 -1 12 -1q6 -1 13 -1q13 0 27 2v-268q0 -17 -12 -28.5t-28 -11.5h-613q-17 0 -28.5 11.5t-11.5 28.5v268q13 -2 26 -2q8 0 14 1zM337 235
v-206h64v129l85 -129h55l83 128v-128h63v206h-72q-31 -46 -52 -77t-52 -77l-102 154h-72z" />
    <glyph glyph-name="uniE61A" unicode="&#xe61a;" 
d="M812 378h-130q-34 -65 -50 -126q46 -72 46 -157q0 -83 -44 -154q25 -78 46 -94h132q3 4 9 11t20.5 32.5t25 54t17.5 75.5t3.5 97.5t-22 119.5t-53.5 141zM386.5 343q-102.5 0 -175.5 -72.5t-73 -175.5t73 -175.5t175.5 -72.5t175 72.5t72.5 175.5t-72.5 175.5t-175 72.5z
M278.5 158.5q-10.5 -7.5 -23.5 -5.5t-20 12.5t-5 23.5t12.5 20t23 5t20 -12.5t5.5 -23t-12.5 -20zM344.5 279.5q10.5 7.5 23 5t19.5 -13t5 -23t-12.5 -20t-23 -5t-20 13t-5 23t13 20zM385.5 114q-10.5 -7 -23 -5t-20 12.5t-5 23t13 20t23 5t20 -13t5 -23t-13 -19.5zM662 655
v-1q0 -1 1 -3l22 -88h127l23 92v7q0 35 -25.5 60.5t-61 25.5t-61 -25.5t-25.5 -60.5v-7zM797 416l6 105h-113l7 -105h100z" />
    <glyph glyph-name="uniE61B" unicode="&#xe61b;" 
d="M403 233q0 78 45 141h-156q-8 0 -13 -5t-5 -13v-116q0 -7 5 -12.5t13 -5.5h112q-1 8 -1 11zM407 190h-115q-8 0 -13 -5t-5 -12v-116q0 -8 5 -13t13 -5h208q-76 58 -93 151zM648 478q16 0 33 -3v61q0 8 -5 13t-13 5h-371q-8 0 -13 -5t-5 -13v-116q0 -7 5 -12.5t13 -5.5
h179q73 76 177 76zM638.5 447q-84.5 0 -144.5 -60t-60 -144t60 -144t144.5 -60t144 60t59.5 144t-59.5 144t-144 60zM709 160q-7 -13 -19 -21q-13 -8 -29 -12h-1q1 -2 1 -3v-14q0 -8 -5 -13.5t-12 -5.5h-4q-7 0 -12 5.5t-5 13.5v14q-18 0 -33 3q-17 3 -29 10v51
q13 -12 29.5 -18t33.5 -6q9 0 17 2q7 2 12 5t7 7q2 5 2 10q0 6 -3 12q-5 5 -11 9q-7 5 -16 9q-16 7 -19 8q-27 12 -40 28t-13 39q0 17 7 30t19 21q13 9 29 13q4 1 8 1v3v14q0 8 5 13.5t12 5.5h4q7 0 12 -5.5t5 -13.5v-14v-1q12 0 20 -2q13 -2 26 -6v-48q-6 4 -13 7t-14 5
q-6 2 -14 3q-7 1 -14 1q-8 0 -15.5 -1.5t-12.5 -4.5t-7 -8q-3 -4 -3 -9.5t3 -9.5q3 -5 8 -9q6 -4 14 -8t18 -8q14 -6 25 -12q11 -7 18.5 -15t12.5 -19q4 -10 4 -24q0 -19 -8 -32zM511 -197q-102 0 -194.5 40t-160 107t-107 160t-39.5 195t39.5 194.5t107 160t160 107
t194.5 39.5t195 -39.5t160 -107t107 -160t40 -194.5t-40 -195t-107 -160t-160 -107t-195 -40zM511 778q-96 0 -183.5 -37.5t-151 -101t-101 -151t-37.5 -183.5t37.5 -183.5t101 -151t151 -101t183.5 -37.5t184 37.5t151 101t101 151t38 183.5t-37.5 183.5t-101 151
t-151.5 101t-184 37.5z" />
    <glyph glyph-name="uniE61C" unicode="&#xe61c;" 
d="M512 748q-185 0 -316.5 -131.5t-131.5 -316.5t131.5 -316.5t316.5 -131.5t316.5 131.5t131.5 316.5t-131.5 316.5t-316.5 131.5zM512 -127q-116 0 -214.5 57t-155.5 155.5t-57 214.5t57 214.5t155.5 155.5t214.5 57t214.5 -57t155.5 -155.5t57 -214.5t-57 -214.5
t-155.5 -155.5t-214.5 -57zM609 378q-1 2 -0.5 5.5t0.5 4.5l-3 8l-5 2q-9 1 -10 3q-21 29 -22 41q9 10 12.5 30.5t-2 38.5t-20.5 21q6 11 9.5 26.5t0.5 34t-15 26.5q-19 14 -41 2.5t-18 -41.5q-1 -3 -10 -10.5t-8 -17.5q7 0 12.5 6t10.5 7q9 -9 3 -33q-1 -2 -4.5 -4.5
t-8.5 -5t-6 -3.5q-10 -8 -18 -15q-16 -15 -32 -35q-23 -31 -33 -56q-6 -15 0 -22.5t20.5 -14.5t19.5 -13q-10 -17 -10.5 -37t5 -35t12.5 -36.5t9 -37.5q-8 6 -17.5 8.5t-23 1.5t-21.5 -2t-24 -4t-19 -4q-17 42 -43 9q-23 -29 -23 -62q0 -11 4 -16q9 2 18 12.5t18.5 16
t22.5 2.5q13 9 30.5 9t32 -5t34 -10t34.5 -5q5 0 8.5 6t6.5 7q5 -16 3.5 -67.5t11.5 -68.5q-12 -27 -12 -46l11 -5q9 -5 14.5 -7.5t15 -6.5t16 -4.5t14.5 -0.5t14.5 3.5t11.5 10.5q-5 5 -18 13.5t-20 17.5t-8 23h-4q-8 1 -11 10q-4 24 4 65.5t9 53.5q1 43 -6 63q-7 22 -6 32
t10 28q3 8 4.5 16t1.5 13.5t-0.5 15.5t-0.5 16q-1 27 9 43q2 2 7.5 -7t7.5 -13q8 -16 16 -17q7 -1 14.5 4t4.5 12z" />
    <glyph glyph-name="uniE61D" unicode="&#xe61d;" 
d="M438 662q-7 0 -11.5 -4.5t-4.5 -10.5v-126q-3 -12 -19 -12q-7 0 -12 4t-6 10v124q0 6 -5 10.5t-11.5 4.5t-11 -4.5t-4.5 -10.5v-124q-1 -6 -6 -10t-13 -4q-15 0 -18 12v126q0 6 -5 10.5t-11.5 4.5t-11 -4.5t-4.5 -10.5v-154v-1v0v-1v-46q0 -17 16.5 -37.5t32.5 -22.5
v-422q0 -15 10.5 -25.5t25.5 -10.5t25.5 10.5t10.5 25.5v422q16 2 32.5 22.5t16.5 37.5v46v1h-1h1v1v154q0 6 -5 10.5t-11 4.5zM740 523q0 49 -32.5 104t-73.5 55t-74 -55t-33 -104q0 -33 18.5 -59.5t47.5 -38.5v-457q0 -18 11 -30.5t26.5 -12.5t27 12.5t11.5 30.5v454
q31 11 51 38.5t20 62.5z" />
    <glyph glyph-name="uniE61E" unicode="&#xe61e;" 
d="M571 52q21 161 80 285q-3 10 -3 11q-20 -10 -49 -20q-51 -120 -71 -269l-32 4q-20 174 -88 316q-19 10 -30 16q3 -26 1 -59q54 -123 73 -269q-58 3 -102 -9t-65 -28t-33.5 -36.5t-15 -30.5t-2.5 -13h683q-151 67 -346 102zM501 326q-11 7 -24 15q-13 -26 -15 -56
q14 25 39 41zM381 157q-25 25 -34 54t-7 59t5.5 61.5t-2.5 71.5t-26 79q18 -23 71.5 -53t103.5 -58.5t61 -49.5q-6 39 -23 70t-37 49.5t-51 33t-54.5 21.5t-58.5 15q44 -9 82.5 -7t60 10t46 15.5t41.5 9.5t45 -9q-44 47 -127.5 49t-157.5 -47q22 23 64 42.5t78 40t52 49.5
q-67 13 -128.5 -29.5t-76.5 -100.5q1 13 -1 49t3 59t25 35q-25 -1 -44 -18t-27.5 -40t-7.5 -48.5t14 -42.5q-46 22 -86.5 -15t-40.5 -81q39 48 119 72q-65 -35 -100.5 -112t-24.5 -170q1 33 23.5 69t57.5 86t54 96q-12 -36 -13 -80t8.5 -89.5t39 -85.5t74.5 -60zM665 471
q-30 24 -67 35q-36 5 -82 -14q-7 -2 -24 -8q13 -9 24 -19q5 -1 22 -4.5t24.5 -5t26.5 -4t28.5 -2t30.5 1.5q-57 -14 -93 -34q16 -27 24 -60q71 22 101 57q-7 -33 9 -90l32 -112q16 -57 9 -92q29 71 21.5 160t-42.5 145q26 -33 55.5 -56.5t51 -34t43 -24t33.5 -28.5
q1 68 -46.5 109.5t-117.5 50.5h34q20 0 37 -1t33 -7.5t25 -19.5q-9 31 -32 52.5t-54.5 23.5t-65.5 -26q10 29 -7 58t-48.5 43.5t-60.5 7.5q21 -6 31 -21t20.5 -40t24.5 -41z" />
    <glyph glyph-name="uniE61F" unicode="&#xe61f;" 
d="M118 -104h57v403l5 5q4 4 14.5 9.5t20.5 7t23 -4.5t24 -22q2 -3 6.5 -9t18 -33t28.5 -63.5t38 -104.5t46 -152q1 -3 3.5 -8.5t12 -19.5t22.5 -25t36 -21t51 -12h163l255 46q3 1 7.5 3t16 8t20 12.5t14 16.5t3 21t-17.5 24.5t-43 27.5l-249 116l-115 2q-2 0 -7 1.5
t-17.5 8t-23 15.5t-20.5 27.5t-15 41.5q-5 17 -14.5 44t-43 92t-70.5 108q-167 237 -196 271q-8 -4 -20 -11t-41.5 -33t-50 -56.5t-32.5 -81.5t-1 -107q2 -2 11 -20t24.5 -64t28.5 -106t22 -155.5t6 -201.5z" />
    <glyph glyph-name="uniE620" unicode="&#xe620;" 
d="M771 790h-233q-22 0 -37 -16l-267 -266q-6 -7 -6 -16t6 -15l246 -246q7 -6 16 -6t15 6l87 87v62l-102 -103l-215 215l250 251q4 3 8 3h211v-211q-1 -4 -3 -7l-62 -61v156q22 12 22 37q0 18 -12.5 31t-30.5 13t-31 -13t-13 -31q0 -25 22 -37v-324q0 -9 6.5 -15.5
t15.5 -6.5t15 6.5t6 15.5v106l93 93q15 15 15 37v233q0 9 -6.5 15.5t-15.5 6.5zM7 16v18h81v-18q-12 -25 -29 -46v-129h-19v106q-14 -14 -30 -27q-2 9 -7 20q39 31 64 76h-60zM32 76l17 9q9 -15 20 -34l-19 -10q-10 21 -18 35zM62 -44l13 11q16 -17 28 -33l-15 -12
q-12 17 -26 34zM88 -132h70v123h-59v19h59v74h21v-74h63v-19h-63v-123h71v-20h-162v20zM280 68h215v-20h-194v-174h198v-20h-219v214zM321 21l14 13q31 -26 65 -57q26 29 50 62l19 -12q-27 -34 -54 -63q32 -29 65 -61l-17 -18q-31 32 -63 63q-36 -37 -73 -65q-6 8 -16 17
q39 26 74 62q-31 30 -64 59zM518 59h115q-5 9 -12 20l19 8q8 -13 16 -28h108v-18h-246v18zM537 5h60q-8 13 -18 25l15 11q12 -14 22 -27l-14 -9h57q13 16 23 35l19 -11q-12 -15 -20 -24h63v-131q0 -32 -29 -32h-35q-2 15 -4 22q20 -2 33 -2q16 0 16 18v108h-170v-149h-18
v166zM610 -15l13 -13q-29 -25 -54 -44l-12 15q27 18 53 42zM591 -136v81h100v-68h-82v-13h-18zM673 -107v36h-64v-36h64zM654 -29l11 14q37 -23 56 -37l-12 -16q-25 20 -55 39zM774 -125h80v206h21v-206h44v206h21v-206h81v-19h-247v19zM803 32q20 -48 39 -102l-20 -10
q-17 53 -38 104zM949 -73q25 53 42 103l20 -8q-23 -60 -44 -103z" />
    <glyph glyph-name="uniE621" unicode="&#xe621;" 
d="M1009 27q11 -22 10.5 -42t-11.5 -34.5t-31.5 -23t-47.5 -8.5h-418h-278h-146q-29 0 -48 10.5t-27.5 27.5t-7.5 38t12 42q16 30 33 62q22 42 36 68l37 69q17 31 36 66q38 70 81 148l137 -268l270 499q72 -126 140 -248q31 -54 59.5 -107t59.5 -109q29 -50 57 -102
q27 -50 47 -88z" />
    <glyph glyph-name="uniE622" unicode="&#xe622;" 
d="M900 345q-8 1 -14.5 11t-10.5 37q-5 44 -29 64.5t-74 29.5q-53 11 -93 41q-40 31 -67 58q-26 24 -40 17t-14 -25v-153q0 -63 -0.5 -136t-0.5 -138v-178q1 -27 -9 -60t-37 -62q-28 -29 -73 -50t-113 -24q-69 -4 -125 23q-55 27 -85.5 68t-30 89.5t44 91.5t93.5 59.5
t97 18.5t83.5 -6t54.5 -15v317q0 133 1 299q0 32 17.5 53t46.5 24q24 3 40 -9.5t32 -35.5t40 -52q24 -30 65 -58q35 -25 61 -37q24 -10 49 -20q23 -10 45 -23q22 -14 49 -44q27 -29 33 -60.5t0.5 -57t-17 -42t-19.5 -15.5z" />
    <glyph glyph-name="uniE623" unicode="&#xe623;" 
d="M829 190l-120 -52l-93 104q-6 -12 -22 -37.5t-24 -41.5l120 -130l207 105zM630 273l31 23l-160 243l142 -28l-15 -109l65 23l21 131l-213 69l-114 -55l-33 -16l-80 -38l-31 -185l-116 -9l23 -64l144 9l39 178l120 -218l7 -1q8 -1 17 -1l-125 -140q0 -1 8 -23.5t20 -55.5
t23.5 -66.5t19.5 -59.5t7 -31h36h35q1 14 -73 218l175 188q14 8 27 18zM265 663.5q0 33.5 24 57.5t57.5 24t57.5 -24t24 -57.5t-24 -57.5t-57.5 -24t-57.5 24t-24 57.5z" />
    <glyph glyph-name="uniE624" unicode="&#xe624;" 
d="M898 295h-223q-36 -58 -95 -102l318 52v50zM459 -148h50l58 331q-53 -37 -109 -54zM407 565q26 0 45 19t19 45t-19 45t-45 19t-45 -19t-19 -45t19 -45t45 -19zM564 197q35 26 62.5 56.5t42 57.5t25 55.5t12.5 48.5t4 37t-1 21l-153 -110q-21 22 -33 54.5t-9 57.5l137 244
l-41 29l-157 -210l-325 -1l-2 -48l227 -29q5 -118 58 -200l-156 -112q11 -5 26 -9.5t48.5 -8t67 -0.5t79 19.5t88.5 47.5z" />
    <glyph glyph-name="uniE625" unicode="&#xe625;" 
d="M877 375q-8 36 -22 70q-14 33 -34 63t-45.5 55.5t-55 45.5t-63.5 34q-35 15 -70 22q-37 7 -75 7t-75 -7q-36 -7 -70 -22q-33 -14 -63 -34t-55.5 -45.5t-45.5 -55.5t-34 -63q-15 -34 -22 -70q-7 -37 -7 -75t7 -75q8 -36 22 -70q14 -33 34 -63t46 -55q25 -26 55 -46t63 -34
q34 -14 70 -22q37 -7 75 -7t75 7q36 8 69.5 22t63.5 34t55.5 45.5t45.5 55t34 63.5q15 34 22 70q7 37 7 75t-7 75zM830 303q-5 1 -14.5 3t-34 5t-49.5 5t-59 1.5t-65 -3.5q-2 6 -6 16q-10 22 -22 46q36 15 67 33.5t50 33t34.5 30t19.5 21t7 8.5q71 -87 72 -199zM722 539
q-2 -3 -6 -8.5t-18 -19.5t-31.5 -28t-47 -30.5t-63.5 -28.5q-55 101 -119 185q37 9 75 9q120 0 210 -79zM436 609h-1h1zM376 588q61 -82 118 -184q-68 -18 -143 -27.5t-103.5 -10.5t-46.5 0q15 73 61.5 131.5t113.5 90.5zM194 300v10q23 0 53 0.5t115.5 12t158.5 32.5
q14 -28 26 -54q-7 -2 -13 -4q-48 -15 -92.5 -42.5t-73.5 -55.5t-51 -53.5t-32 -41.5l-10 -16l1 -1q-82 91 -82 213zM512 -18q-114 0 -203 73l8 -6q2 6 7.5 15t26 35.5t46 50.5t71 52t98.5 46q1 0 2 1q48 -125 68 -242q-59 -25 -124 -25zM690 36q-18 106 -62 227
q29 5 59.5 5.5t52.5 -2t43.5 -6.5t29.5 -6.5t13 -4.5q-11 -65 -46.5 -120.5t-89.5 -92.5z" />
    <glyph glyph-name="uniE626" unicode="&#xe626;" 
d="M787 389q-23 0 -44 -6l-52 143h96q27 0 37 -18q6 -11 -1 -23q-13 -20 -53 -17q-6 1 -11 -3.5t-5.5 -11t4 -11.5t10.5 -5q58 -4 81 31q18 27 2 55q-18 34 -64 34h-118q-8 0 -12.5 -7t-2.5 -14l18 -50h-265l-8 24h42q7 0 11.5 4.5t4.5 11t-4.5 11t-11.5 4.5h-102
q-6 0 -10.5 -4.5t-4.5 -11t4.5 -11t10.5 -4.5h27v-1v-3l11 -30l-63 -105q-36 18 -77 18q-71 0 -122 -51t-51 -122t51 -122t122 -51q66 0 115 44t57 109h38q26 -24 41 -24q20 0 34 13.5t14 33.5q0 12 -6 22l158 201l25 -70q-44 -21 -71.5 -63t-27.5 -93q0 -72 50.5 -122.5
t122 -50.5t122.5 50.5t51 122t-51 122.5t-122 51zM237 75q-58 0 -99.5 41.5t-41.5 99.5t41.5 99.5t99.5 41.5q31 0 60 -13l-73 -121q-3 -5 -2 -10v-1q-1 0 -1 -1q0 -6 5 -10.5t11 -4.5h140q-8 -49 -48 -85t-92 -36zM263 227l61 101q50 -39 54 -101h-115zM442 227h-32
q-5 79 -70 128l51 83l67 -184q-14 -12 -16 -27zM488.5 203q-6.5 0 -11 4.5t-4.5 11t4.5 11t11 4.5t11 -4.5t4.5 -11t-4.5 -11t-11 -4.5zM506 262q-8 4 -18 4h-1l-69 189h240zM786.5 75q-58.5 0 -100 41t-41.5 100q0 41 22 75t57 51l48 -132q4 -10 15 -10q3 0 5 1q6 2 9 8
t1 12l-48 132q17 4 33 4q58 0 99.5 -41.5t41.5 -100t-41.5 -99.5t-100 -41z" />
    <glyph glyph-name="uniE627" unicode="&#xe627;" 
d="M958 501q2 13 -5.5 23.5t-20.5 12.5l-83 12l-15 84q-2 13 -12.5 20.5t-23.5 4.5l-302 -56l-235 34q-13 2 -23.5 -6t-12.5 -21l-8 -60l-131 -25q-12 -2 -19.5 -12.5t-5.5 -23.5l94 -521q2 -13 13 -20q8 -6 18 -6q3 0 5 1l416 78l247 -37h4q12 0 20.5 8t10.5 19l9 65l5 1
q13 2 20 13t5 23l-14 77zM779 590l6 -31l-97 14zM171 227l-43 241l80 15zM211 10l-13 70l217 -32zM879 385l-28 -197l-8 -59l-9 -67l-2 -11l-34 5l-192 28l-384 57l50 354l9 66l1 8l23 -3l192 -29l299 -44l65 -9l31 -5zM410.5 346.5q24.5 -3.5 44.5 11.5t23.5 40t-11.5 45.5
t-39.5 24t-44 -11.5t-23 -40t11 -45.5t39 -24zM760 304l-57 -60l-71 144l-136 -159q-3 1 -9.5 3.5t-26 7.5t-38 7.5t-43 1.5t-44 -7.5t-38 -23.5t-28.5 -43l460 -68l68 -10l-4 22z" />
    <glyph glyph-name="uniE628" unicode="&#xe628;" 
d="M512 509q-95 0 -162.5 -67.5t-67.5 -163t67.5 -163t162.5 -67.5t162.5 67.5t67.5 163t-67.5 163t-162.5 67.5zM643.5 166q-46.5 -54 -118 -59.5t-126 41t-60 118t41 125.5t118 59.5t126 -41t60 -118t-41 -125.5zM512 394q-48 0 -81.5 -34t-33.5 -81q0 -6 4 -10.5t10 -4.5
t10.5 4.5t4.5 10.5q0 35 25 60.5t61 25.5q6 0 10 4t4 10t-4 10.5t-10 4.5zM901 537l-125 20l-40 99q-10 25 -31.5 40t-48.5 15h-288q-27 0 -48.5 -15t-31.5 -40l-40 -99l-125 -20q-31 -6 -51.5 -30t-20.5 -56v-432q0 -35 25.5 -60.5t61.5 -25.5h748q36 0 61.5 25.5
t25.5 60.5v432q0 32 -20.5 56t-51.5 30zM915 19q0 -11 -8.5 -19.5t-20.5 -8.5h-748q-12 0 -20.5 8.5t-8.5 19.5v432q0 11 6.5 19t17.5 10l157 26l51 129q7 18 27 18h288q19 0 27 -18l51 -129l157 -26q11 -2 17.5 -10t6.5 -19v-432z" />
    <glyph glyph-name="uniE629" unicode="&#xe629;" 
d="M938 811h-853q-35 0 -60 -24.5t-25 -60.5v-681q0 -36 25 -60.5t60 -24.5h853q35 0 60 24.5t25 60.5v681q0 36 -25 60.5t-60 24.5zM938 130h-853v596h853v-596zM810 -126h-597q-17 0 -29.5 -12.5t-12.5 -30t12.5 -30t29.5 -12.5h597q18 0 30.5 12.5t12.5 30t-12.5 30
t-30.5 12.5z" />
    <glyph glyph-name="uniE62A" unicode="&#xe62a;" 
d="M908 33v42h11v523h-737v-10h-42v53h822v-608h-54zM887 -42h-822v608h822v-608zM844 524h-736v-523h736v523zM385 261l50 52l125 -131l100 65l152 -44v-170h-672v202l170 104zM612.5 352q-19.5 0 -33 13.5t-13.5 32.5t13.5 32.5t33 13.5t33 -13.5t13.5 -32.5t-13.5 -32.5
t-33 -13.5z" />
    <glyph glyph-name="uniE62B" unicode="&#xe62b;" 
d="M0 -96v843h1024v-843h-1024zM960 684h-896v-702h896v702zM346 225l174 202l57 -59l115 146l172 -263v-142h-694l116 173zM314.5 370q-35.5 0 -60.5 25t-25 60.5t25 61t60.5 25.5t61 -26t25.5 -61t-25.5 -60t-61 -25z" />
    <glyph glyph-name="uniE62C" unicode="&#xe62c;" 
d="M864 275v6v6v-12v0zM262 569q97 87 226 92l19 -2q-1 -16 -1 -22q0 -98 47.5 -181t130 -131.5t180.5 -49.5q-7 -109 -74 -196zM569 644v3v4v3l10 -1q114 -24 192.5 -111t91.5 -204q-123 5 -208.5 93.5t-85.5 212.5zM864 338v-27q0 20 -1 27h1zM529 -61h-9v2v3
q0 98 -48.5 181.5t-132 132t-182.5 48.5h-5h-6h-5v4q3 121 79 215l529 -491q-93 -86 -220 -95zM141 287q1 -23 4 -44h-2h-2v44zM152 244q126 0 215.5 -89t90.5 -215q-120 15 -207 99.5t-106 203.5q1 0 3.5 0.5t3.5 0.5zM458 -61v1q2 0 4.5 -0.5t5.5 -0.5h4h-14z" />
    <glyph glyph-name="uniE62D" unicode="&#xe62d;" 
d="M31 796zM479 174q-2 -11 -5 -16.5t-13 -12.5q-26 -16 -55 -25.5t-55.5 -21t-46.5 -30.5t-25 -54q-2 -11 -2.5 -21t-1.5 -19q-1 -2 -2 -3.5t-2 -3.5q-37 3 -76 7t-71.5 9t-55 10t-27.5 9q-9 7 -13.5 41t3.5 88q5 30 25 46t47 25.5t55.5 17t50.5 21.5q18 12 27 21.5
t13 19.5t4 21t-1 23q-2 20 -13 31t-25 23q-7 4 -12.5 15t-9.5 21q-4 12 -8 27q-6 2 -11 6q-5 3 -10.5 11t-10.5 21.5t-4 25.5t5 21q4 11 11 18q-1 31 3 63q4 26 12.5 56t26.5 54q15 23 34.5 37.5t39.5 23t40 11.5t40 3q48 0 87 -20.5t58 -43.5q13 -17 16.5 -31t8.5 -32
q-18 -11 -39 -32t-36 -42q-20 -27 -29.5 -60t-14.5 -61q-5 -34 -5 -68q-7 -9 -11 -19t-5 -23t4 -29t10.5 -25t10.5 -14q6 -6 12 -7q4 -16 7 -30q4 -11 9.5 -23t13.5 -18q7 -6 10.5 -10t6 -7.5t3 -9t2.5 -15.5zM996 -5q4 -13 6.5 -32.5t2.5 -39.5t-3 -37.5t-9 -25.5
q-4 -6 -23 -12t-47 -10.5t-62 -9t-68.5 -7.5t-66.5 -5t-56 -2t-55.5 2t-65.5 5t-67 6.5t-60.5 7.5t-46.5 8.5t-24 8.5q-8 7 -12.5 41t2.5 87q5 31 25 46.5t47 25t55.5 17t51.5 22.5q17 11 26.5 21t13.5 19.5t4 20t-1 24.5q-2 19 -13.5 30.5t-24.5 21.5q-7 6 -12.5 16.5
t-9.5 21.5q-4 12 -7 26q-6 2 -12 6q-5 4 -10.5 11.5t-10 21.5t-3.5 26t4 20q4 9 11 17q-1 31 3 63q4 27 12 56.5t26 55.5q15 23 34.5 37.5t40 22.5t41 11t38.5 3q50 0 88.5 -20t57.5 -44q21 -26 31 -58.5t15 -60.5q5 -33 4 -66q5 -4 9 -11q3 -5 5 -14.5t1 -22.5
q-2 -18 -8 -28.5t-12 -16.5q-7 -7 -15 -9q-4 -14 -8 -26q-4 -11 -10 -21.5t-12 -15.5q-8 -7 -14.5 -11.5t-11 -10t-8 -12t-5.5 -16.5q-2 -13 -1.5 -26t6 -25.5t19 -24t36.5 -20.5q20 -9 45 -15t47.5 -15t40.5 -22.5t26 -34.5v-1z" />
    <glyph glyph-name="uniE62E" unicode="&#xe62e;" 
d="M-53 853zM289 301.5q0 17.5 12 29.5t29.5 12t30 -12t12.5 -29.5t-12.5 -30t-30 -12.5t-29.5 12.5t-12 30zM622 301.5q0 17.5 12.5 29.5t30 12t29.5 -12t12 -29.5t-12 -30t-29.5 -12.5t-30 12.5t-12.5 30zM598 128q-16 -17 -41 -18.5t-33 4.5v1h-1l1 31q16 3 25.5 13.5
t9.5 23.5q0 11 -7 17t-17 8.5t-25 2.5q-11 0 -19.5 -1t-15.5 -4.5t-11 -9t-4 -13.5q0 -13 10 -23.5t25 -13.5v-33q-8 -4 -18 -5q-29 -2 -54 22q-10 10 -20 0t0 -20q31 -31 69 -31q5 0 9 2q17 1 31 8q0 -1 1 -1t2 -1q19 -5 38 -5h2q12 0 23.5 3t21.5 8.5t18 14.5q4 5 4 10.5
t-4 9.5q-10 10 -20 0zM893 530q-111 69 -181 77q-14 7 -29 11.5t-33 9.5q-35 9 -77 13.5t-85 4.5q-90 0 -159 -19q-40 -11 -67 -28q-60 -21 -130 -65q-47 -30 -75.5 -68.5t-33 -74t9.5 -64.5t62 -40v-1q-24 -104 42 -187q55 -68 159 -107q48 -17 101.5 -26.5t108.5 -9.5
q111 0 208 36q102 39 158 106q66 81 46 180q0 2 -1 4q56 5 75 40q23 44 -3 104t-96 104zM824 137q-45 -55 -131 -87.5t-187 -32.5q-102 0 -190 32.5t-132 87.5q-47 59 -31 136q2 2 2.5 4.5t1.5 6.5q26 3 51 11t47 25t36 40q90 148 82 215q52 11 115 11q92 0 164 -21
q0 -18 10 -42.5t20 -42.5t36 -57.5t37 -59.5q34 -54 99 -74l4 -22q15 -72 -34 -130z" />
    <glyph glyph-name="uniE62F" unicode="&#xe62f;" 
d="M510 704q-81 2 -155.5 -30.5t-127.5 -87.5t-85 -129.5t-34 -154.5q-2 -82 30.5 -156t88 -127.5t130 -85.5t153.5 -34q82 -2 156.5 30.5t127.5 88t85 130t34 154.5q-3 110 -56.5 201.5t-145 145t-201.5 55.5zM776 100q-49 67 -62 147q65 8 129 21q-11 -94 -67 -168z
M843 336q-66 -14 -133 -22q4 104 66 190q56 -76 67 -168zM644 307q-50 -5 -100 -6v335q105 -8 186 -82q-85 -112 -86 -247zM477 301q-47 1 -93 6q-1 137 -89 250q80 66 182 78v-334zM477 234v-267q-103 9 -182 79q68 88 85 194q47 -5 97 -6zM544 234q52 1 104 6
q16 -103 82 -189q-80 -70 -186 -82v265zM248 510q66 -87 70 -194q-74 12 -138 33l-1 1h-2q12 88 71 160zM176 281q65 -21 138 -32q-13 -84 -66 -154q-63 83 -72 186z" />
    <glyph glyph-name="uniE630" unicode="&#xe630;" 
d="M457 336q50 -15 55 -17q72 -25 131 -33.5t132 -4.5q62 4 122 47q-10 10 -23 16l-263 145q-1 0 -2 1q39 44 110 44q45 0 73.5 -13t46.5 -45q2 -5 7 -11.5t20.5 -15t32.5 -1.5q18 7 24.5 18.5t3 22.5t-9.5 21.5t-12 16.5l-6 7q-24 37 -72 61.5t-108 24.5q-115 0 -187.5 -56
t-79.5 -144q-4 -19 -1 -38q2 -25 6 -46zM285 362q35 0 65 16q10 19 10 41q0 -17 7 -31q53 39 53 103q0 53 -39.5 91t-95 38t-95 -38t-39.5 -91.5t39.5 -91t94.5 -37.5zM399 281q-55 24 -111 32t-93 5t-72 -13t-45.5 -15t-16.5 -9v-75q56 32 120 36t126.5 -12.5t121 -38
t122.5 -41t111 -19.5q57 -1 109 6.5t85.5 18.5t59 22.5t36.5 19.5l11 8v75q-57 -45 -131 -63t-151.5 -10.5t-145.5 26t-136 47.5zM474 93q-190 82 -283 47q-17 -7 -17 -9v-75q44 22 93 22t96.5 -15t93.5 -33.5t101.5 -34t103.5 -15.5q61 0 117 10t82.5 18.5t26.5 9.5v75
q-90 -38 -204.5 -38.5t-209.5 38.5z" />
    <glyph glyph-name="uniE631" unicode="&#xe631;" 
d="M886 -30q0 -29 -22.5 -49t-54.5 -20h-550q-32 0 -54.5 20t-22.5 49v651q0 29 22.5 49t54.5 20h550q32 0 54.5 -20t22.5 -49v-651zM817 622h-565v-653h565v653zM659 573l-82 -151q-33 -61 -40 -81h-1q-22 49 -122 232h-77l143 -246h-118v-54h138v-75h-138v-55h138v-109h69
v109h132v55h-133v75h133v54h-114l145 246h-73z" />
    <glyph glyph-name="uniE632" unicode="&#xe632;" 
d="M166 681h693v-739h-60v39h-573v-39h-60v739zM799 626h-573v-589h573v589zM265 486h296v114h59v-114h152v-54h-152v-242q0 -115 -110 -115q-44 0 -91 2q-5 28 -13 63q53 -7 90 -7q65 0 65 74v185q-96 -149 -284 -264q-15 26 -40 53q184 102 286 251h-258v54z" />
    <glyph glyph-name="uniE633" unicode="&#xe633;" 
d="M902 322l-461 418q-27 28 -413 14h-12q-18 -450 7 -454l457 -433q22 -22 53.5 -22t53.5 22l289 321q17 20 28 36.5t19 35t3 34.5t-24 28zM215.5 548q-23.5 -23 -56.5 -23t-56 23t-23 56t23 56.5t56 23.5t56.5 -23.5t23.5 -56.5t-23.5 -56zM504 99q-10 -12 -26 -28
q-12 9 -25 17q16 14 24 22q10 11 -3 22l-68 63l-23 -46l-24 17q12 23 25 49l-57 53l-33 -34l-18 16l33 34l-52 48l19 20l52 -48l30 32l18 -17l-30 -31l51 -48q9 18 19 37q13 -12 21 -19q-8 -14 -19 -37l79 -72q29 -26 7 -50zM655 248l-137 125l-61 -63q94 -87 105 -163
q-15 1 -32 -1q-8 67 -92 144l-99 91q64 66 121 147l27 -12q-66 -84 -110 -132l61 -56l125 130l19 -18l-44 -46l137 -126zM971 365l-392 370q-12 10 -33.5 14.5t-36.5 4.5h-15l432 -405q20 -13 30 -31t9.5 -34.5t-4 -30.5t-8.5 -23l-4 -9q-22 -23 -56.5 -61t-107.5 -119
t-120 -135.5t-45 -55.5q22 -11 46.5 -6.5t42.5 23.5l264 318q29 42 37.5 73.5t-1.5 56t-38 50.5z" />
    <glyph glyph-name="uniE634" unicode="&#xe634;" 
d="M647 347q39 31 61.5 76t22.5 96q0 91 -64 155.5t-155 64.5t-155 -64.5t-64 -155.5q0 -51 22.5 -96t61.5 -76q-103 -41 -167 -133.5t-64 -206.5v-73q0 -15 11 -25.5t26 -10.5h658q15 0 26 10.5t11 25.5v73q0 114 -64 206.5t-167 133.5zM512 666q61 0 103.5 -43
t42.5 -103.5t-42.5 -103.5t-103.5 -43t-103.5 43t-42.5 103.5t42.5 103.5t103.5 43zM805 -29h-586v36q0 121 86 207t207 86t207 -86t86 -207v-36zM239 313q20 3 28 21l2 7q0 3 1 4q0 4 -1 9v2v2q0 1 -1 2q0 2 -2 5q-3 5 -5 9h-1q-5 6 -12 9q-30 13 -47.5 40t-17.5 60
q0 38 23.5 67.5t59.5 38.5q11 41 35 76q-1 0 -4 0.5t-4 0.5q-76 0 -129.5 -54t-53.5 -129q0 -70 47 -123q-72 -37 -114.5 -106.5t-42.5 -152.5v-57q0 -15 10.5 -26t26.5 -11h73v74h-37v20q0 75 46 134.5t120 77.5zM867 360q47 53 47 123q0 75 -53.5 129t-129.5 54
q-1 0 -4 -0.5t-4 -0.5q24 -35 35 -76q36 -9 59.5 -38.5t23.5 -67.5q0 -33 -17.5 -60t-47.5 -40q-7 -3 -12 -8v-1h-1q-2 -3 -5 -9q-2 -3 -2 -5q-1 -1 -1 -2v-2v-2q-1 -5 -1 -9q1 -1 1 -4l2 -7q8 -18 28 -21q74 -18 120 -77.5t46 -134.5v-20h-37v-74h73q16 0 26.5 11t10.5 26
v57q0 83 -42.5 152.5t-114.5 106.5z" />
    <glyph glyph-name="uniE635" unicode="&#xe635;" 
d="M572 90l-148 30q3 26 4 49l102 70q24 -69 42 -149zM450 407l-50 -34q8 -20 13 -38l85 -17q-21 47 -46 85q-1 1 -2 4zM525 252q-9 25 -20 50l-89 18q15 -62 13 -134zM269 489q-3 -8 -3 -15q0 -26 23 -39q-2 -8 -2 -15q0 -23 15.5 -39t38.5 -16q34 0 49 32q3 -8 5 -11
l49 34q-1 4 -2 5l-8 20q10 -6 21 -6q18 0 30 13t12 31t-12 30.5t-30 12.5t-30 -13q3 48 32.5 88t77.5 64q45 22 91.5 19.5t86.5 -27.5q-39 56 -105 73.5t-129 -13.5q-73 -36 -97 -116q0 58 38 99q7 7 14 13q36 33 83.5 42.5t91.5 -3.5q-52 44 -121 43.5t-121 -46.5
q-61 -53 -65 -135q-25 39 -68 56.5t-88 6.5q-53 -13 -84.5 -57t-28.5 -99q13 36 40.5 61.5t64.5 34.5q45 11 87.5 -6t67.5 -55q-77 31 -151 -6q-62 -32 -89 -96t-8 -130q6 47 33 87t70 62q58 29 121 16zM643 -33l69 14q-2 12 -3 23l-47 32q-11 -32 -19 -69zM723 98l-24 16
q0 -1 -1 -2q-11 -18 -21 -39l40 8q2 9 6 17zM674 66q-5 -11 -10 -24l45 -30q-1 33 6 62zM626 274q45 14 81 -18q4 -3 6 -6q18 -19 18 -46q-11 37 -45 54q-29 14 -60 6t-49 -34q41 25 83 4q48 -24 51 -71q-6 6 -14 6t-14 -5.5t-6 -14t6 -14.5t14 -6q5 0 10 3q-2 -5 -4 -9
q-1 -2 -1 -3l23 -16q0 1 1 4l1 1q7 -15 23 -15q10 0 17.5 7.5t7.5 18.5q0 3 -1 7q11 6 11 18q0 3 -2 7q30 6 56 -7q43 -22 48 -70q9 31 -3.5 61t-41.5 44q-34 18 -70 3q12 18 31.5 26t40.5 3q36 -9 49 -45q1 25 -13.5 45.5t-39.5 26.5q-21 6 -40.5 -2.5t-31.5 -26.5
q-2 38 -30 63q-24 21 -56 21t-56 -20zM734 -109q-16 45 -22 84l-71 -15q-2 -11 -4 -21l68 -47q-2 0 -6 0.5t-6 0.5l-58 39q-3 -20 -5 -38h-25q-7 60 -17 120l-181 -124q-4 0 -27 -1l205 140q-5 25 -9 46l-154 31q-15 -101 -60 -218q-102 -6 -162 -16t-60 -23
q0 -18 129.5 -31t312.5 -13t312.5 13t129.5 31q0 15 -80.5 26.5t-209.5 15.5z" />
    <glyph glyph-name="uniE636" unicode="&#xe636;" 
d="M437 653h-279q-13 0 -21.5 -8.5t-8.5 -20.5l1 -229l337 -2v227q0 33 -29 33zM407 394l-216 4v196h216v-200zM473 433h-352q-13 0 -21 -8.5t-8 -21.5v-265q0 -49 37 -86q34 -34 80 -34h59v-242h62v242h54q48 0 85 36q34 32 34 82v264q0 15 -7.5 24t-22.5 9zM444 137
q0 -21 -17 -38q-20 -18 -43 -18h-175q-21 0 -37 16q-18 18 -18 44v233h290v-237zM899 356h-279q-12 0 -20.5 -8.5t-8.5 -21.5v-188q0 -49 37 -86q34 -34 80 -34h22v-242h63v242h17q48 0 85 36q38 36 38 84l-3 187q0 31 -31 31zM881 126q0 -21 -17 -38q-20 -18 -43 -18h-124
q-20 0 -37 16q-18 18 -18 44v178h239v-182zM793 569h-59q-58 0 -76 -19h-1q-22 -22 -22 -73v-136q0 -2 0.5 -4t2 -3t3 -1.5t3.5 -0.5h5h5h5h5h6q1 0 3 0.5t3 1.5t2 2.5t1 4.5v136q0 36 8 44q7 7 47 7h59q40 0 48 -7q3 -3 3 -46v-134q0 -3 2 -5t7 -3t8 -1h9h8q4 0 3 -5
q7 7 7 14v136q0 55 -18.5 73.5t-76.5 18.5zM721 507q-9 0 -9 -11v-107q0 -11 9 -11q3 0 6 3t3 8v107q0 11 -9 11zM761 507q-9 0 -9 -11v-107q0 -11 10 -11q9 0 9 11v107q0 11 -10 11zM802 507q-9 0 -9 -11v-107q0 -11 9 -11t9 11v107q0 11 -9 11z" />
    <glyph glyph-name="uniE637" unicode="&#xe637;" 
d="M69 621v75h191v88h96v-88h185v-75h-185v-61v-7h160v-73h-160l-12 -67h205v-80h-224q-16 -39 -45 -73.5t-71 -67.5h252v76h111v-76h313v-188q3 -60 -26 -89.5t-87 -26.5q-30 -3 -60.5 -3.5t-63.5 -0.5q-3 22 -8.5 43t-14.5 41q26 -3 52 -3.5t47 -0.5q62 0 56 48v97h-208
v-280h-111v280h-197v-221h-107v269l-36 -25q-9 12 -26.5 28t-38.5 37q19 -16 16.5 -14t-24.5 18q61 32 100 65.5t61 66.5h-161v80h197l11 67h-168v73h172v11v57h-191zM593 245v491h351v-80l-72 -124q97 -65 97 -136q0 -103 -120 -115h-48q-19 -4 -31 -4.5t-21 -0.5l-9 40
l-12 49h21q42 -7 60 0q59 0 59 44q0 23 -24 50.5t-76 60.5l77 132h-153v-407h-99z" />
    <glyph glyph-name="uniE638" unicode="&#xe638;" 
d="M512 731q68 0 125.5 -27.5t92.5 -71t54 -93.5t19 -99q0 -45 -9 -80t-28.5 -64t-36.5 -47t-48 -45q-7 41 -32 66q-13 12 -31 24.5t-30 18.5l-11 5q75 50 74 126q-2 50 -43 87.5t-90 37.5q-47 0 -89.5 -37t-42.5 -95q0 -76 81 -122q-16 -6 -22.5 -8.5t-22 -11.5t-32.5 -23
q-7 -8 -12.5 -14t-10 -12t-7 -9t-5.5 -9t-4 -7.5t-4 -8.5t-4 -8q-55 40 -88.5 103.5t-33.5 132.5q0 74 35.5 140t103.5 108.5t152 42.5zM512 10q26 0 46 -19.5t20 -46.5t-20 -46.5t-46.5 -19.5t-46 19.5t-19.5 46.5t19.5 46.5t46.5 19.5zM622 193q-45 -47 -46 -94
q0 -20 -20.5 -37.5t-46.5 -17.5q-30 0 -50.5 16.5t-20.5 40.5q0 21 -5.5 38.5t-11.5 27t-19 26.5h220zM510 -1q26 0 46 -19.5t20 -46.5t-20 -46.5t-46.5 -19.5t-46.5 19.5t-20 46.5t20 46.5t47 19.5zM510 -1z" />
    <glyph glyph-name="uniE639" unicode="&#xe639;" 
d="M624 526v23q0 43 -30.5 73.5t-73 30.5t-73 -30.5t-30.5 -73.5v-23q0 -42 30.5 -72.5t73 -30.5t73 30.5t30.5 72.5zM520.5 783q-123.5 0 -211 -87.5t-87.5 -211.5q0 -63 25.5 -120t70.5 -98q79 -74 186 -79l-45 43l46 103l-49 39l-134 -43q-54 68 -54 155q0 105 74 179
t178.5 74t178.5 -74t74 -179q0 -87 -54 -155l-134 43l-49 -39l46 -103l-45 -43q107 5 186 79q45 41 70.5 98t25.5 120q0 124 -87.5 211.5t-211 87.5zM2 -67q22 8 47 17v59h-22q-5 -24 -12 -44q-8 6 -17 11q14 35 18 83l18 -3q-2 -16 -4 -30h19v56h19v-56h25v-17h-25v-53
q12 5 25 10q1 -12 3 -19q-12 -5 -28 -11v-99h-19v92q-20 -7 -44 -17zM83 -15q25 38 45 99l19 -6q-7 -19 -15 -37h109q-5 -100 -8 -154q-3 -42 -40 -42q-14 0 -33 1q-1 9 -4 21q22 -2 35 -2q20 0 22 23q5 52 8 136h-19q-7 -64 -21 -101q-20 -48 -68 -82q-6 8 -13 16
q47 33 65 75q14 36 18 92h-22q-7 -48 -20 -77q-17 -33 -45 -59q-7 8 -13 15q28 24 42 52q13 28 18 69h-18q-13 -29 -26 -49q-6 5 -16 10zM259 -128h80v207h21v-207h44v207h21v-207h81v-19h-247v19zM288 30q20 -49 40 -103l-21 -9q-17 53 -37 104zM434 -75q25 53 42 102
l20 -8q-23 -59 -44 -103zM532 69h70v-203q0 -25 -23 -25q-13 0 -24 1q-1 7 -3 17q13 -2 22 -2q11 0 11 11v57h-35q0 -57 -21 -88q-6 8 -14 14q17 26 17 73v145zM585 53h-35v-48h35v48zM550 -59h35v48h-35v-48zM623 68h124q-2 -22 -2 -32q-2 -39 -40 -38q-10 0 -32 1
q-2 10 -3 20q18 -3 33 -3q22 -1 23 20q1 7 2 15h-86v-72h106v-15q-10 -44 -37 -77q22 -20 54 -32q-9 -10 -15 -18q-30 15 -52 36q-19 -19 -45 -33l-10 16q25 13 43 31q-24 31 -32 75h-12v-124h-19v230zM728 -38h-57q8 -36 28 -61q20 26 29 61zM843 86l18 -8q-5 -9 -11 -18
h135v-17q-23 -28 -64 -49q42 -16 101 -19q-8 -11 -14 -21q-66 8 -110 29q-50 -21 -120 -33q-4 7 -10 17q62 10 109 27q-29 18 -46 41q-19 -23 -43 -42q-7 8 -14 13q46 37 69 80zM790 -61h73q2 12 3 27h20q-1 -15 -3 -27h101q-3 -45 -5 -63q-4 -35 -42 -35q-15 0 -44 1
q-2 9 -4 21q29 -3 47 -3q22 0 24 21q2 19 3 40h-83q-13 -60 -93 -87q-6 8 -13 17q72 23 85 70h-69v18zM958 43h-112q21 -24 52 -39q36 16 60 39z" />
    <glyph glyph-name="uniE63A" unicode="&#xe63a;" 
d="M846 584l-105 105q-25 24 -67 41.5t-77 17.5h-392q-34 0 -59 -24.5t-25 -59.5v-728q0 -34 25 -59t59 -25h616q35 0 59.5 25t24.5 59v504q0 35 -17.5 77t-41.5 67zM625 629l6 -2q22 -9 30 -17l106 -106q8 -8 17 -30l3 -6h-162v161zM793 -36h-560v672h336v-224h224v-448z
M289 300h448v-56h-448v56zM289 188h448v-56h-448v56zM289 76h448v-56h-448v56z" />
  </font>
</defs>
</svg>
