<?xml version="1.0" standalone="no"?>
<!DOCTYPE svg PUBLIC "-//W3C//DTD SVG 1.1//EN" "http://www.w3.org/Graphics/SVG/1.1/DTD/svg11.dtd" >
<svg xmlns="http://www.w3.org/2000/svg">
<metadata>
Created by FontForge 20120731 at Sun Jan 11 17:07:31 2015
 By Ads
</metadata>
<defs>
<font id="iconfont" horiz-adv-x="1024" >
  <font-face 
    font-family="iconfont"
    font-weight="500"
    font-stretch="normal"
    units-per-em="1024"
    panose-1="2 0 6 3 0 0 0 0 0 0"
    ascent="812"
    descent="-212"
    x-height="792"
    bbox="-2 -224 1040.15 812.043"
    underline-thickness="50"
    underline-position="-100"
    unicode-range="U+0078-E64D"
  />
<missing-glyph horiz-adv-x="374" 
d="M34 0v682h272v-682h-272zM68 34h204v614h-204v-614z" />
    <glyph glyph-name=".notdef" horiz-adv-x="374" 
d="M34 0v682h272v-682h-272zM68 34h204v614h-204v-614z" />
    <glyph glyph-name=".null" horiz-adv-x="0" 
 />
    <glyph glyph-name="nonmarkingreturn" horiz-adv-x="341" 
 />
    <glyph glyph-name="x" unicode="x" horiz-adv-x="1001" 
d="M281 543q-27 -1 -53 -1h-83q-18 0 -36.5 -6t-32.5 -18.5t-23 -32t-9 -45.5v-76h912v41q0 16 -0.5 30t-0.5 18q0 13 -5 29t-17 29.5t-31.5 22.5t-49.5 9h-133v-97h-438v97zM955 310v-52q0 -23 0.5 -52t0.5 -58t-10.5 -47.5t-26 -30t-33 -16t-31.5 -4.5q-14 -1 -29.5 -0.5
t-29.5 0.5h-32l-45 128h-439l-44 -128h-29h-34q-20 0 -45 1q-25 0 -41 9.5t-25.5 23t-13.5 29.5t-4 30v167h911zM163 247q-12 0 -21 -8.5t-9 -21.5t9 -21.5t21 -8.5q13 0 22 8.5t9 21.5t-9 21.5t-22 8.5zM316 123q-8 -26 -14 -48q-5 -19 -10.5 -37t-7.5 -25t-3 -15t1 -14.5
t9.5 -10.5t21.5 -4h37h67h81h80h64h36q23 0 34 12t2 38q-5 13 -9.5 30.5t-9.5 34.5q-5 19 -11 39h-368zM336 498v228q0 11 2.5 23t10 21.5t20.5 15.5t34 6h188q31 0 51.5 -14.5t20.5 -52.5v-227h-327z" />
    <glyph glyph-name="uniE600" unicode="&#xe600;" horiz-adv-x="1034" 
d="M819 407q44 0 83 -16.5t68 -46t45.5 -68t16.5 -82.5t-16.5 -83t-45.5 -67.5t-68 -45t-82.5 -16.5t-82 16.5t-67.5 45t-45.5 67.5t-16.5 83q0 29 7 54q2 7 4 13t4 13l14 44l-317 58q46 -28 74.5 -75.5t28.5 -106.5q0 -44 -16.5 -83t-46 -67.5t-68 -45t-82 -16.5t-82 16.5
t-68 45t-46 67.5t-16.5 83t16.5 82.5t46 68t68 46t81.5 16.5q5 0 9 -0.5t8 -0.5q18 57 35.5 117.5t32 112t25.5 89t15 50.5q6 21 21 30t30 6.5t25.5 -13t6.5 -28.5q-1 -6 -5 -21t-11 -37l80 -1l-1 -34l-88 1q-12 -41 -26.5 -92t-31.5 -105l340 -49l33 100h-103q-7 11 -10 22
q-2 9 -1 16.5t12 12.5q11 4 37.5 9.5t57 8t57 1.5t37.5 -9t12 -18.5t-2 -19.5q-4 -11 -12 -23h-20l-44 -125h87h3zM360 195q0 41 -19 75.5t-53 54.5q-18 -62 -31 -105.5t-17 -55.5q-6 -17 -21.5 -23t-30.5 -3t-24.5 13.5t-3.5 27.5q4 11 17.5 58t32.5 111h-2
q-33 0 -60.5 -12t-48 -32.5t-32.5 -48.5t-12 -60t12 -59.5t32.5 -48.5t48 -33.5t60 -12.5t60 12.5t48 33.5t32.5 48.5t12 59.5zM817 41q32 0 59.5 12.5t48.5 33.5t33 48.5t12 59.5t-12 60t-33 48.5t-48.5 32.5t-59.5 12h-6q-47 -2 -83 -27.5t-53 -65.5l-6 -18q-6 -20 -6 -42
q0 -32 12.5 -59.5t33.5 -48.5t48.5 -33.5t59.5 -12.5zM543.5 286q25.5 0 43.5 -18t18 -43.5t-18 -43.5t-43.5 -18t-43 18t-17.5 43.5t17.5 43.5t43 18z" />
    <glyph glyph-name="uniE601" unicode="&#xe601;" 
d="M689 204h-448v25h448v-25zM984 752q-25 -155 -49 -287q-10 -56 -21.5 -113.5t-22.5 -107t-21.5 -89t-19.5 -61.5q-19 -44 -53.5 -74.5t-81 -49.5t-103 -29t-117.5 -12q-31 -1 -69.5 -1t-79.5 5t-80.5 16t-72.5 33q-30 18 -52.5 46t-38.5 56.5t-25 52.5t-11 35
q-8 35 -2 67t36 58q21 16 59 34t88.5 33t111 24t126.5 9q75 -1 133.5 -10.5t101 -14.5t67.5 0.5t32 35.5q14 58 26.5 122t22.5 117q12 63 22 123zM482 324q-58 -1 -109.5 -9t-93 -19.5t-70.5 -25t-42 -25.5q-21 -20 -20 -44t13 -57q5 -14 13 -31.5t24 -35.5t41 -34.5
t64 -30.5q19 -6 51.5 -9.5t72.5 -3.5t84 2.5t84 9t72.5 17t51.5 24.5q32 25 53.5 58t30 65.5t5 58.5t-21.5 36q-16 11 -44.5 20.5t-67 17t-86.5 12.5t-105 4zM836 484l99 -18l7 39l-98 17zM603 132h-362v25h362v-25zM497 64h-256v24h256v-24z" />
    <glyph glyph-name="uniE602" unicode="&#xe602;" horiz-adv-x="1041" 
d="M1040 -58q5 -159 -155 -154h-833v1008h988v-854zM853 -146q88 -5 84 79v794h-782v-873h698zM722 529h159v-66h-159v-407q5 -137 -148 -132h-59v67h55q62 -5 57 65v407h-57q-60 -347 -349 -516v67q107 89 169.5 199.5t86.5 249.5h-265v66h415v142h95v-142z" />
    <glyph glyph-name="uniE603" unicode="&#xe603;" 
d="M1024 599q0 -71 -46 -122q46 -89 46 -193q0 -97 -40 -182t-109.5 -148t-163 -99t-199.5 -36t-199.5 36t-162.5 99t-109.5 148t-40.5 182q0 104 46 193q-46 51 -46 122q0 38 14 71t37.5 58.5t55.5 39.5t68 14q43 0 79 -18.5t59 -49.5q46 17 96.5 26.5t102.5 9.5
t102.5 -9.5t96.5 -26.5q24 31 59.5 49.5t78.5 18.5q37 0 68.5 -14t55 -39.5t37.5 -58.5t14 -71zM206 184q10 0 18.5 10.5t15.5 29t10.5 42.5t3.5 51.5t-3.5 51.5t-10.5 42t-15.5 28.5t-18.5 10.5q-9 0 -18 -10.5t-15.5 -28.5t-10.5 -42t-4 -51.5t4 -51.5t10.5 -42.5
t15.5 -29t18 -10.5zM512 -116q53 0 99.5 13.5t81.5 36t55 52.5t20 65q0 34 -20 64t-55 52.5t-81.5 36t-99.5 13.5t-99.5 -13.5t-81.5 -36t-55 -52.5t-20 -64q0 -35 20 -65t55 -52.5t81.5 -36t99.5 -13.5zM818 184q10 0 19 10.5t15.5 29t10 42.5t3.5 51.5t-3.5 51.5t-10 42
t-15.5 28.5t-19 10.5q-9 0 -17.5 -10.5t-15.5 -28.5t-11 -42t-4 -51.5t4 -51.5t11 -42.5t15.5 -29t17.5 -10.5zM512 152q40 0 68 -10t28 -24.5t-28 -24t-68 -9.5t-68 9.5t-28 24t28 24.5t68 10z" />
    <glyph glyph-name="uniE604" unicode="&#xe604;" 
d="M1024 315q-83 11 -168 54t-158.5 116.5t-116 158.5t-54.5 168q96 -3 185.5 -40t162 -109.5t110 -162t39.5 -185.5zM465 810q11 -95 57.5 -191t129.5 -179t179 -130t191 -58q-8 -87 -44.5 -167.5t-103 -147t-147 -103t-167.5 -44.5q-11 95 -58 191t-130 179t-179 129.5
t-191 57.5q8 87 45 168t103 147t147 103t168 45zM0 285q83 -12 168 -54.5t158.5 -116t116.5 -158.5t54 -168q-96 2 -185.5 39.5t-162 110t-109.5 162t-40 185.5z" />
    <glyph glyph-name="uniE605" unicode="&#xe605;" 
d="M283 625q-22 -24 -49 -51q-23 -23 -56 -54.5t-75 -66.5l-58 53q38 35 66 67.5t46 58.5q20 29 34 56zM724 583v75h249v-74zM944 195v-72q0 -35 -3.5 -64t-14 -50.5t-31.5 -32.5q-16 -7 -38 -11t-46 -5.5t-47 -1t-41 2.5l10 76q10 -4 24.5 -6t27.5 3t21 20.5t6 46.5v269
h-112v-23h-106v-110h96v-72h-95v-77l120 17l10 -71l-403 -80l-7 94l134 19l-2 97h-100v71h100v111h-124v66q-12 -12 -26.5 -25.5t-33.5 -30.5l1 -402l-123 -1l-1 316q-15 -9 -32 -18t-35 -18q0 -1 -6.5 9t-13.5 21l-18 31q61 42 106.5 85t75.5 79q35 41 58 80l76 -94
q-2 -2 -5 -6q-2 -3 -5.5 -7t-8.5 -9l115 1l-1 88l-101 -1v64l101 1v110h147l1 -110h95v-64h-95v-88h104v32l291 1v-85l-45 -1v-175z" />
    <glyph glyph-name="uniE606" unicode="&#xe606;" 
d="M268 289q44 5 62.5 -19t18.5 -56v-276h-112v233q-1 7 -4 13q-4 14 -15 20q-12 4 -27 1v-119q0 -38 -3 -63.5t-20 -46t-41.5 -28.5t-47.5 -10q-27 -4 -56 2v47q15 1 24.5 9t14.5 17q7 12 10 25v600h119v-206h46v243h112v-243h28v-58h-186v-103q14 4 33.5 9t43.5 9z
M781 135h213v-64h-213v-133h-116v133h-293v64h53l-14 53q23 6 49 15q21 8 46.5 20t49.5 31h-40v-8l-115 -1v360l115 1v-28q5 0 10 1q11 2 26 3q19 20 31 40t19 34q8 18 11 32l104 -37q-5 -8 -14 -17q-7 -8 -16.5 -18.5t-23.5 -21.5q45 5 91 8.5t85 5.5q46 2 71 -11t36 -32.5
t13 -39.5t2 -32v-92q0 -20 -2 -45.5t-8.5 -48t-22.5 -38t-45 -15.5h-199q-39 -47 -105 -73q-39 -14 -72.5 -26.5t-53.5 -19.5h212v79h116v-79zM792 305q23 0 35 7t18 16q6 10 8 23v40h-120q-2 -47 -18 -85zM853 504q0 13 -3 24t-15 18t-33.5 10t-58.5 0q-3 -1 -10 -1v-105
h120v54zM624 544q-23 -3 -42.5 -5t-33.5 -5q-18 -2 -32 -4v-80h108v94zM516 306h85q10 18 16.5 38.5t6.5 44.5v2h-108v-85z" />
    <glyph glyph-name="uniE607" unicode="&#xe607;" horiz-adv-x="1000" 
d="M50 -24v-25v-20q0 -38 28 -65.5t66.5 -27.5t66 27t27.5 66v66q-88 -10 -188 -21zM755 -18v-51q0 -25 12.5 -46.5t33.5 -34t46 -12.5q13 0 25.5 3.5t23 9.5t19 14.5t15 18.5t10 22t3.5 25v20v52q-46 -6 -94 -11t-94 -10zM3 91v-16q0 -16 11 -26.5t26 -10.5h11v-2l274 1v1
h136h36h224v-2l221 1v1h11q15 0 26 10.5t11 26.5v15q3 13 3 30.5t-1.5 43.5t-1.5 41q0 6 0.5 28.5t0 33t-3.5 30t-8.5 30.5t-17 24t-28.5 21q-13 35 -28 71l-52 194q0 8 -2 16q1 2 1.5 4.5t0.5 4.5q0 16 -18 31t-51 27t-76.5 21t-98 13.5t-112.5 4.5q-97 0 -178.5 -13
t-129.5 -35.5t-48 -48.5q0 -4 2 -9q-1 -4 -1.5 -8t-0.5 -8l-51 -194l-1 1q-1 -3 -13 -30t-17 -42q-17 -8 -28.5 -20.5t-17 -24.5t-8 -30.5t-3 -30t0 -32.5t0.5 -29q0 -15 -1.5 -42.5t-1.5 -38.5t3 -33zM861 205q0 -32 -22.5 -54t-54 -22t-54 22t-22.5 54t22.5 54t53.5 22
q21 0 38.5 -10t28 -27.5t10.5 -38.5zM223 562q0 17 8 30t21 18q2 1 7 2q1 0 2 1h1h3q1 0 2 1q100 23 230 23q129 0 229 -23l3 -1h3h1q1 -1 2 -1q5 -1 7 -2q13 -5 21 -18t8 -30l21 -137q1 -16 -7.5 -25t-25 -11t-31.5 -2t-38.5 2t-34.5 2h-158h-160q-12 0 -35 -2t-37.5 -2
t-30.5 2t-24.5 11t-8.5 25zM208.5 281q31.5 0 54 -22t22.5 -54t-22.5 -54t-54 -22t-54 22t-22.5 54t22.5 54t54 22z" />
    <glyph glyph-name="uniE608" unicode="&#xe608;" horiz-adv-x="1000" 
d="M852 -86h-672q-17 0 -32 8.5t-23.5 23t-8.5 32.5v671q0 27 19 45.5t45 18.5h672q26 0 45 -18.5t19 -45.5v-671q0 -18 -9 -32.5t-23.5 -23t-31.5 -8.5zM735 547h-438v-467h38v25h362v-24h38v466zM335 512h362v-372h-362v372zM367 198q119 72 180 167v-117q0 -47 -41 -47
q-24 0 -57 4q1 -4 2 -8.5t1.5 -8.5t1.5 -7.5t1.5 -7.5t1.5 -7q30 -1 58 -1q69 0 69 72v153h96v34h-96v72h-37v-72h-187v-34h163q-65 -94 -181 -159q16 -17 25 -33z" />
    <glyph glyph-name="uniE609" unicode="&#xe609;" horiz-adv-x="1000" 
d="M992 101v-17q0 -10 -5 -18.5t-13.5 -13.5t-18.5 -5h-10h-219h-222h-34h-136h-271h-1h-11q-15 0 -25.5 11t-10.5 26v18q-3 22 -3 32.5t1.5 37t1.5 41.5q0 8 -0.5 24.5t-0.5 27t1 26t4.5 26.5t9.5 23t16.5 21.5t24.5 16.5q4 11 9.5 21.5t11.5 21t10 19.5l4 8l47 193
q0 8 1 16q-1 4 -1 8q0 40 103 68.5t249 28.5t249 -28.5t103 -68.5v-4q0 -2 -1 -4q1 -8 1 -16l47 -193l2 -4q3 -9 14.5 -30.5t16.5 -35.5q16 -8 27.5 -20.5t17.5 -24t8.5 -30.5t3 -29t0 -32.5t-0.5 -28.5q0 -15 1.5 -40t1.5 -42t-3 -30zM143 212.5q0 -31.5 22 -53.5t53.5 -22
t53.5 22t22 53.5t-22 53.5t-53.5 22t-53.5 -22t-22 -53.5zM775 567q0 11 -3.5 20.5t-10 16.5t-14.5 10q-2 1 -9 3h-1h-3l-3 1q-19 5 -39 8.5t-42.5 6t-46 4.5t-48.5 3t-51 1q-64 0 -122.5 -6t-105.5 -17l-2 -1h-3h-1q-7 -2 -9 -3q-8 -3 -14.5 -10t-10 -16.5t-3.5 -20.5
l-22 -135v-2q0 -16 8 -24.5t24 -11t30.5 -2t37.5 2.5t34 2h159h156q11 0 29 -1.5t31.5 -2.5t29 -0.5t25 4t16 11.5t6.5 22v2zM788.5 288q-31.5 0 -53.5 -22t-22 -53.5t22 -53.5t54 -22q20 0 37.5 10t27.5 27.5t10 38.5q0 31 -22 53t-53.5 22zM248 7v-66q0 -38 -27.5 -65
t-65.5 -27q-11 0 -21.5 2.5t-19.5 7t-17.5 11t-15 14.5t-11 17t-7 19t-2.5 21v20v25q98 11 187 21zM946 -39v-20q0 -25 -13 -46t-35 -33.5t-47 -12.5t-46 12.5t-33.5 33.5t-12.5 46v50q100 11 187 21v-17v-16v-12v-6z" />
    <glyph glyph-name="uniE60A" unicode="&#xe60a;" horiz-adv-x="1000" 
d="M1000 -12v750h-1000v-750h375v-63h-187v-63h624v63h-187v63h375zM125 112v500h750v-500h-750z" />
    <glyph glyph-name="uniE60B" unicode="&#xe60b;" 
d="M170 127l-22 -21q-2 -2 -5.5 -6t-9 -18.5t-5 -30.5t11.5 -41t34 -51q41 -46 101 -37q14 2 30.5 11t27.5 18q6 5 7.5 13.5t-1.5 17.5t-10 16l-111 122q-11 11 -24.5 13t-23.5 -6zM453 464q4 10 8 13t7 -1.5t5 -14.5l1 -10q1 -11 0.5 -23.5t-2.5 -26t-5 -23.5
q-22 -62 -31 -20q-3 15 -0.5 36t7 37t10.5 33zM632 246q20 6 20 0q-1 -5 -6 -10q-10 -9 -26.5 -18t-31.5 -12q-30 -7 -46 -3q-22 6 87 42q2 0 3 1zM421 28l12 11q29 25 65 35l371 102q10 3 17 9t9 12.5t-1 13.5q-2 3 -4 5t-4 3.5t-5.5 3t-6.5 2.5t-7 2.5t-7 2t-8 2t-8 1.5
l-8 3q-14 5 -20 18t0 21l6 8q3 4 5.5 6.5t5 4.5t3.5 2q8 0 -10 25q-5 7 -14 13t-19.5 10t-19.5 6q-15 2 -23 12.5t-5 22.5t-1 27t-12 24q-5 5 -14.5 9.5t-19.5 5.5t-20 -1q-14 -2 -23.5 7t-8.5 24q1 10 -1 21t-5.5 19.5t-8.5 12.5q-8 7 -22 8t-27 -5q-9 -3 -16 -1t-11 8.5
t-3 16.5q0 15 -4.5 29.5t-11.5 19.5q-16 11 -40 3q-10 -3 -16 0.5t-4 12t-6 20.5t-22 20q-4 2 -8 4.5t-7 4.5q-14 7 -26.5 1.5t-16.5 -21.5l-95 -384q-4 -15 -14.5 -33.5t-22.5 -28.5l-1 -2q-12 -10 -12.5 -25.5t10.5 -27.5l112 -123q11 -11 26.5 -12t27.5 9z" />
    <glyph glyph-name="uniE60C" unicode="&#xe60c;" 
d="M513 -61q-95 -2 -178.5 45t-134 131t-51.5 184q0 98 49 182t132.5 132.5t181.5 48.5q97 -1 179.5 -48t132 -130.5t49.5 -183.5q0 -61 -19 -117t-53 -100t-79 -77t-99 -50t-110 -17zM643 330q-2 0 -4 -1l-3 -1q-1 -1 -2 -1q-17 -8 -34 -13t-34.5 -6.5t-35 -0.5t-35.5 4
q-56 12 -142 61q-9 5 -27.5 15.5t-32.5 18.5t-27 14q-23 11 -40.5 2t-23.5 -33q-9 -39 -11 -61q-10 -105 45 -193q2 -4 6 -8t8.5 -6.5t9.5 -3.5q49 -7 71 -4q68 11 132 30q90 27 202 98q1 1 3 3.5t2.5 4.5t0.5 4q-5 15 -28 77zM634 347q-47 105 -114 182q-8 9 -14.5 16
t-15 15t-16.5 14.5t-17 12.5t-19 11q-11 5 -19 6.5t-20 -2.5q-78 -31 -131 -91q-32 -37 -44 -66q5 -1 13 -2.5t14 -2t12.5 -2.5t12.5 -4q17 -7 60 -32q27 -16 42.5 -24.5t39.5 -20.5t46 -19t45 -11q71 -11 125 20zM679 229q-11 -6 -12 -7q-78 -50 -169 -85
q-42 -16 -78.5 -26.5t-72.5 -13.5h-84l1 -2l1 -3q1 -2 5 -5q101 -110 250 -108q19 0 28 13t31 47q19 29 32 47t33 41.5t41 39.5q2 2 4 5.5t2 5.5q-2 8 -12 51zM449 617q35 -24 64.5 -53.5t54.5 -66.5t42 -66.5t40 -74.5q58 40 53 110q-4 51 -38 109q-5 10 -14 14
q-61 32 -142 33q-3 0 -60 -5zM688 257q50 41 54 44l8 8q5 5 8.5 8t8.5 7.5t9 8.5t8 8.5t8 8.5l6 10q4 4 6.5 9t4.5 11q4 7 4.5 16t-2 18.5t-5 16.5t-9 17.5t-10 15.5t-11 16t-9.5 14q-26 38 -76 72q15 -35 22 -63t6.5 -58t-16 -56.5t-46.5 -49.5q13 -34 31 -82zM824 369
q-40 -62 -125 -125q-5 -4 -3.5 -11.5t11.5 -46.5q0 -1 18 -6t38 -15.5t25 -23.5q29 19 41 109q3 24 3.5 44.5t0 33.5t-2.5 22.5t-3.5 13.5t-2.5 5zM698 149q-1 0 -25.5 -28t-57 -68.5t-49.5 -67.5h7q46 8 99 36q26 13 26 36v92zM714 55q2 0 5 -2q36 38 39 41q15 16 15 26.5
t-14 27.5q-4 5 -7 8q-19 16 -38 7v-108z" />
    <glyph glyph-name="uniE60D" unicode="&#xe60d;" 
d="M818 319q0 59 -22.5 113.5t-64.5 96.5t-96 64.5t-114 22.5q-29 0 -58 -6t-55.5 -17t-51 -27t-44.5 -37q-73 -72 -85.5 -172.5t39.5 -187.5l-106 -105q-2 -2 -4 -5t-3 -5.5t-1.5 -6t-0.5 -6.5q0 -13 9 -23l60 -60q5 -5 11 -7t12 -2q14 0 23 9l106 105q69 -40 150 -40
q122 0 209 86.5t87 209.5zM344 128l-101 -102l-14 15l101 101q8 9 9 20.5t-6 21.5q-33 45 -41 101l195 -195q-28 4 -53 14.5t-48 26.5q-10 7 -21.5 6t-20.5 -9zM794.5 96q-30.5 0 -52 -21.5t-21.5 -52t21.5 -52t52 -21.5t52.5 21.5t22 52t-22 52t-52.5 21.5z" />
    <glyph glyph-name="uniE60E" unicode="&#xe60e;" 
d="M617 216q-15 38 -30 75t-30 73q0 5 -1.5 13.5t-3 36t3.5 51.5l2 8q1 4 1.5 8t1.5 9q2 14 6 52.5t-2 52.5q-17 35 -55 38q-6 0 -15 -2t-25.5 -15.5t-20.5 -35.5q-2 -29 6 -62q3 -12 7 -33q2 -10 3 -27t1 -41q0 -48 -14 -80q-44 -91 -47 -113q-2 -9 -4 -25q0 -8 -1 -23
t-3 -38q-2 -44 8 -70q34 -113 58 -149q50 -13 94 0q52 85 62 160l1 1q0 2 0.5 4.5t1 6.5t0.5 10q3 21 2 55.5t-7 59.5zM779 270q-15 38 -30 74.5t-30 73.5q-1 4 -2 13t-2.5 36.5t1.5 50.5q3 10 5.5 25t7 53.5t-2.5 52.5q-18 35 -56 38q-1 -1 -2.5 -1t-3 -0.5t-3.5 -1
t-4 -0.5q-9 -2 -25.5 -15.5t-20.5 -35.5q-3 -28 4 -61q4 -13 7.5 -33.5t4.5 -68.5t-13 -79q-3 -5 -6 -11l-4 -10l-6 -12l54 -134v-1l1 -2q14 -58 2 -143q-7 -46 -32 -102q0 -2 0.5 -3t1.5 -1q50 -14 93 0q52 85 63 161q12 80 -2 137zM419 344q1 4 4 12q-4 11 -13 32.5
t-12 29.5q-1 4 -2 13q0 3 -0.5 8t-1 12t-0.5 15q-2 27 3 52q0 4 0.5 7.5t1.5 8t2 9.5q2 15 6.5 53.5t-2.5 50.5q-18 37 -54 40q-2 -1 -5 -1l-4 -2h-6q-9 -2 -25.5 -15.5t-20.5 -35.5q-3 -30 4 -63q5 -11 8 -31.5t4 -68.5t-13 -81q-44 -91 -47 -111q-4 -11 -5.5 -26t-3 -60
t6.5 -70q35 -113 60 -151q50 -13 93 1q1 2 3 5q-19 49 -30 88q-17 69 0 162q5 24 49 117z" />
    <glyph glyph-name="uniE60F" unicode="&#xe60f;" 
d="M511.5 683q-103.5 0 -192 -51.5t-139.5 -139.5t-51 -192q0 -62 19.5 -120t54.5 -105t82 -82.5t105.5 -55t120.5 -19.5q104 0 192 51.5t139.5 139.5t51.5 191.5t-51.5 191.5t-139.5 139.5t-191.5 51.5zM266 44q-52 49 -81 115.5t-29 140.5v4v3l99 -34l69 -179zM347 568
l180 65l128 -120l-105 -152l-197 38zM749 36q-11 -10 -23 -19l-148 -63l-97 101l126 141l168 -20zM796 513q71 -95 71 -213v-4v-2l-20 5l-61 171z" />
    <glyph glyph-name="uniE610" unicode="&#xe610;" 
d="M926 -31q-27 0 -51 12q-27 12 -53.5 12t-52.5 -12q-23 -12 -50 -12t-50 12q-27 12 -54 12t-52 -12q-24 -12 -51 -12t-50 12q-25 12 -52 12t-54 -12q-23 -12 -50 -12t-51 12q-25 12 -52 12t-52 -12q-4 -2 -8.5 -3.5t-8.5 -3t-8.5 -2.5t-9 -1.5t-8.5 -1t-9 -0.5v76
q27 0 52 11.5t52 11.5t52.5 -11.5t51.5 -11.5t49 11q25 12 53 12t53 -11.5t51 -11.5t50 11q25 12 53 12q26 0 53 -12q23 -11 49 -11t51.5 11.5t53 11.5t52.5 -12q24 -11 51 -11v-76zM806 184q41 0 69.5 28.5t28.5 69t-28.5 69t-70 28.5t-70 -28.5t-28.5 -68.5q0 -42 28 -70
t71 -28zM233 129q4 -1 7 -2l8 -2q3 -1 7 -3q26 -12 52 -12t49 12q27 12 53 12t53 -12q25 -12 51 -12t50 12q27 12 53 12t53 -12q23 -12 50 -12q18 0 37 7l-163 292l190 35q22 4 35 19t13 37t-16.5 38.5t-38.5 16.5h-4q-2 0 -3 -1l-294 -52q-18 -5 -30.5 -26t-2.5 -47l1 -2
l2 -3l77 -137z" />
    <glyph glyph-name="uniE611" unicode="&#xe611;" 
d="M665 624q0 24 -9.5 46.5t-27.5 40.5q-9 9 -19.5 16t-21.5 11.5t-22.5 7t-23.5 2.5q6 -44 43 -81t81 -43zM311 607h54l-20 27h-54zM564 465l-20 26h-57l20 -26h57zM303 465l-20 26h-55l20 -26h55zM419 465h55l-21 26h-54zM386 465l-21 26h-49l20 -26h50zM366 535h54
l-20 27h-55zM332 535l-20 27h-49l20 -27h49zM523 328h55l-21 27h-54zM420 355l20 -27h50l-21 27h-49zM298 355h-56l20 -27h57zM332 355l20 -27h55l-21 27h-54zM353 398l-20 27h-55l21 -27h54zM470 398h54l-20 27h-55zM436 398l-20 27h-50l21 -27h49zM245 425h-57l20 -27h57z
M297 283l20 -27h57l-20 27h-57zM441 283h-54l20 -27h55zM316 491l-33 44h-34l34 -44h33zM420 355l-33 43h-34l33 -43h34zM366 425l-30 40h-33l30 -40h33zM407 328l34 -45h34l-35 45h-33zM299 398h-34l33 -43h34zM319 328l35 -45h33l-35 45h-33zM278 425l-30 40h-33l30 -40
h33zM557 355h34l-33 43h-34zM474 465l30 -40h33l-30 40h-33zM399 491l-33 44h-34l33 -44h34zM469 355h34l-33 43h-34zM490 328l34 -45h34l-35 45h-33zM416 425h33l-30 40h-33zM345 562l-34 45h-34l35 -45h33zM877 -61l-157 177l-1 2l-37 41q-5 6 -13 10q-41 65 -43 157
q10 34 9 71q-2 58 -28 116q-1 0 -3 -1l-1 -1q4 3 8.5 5.5t8.5 6t8 7.5q32 32 37 78q-51 6 -92.5 47.5t-47.5 92.5q-22 -2 -42 -11.5t-36 -25.5q-6 -5 -10.5 -11.5t-8.5 -13.5q-24 9 -48.5 14t-48.5 5q-37 0 -70 -11.5t-59 -33.5q-48 -40 -64 -103t2 -132.5t68 -127.5
q41 -50 96 -79.5t112 -34.5v-1q3 0 11 -1t29 -6t42 -13.5t49 -25.5t52 -40q3 -4 5 -6l195 -220q14 -16 35.5 -17.5t37.5 13t17.5 36t-12.5 37.5zM585 502l-10 -4q2 1 4.5 2t5.5 2zM433 222l-26 34h-33l23 -30q-64 11 -119 57h19l-35 45h-29q-9 13 -19 27h28l-34 43h-17
q-7 17 -11.5 33.5t-6.5 33.5h42l-21 26h-24q0 14 2 30l22 -30h34l-33 44h-21q2 10 5 21l16 -21h54l-20 27h-48q8 21 19 38l29 -38h34l-35 45h-22q3 4 6 7t6 7l10 -14h49l-20 27h-24q18 14 40.5 22t47.5 9l24 -31h33l-23 30q29 -4 58 -15q-3 -10 -3 -17q51 -6 92 -47t47 -92
q5 0 9 1t10 2q-11 -2 -19 -3l-20 17q-4 17 -14 33.5t-24 30.5q-18 18 -39.5 29t-42.5 13q1 -13 5 -30l-15 21h-34l35 -45h24v0v-1q4 -7 8.5 -13.5t9.5 -12.5h1q0 -1 1 -3l3 -2q1 -2 3 -4l4 -2l3.5 -3.5t4.5 -3.5q-9 7 -15 13l-3 3q-1 1 -1 2h-23l33 -44h34l-15 20
q9 -6 19.5 -10t21 -6t20.5 -3q-1 8 -4 18l15 -19h29q14 -33 19 -66h-55l21 -27h37v-2v-14q0 -7 -1 -14t-2 -13h-1l1 -2q-7 -40 -30 -70h-5l3 -3q-9 -11 -19 -20l-17 23h-49l20 -27h41q-42 -34 -102 -34h-1zM419 668zM608 164q-7 -7 -11.5 -16t-5.5 -18q-49 39 -107 58
q11 2 21.5 6t20.5 9t19.5 11t18.5 13q28 24 45 56q8 -59 33 -106l-12 -2q-6 -1 -11.5 -4t-10.5 -7z" />
    <glyph glyph-name="uniE612" unicode="&#xe612;" 
d="M717 578q57 -42 92 -101t45 -125.5t-6 -133.5t-57.5 -123.5t-100.5 -91.5t-126 -45t-133.5 6t-123 57.5t-91.5 100.5t-45 126q-6 45 -2 88.5t20.5 87t44.5 81.5q42 56 101 91t125.5 45t133.5 -6t123 -57zM219 347q16 8 32.5 12.5t42 3t49.5 -13.5q8 13 16 25.5t17 25.5
l-103 75q-42 -57 -54 -128zM370 332q9 -7 17.5 -14t16.5 -15v-1q11 -11 22 -24t21 -28q21 -29 53 -95q13 -27 20 -41.5t19.5 -35.5t26 -36.5t29.5 -26.5q30 8 58 23t53 36.5t45 48.5l-349 258q-17 -25 -32 -49zM555 6q-18 17 -34.5 42t-25.5 42.5t-25 49.5q-31 65 -49 92
q-20 27 -40 48l-4 4q-2 2 -4.5 4t-4.5 4t-4.5 3.5t-4.5 3.5t-5 4q-19 -37 -32.5 -72.5t-18.5 -66.5q-9 -44 -1 -74q5 -5 10.5 -10t11.5 -10t12 -9q99 -72 219 -55zM327 321q-16 8 -33 9.5t-29 -1t-24 -8t-16 -8t-7 -5.5l-2 3q-1 -28 3 -56q10 -66 47 -121q1 6 1.5 12t1.5 12
l2 12q12 69 56 151zM431 585q-8 -52 25 -88q65 67 126 91q-57 14 -114 5q-19 -3 -37 -8zM481 476q14 -10 31 -19q13 -7 27.5 -12.5t29.5 -10.5q31 -11 102 -21q86 -13 125 -28q-28 95 -108 154q-12 8 -24.5 16t-26.5 14q-16 -1 -35 -8q-14 -5 -29.5 -13t-31 -19t-30.5 -24
t-30 -29zM805 346q-40 20 -139 35q-24 3 -37 5.5t-33.5 7t-36.5 9.5q-34 11 -62 26q-10 5 -20 11t-19 13q-19 -22 -37 -46l348 -256q52 90 37 193zM434 474q-40 40 -37 99q-14 -6 -28 -13.5t-27 -16.5t-25 -20t-23 -23l101 -74q9 13 19 25t20 23z" />
    <glyph glyph-name="uniE613" unicode="&#xe613;" 
d="M822 432q-2 -2 -6 -4t-8.5 -3t-9 -1.5t-9 -0.5t-8 -0.5t-5.5 -0.5h-2q-12 2 -29 4t-48.5 9t-37.5 13t-12.5 36.5t-9 55t-2.5 27.5q0 2 -0.5 8.5t2.5 17.5t9.5 17.5t36.5 37t57 57.5l28 27l4 9q1 7 -10 7q-193 0 -258 -65l-13 -13q-62 -62 -61.5 -147t61.5 -146l99 -98
q61 -62 145.5 -62.5t146.5 61.5l13 13q63 62 63 256q0 9 -3.5 11t-7.5 -1l-4 -3q-109 -110 -121 -122zM616 368l-35 36q-15 14 -34.5 19t-38.5 0t-34 -19l-372 -337q-13 -13 -22.5 -31.5t-14.5 -42.5t4 -52t33 -52t52 -32.5t52 -3.5t42.5 14.5t30.5 21.5q242 265 263 288
q4 5 7 10t4 9.5t1.5 9t0 8t-1 6t-1.5 3.5v1q-5 7 -13 18t-25.5 36.5t-27.5 40.5q-12 19 -3 18l14 -7q102 -65 116 -72l3 4q7 7 12 16t7.5 18t2.5 19t-2.5 19t-7.5 18t-12 16zM200.5 -73q-25.5 0 -44 18.5t-18.5 43.5q0 10 3 19.5t9 17.5t13.5 13.5t17 8.5t19.5 3
q26 0 44 -18t18 -43.5t-18 -44t-43.5 -18.5z" />
    <glyph glyph-name="uniE614" unicode="&#xe614;" 
d="M512 749q-73 0 -141.5 -23t-123.5 -64.5t-96.5 -96.5t-64.5 -123.5t-23 -141.5q0 -91 35.5 -174t96 -143t143.5 -95.5t174 -35.5q73 0 141.5 22.5t123.5 64t96.5 96.5t64 123.5t22.5 141.5q0 171 -113 299q-110 122 -272 145q-32 5 -63 5zM512 -108q-111 0 -205 55
t-148.5 148.5t-54.5 204.5v9q0 4 0.5 8.5t0.5 8.5t0.5 8.5t0.5 8.5l2 8q0 4 0.5 8.5t1.5 8.5t1 8q48 -10 107 6t111 47.5t94.5 73t60.5 80.5q10 21 9 -9q-1 -61 -21 -123q-7 -20 -14 -27q14 -4 36 2.5t47 20.5t50.5 31.5t47 36t34.5 34.5q17 18 41 -26q24 -43 19 -64
q-1 -3 -2 -5q-4 -5 16 -4q56 4 105 26q15 7 21 13q47 -89 47 -189q0 -66 -20.5 -128.5t-58.5 -112.5t-88 -87.5t-112.5 -58.5t-128.5 -21zM333 342q-36 0 -61.5 -25t-25.5 -61q0 -15 4.5 -28t12.5 -23.5t18.5 -18.5t24 -12.5t27.5 -4.5q12 0 23 3t20.5 8.5t18 13.5t14 17.5
t8.5 21t3 23.5q0 48 -42 74q-21 12 -45 12zM333 206q-10 0 -19 4t-15.5 10.5t-10.5 15.5t-4 20q0 20 14.5 34.5t35 14.5t34.5 -14.5t14 -35t-14 -35t-35 -14.5zM682 352q-23 0 -43 -11.5t-31.5 -31.5t-11.5 -44q0 -17 6.5 -33.5t18.5 -28t28 -18.5t33 -7q36 0 61.5 25.5
t25.5 61.5t-25 61.5t-62 25.5zM682 216q-13 0 -24.5 6.5t-18 18t-6.5 24.5q0 8 2.5 15.5t7 13.5t10.5 11t13.5 7.5t15.5 2.5q21 0 35.5 -14.5t14.5 -35.5q0 -6 -1.5 -11.5t-4 -10t-5.5 -9t-7.5 -8t-9.5 -6t-10.5 -3.5t-11.5 -1zM601 108h-190l5 -36q19 -80 94 -84h2
q51 3 70.5 34.5t18.5 85.5zM512 29q-16 0 -28 5.5t-18 12t-9.5 14.5t-4 12t-0.5 5q93 1 113 1q-4 -28 -18 -39.5t-35 -10.5zM512 749q-73 0 -141.5 -23t-123.5 -64.5t-96.5 -96.5t-64.5 -123.5t-23 -141.5q0 -91 35.5 -174t96 -143t143.5 -95.5t174 -35.5q73 0 141.5 22.5
t123.5 64t96.5 96.5t64 123.5t22.5 141.5q0 171 -113 299q-110 122 -272 145q-32 5 -63 5zM512 -108q-111 0 -205 55t-148.5 148.5t-54.5 204.5v9q0 4 0.5 8.5t0.5 8.5t0.5 8.5t0.5 8.5l2 8q0 4 0.5 8.5t1.5 8.5t1 8q48 -10 107 6t111 47.5t94.5 73t60.5 80.5q10 21 9 -9
q-1 -61 -21 -123q-7 -20 -14 -27q14 -4 36 2.5t47 20.5t50.5 31.5t47 36t34.5 34.5q17 18 41 -26q24 -43 19 -64q-1 -3 -2 -5q-4 -5 16 -4q56 4 105 26q15 7 21 13q47 -89 47 -189q0 -66 -20.5 -128.5t-58.5 -112.5t-88 -87.5t-112.5 -58.5t-128.5 -21zM333 342
q-36 0 -61.5 -25t-25.5 -61q0 -15 4.5 -28t12.5 -23.5t18.5 -18.5t24 -12.5t27.5 -4.5q12 0 23 3t20.5 8.5t18 13.5t14 17.5t8.5 21t3 23.5q0 48 -42 74q-21 12 -45 12zM333 206q-10 0 -19 4t-15.5 10.5t-10.5 15.5t-4 20q0 20 14.5 34.5t35 14.5t34.5 -14.5t14 -35t-14 -35
t-35 -14.5zM682 352q-23 0 -43 -11.5t-31.5 -31.5t-11.5 -44q0 -17 6.5 -33.5t18.5 -28t28 -18.5t33 -7q36 0 61.5 25.5t25.5 61.5t-25 61.5t-62 25.5zM682 216q-13 0 -24.5 6.5t-18 18t-6.5 24.5q0 8 2.5 15.5t7 13.5t10.5 11t13.5 7.5t15.5 2.5q21 0 35.5 -14.5
t14.5 -35.5q0 -6 -1.5 -11.5t-4 -10t-5.5 -9t-7.5 -8t-9.5 -6t-10.5 -3.5t-11.5 -1zM601 108h-190l5 -36q19 -80 94 -84h2q51 3 70.5 34.5t18.5 85.5zM512 29q-16 0 -28 5.5t-18 12t-9.5 14.5t-4 12t-0.5 5q93 1 113 1q-4 -28 -18 -39.5t-35 -10.5z" />
    <glyph glyph-name="uniE615" unicode="&#xe615;" 
d="M974 73l-2 1q0 1 -1 3l-230 288q-1 0 -2 2t-2.5 4t-4 5t-6 5.5t-7.5 4.5t-9.5 3.5t-11.5 1.5h-367q-3 0 -6 -0.5t-6 -1.5t-5 -2t-4.5 -2.5t-4.5 -3t-4.5 -3.5t-4 -3t-3.5 -3.5t-4 -3.5v-1q-2 -1 -3 -2l-230 -282q-2 -1 -3 -3q-14 -18 -16 -42t9 -44q9 -21 30.5 -36
t42.5 -15h3h2h3q2 0 5 1l141 49v-73q0 -9 6.5 -15.5t16.5 -6.5h447q9 0 15.5 6.5t6.5 15.5v71l143 -47q1 -1 5.5 -1.5t6.5 -0.5q9 0 17 2.5t14.5 7t12 10.5t10.5 14q16 22 16 49.5t-16 47.5zM707 172l-33 5q-1 0 -2 0.5t-2 0.5q-17 2 -33.5 -5.5t-27.5 -22t-15 -33.5
q-6 -29 6.5 -54.5t36.5 -33.5q1 -1 4 -2l66 -18l-185 -50l-189 51l65 31q3 0 5 1q24 9 36.5 34t6.5 54q-6 28 -27.5 42t-48.5 11q-2 0 -4 -1l-33 -10v148l188 -66l186 66v-148zM527 416q62 0 106 44t44 106t-44 106t-106 44t-106 -44t-44 -106t44 -106t106 -44z" />
    <glyph glyph-name="uniE616" unicode="&#xe616;" 
d="M513 0q-122 0 -208 86.5t-86 208.5t86 208t208 86q48 0 93 -14.5t81 -42t63.5 -63.5t42.5 -81t15 -93q0 -124 -89 -211q-87 -83 -206 -84zM513 533q-98 0 -168 -70t-70 -168.5t70 -168t168 -69.5t168 70t70 168q0 105 -78 176q-68 62 -160 62zM151 424q5 7 8 16t3 15
t-0.5 18.5t-0.5 16.5v2v4v3q0 21 -0.5 50.5t-1 52.5t-0.5 27h-1h-5l-6 -128q0 -2 -1 -3.5t-4 -3.5t-6 6q-8 15 -2 129h-4l-9 -126l-4 -8q-3 -3 -6 3q-1 1 -2 3q-8 20 -2 128h-4l-9 -124l-5 -9q-3 -2 -5 7q-3 9 -3 125h-5q-8 -65 -9 -129v-3v-2q0 -2 1 -4q0 -39 4 -52
q2 -6 6.5 -10.5t13.5 -10.5t10 -7l3 -6q2 -10 1 -35q-1 -39 -15 -355v-1q0 -1 -0.5 -4.5t-0.5 -6.5t0.5 -7t1.5 -8t3 -7.5t5 -6.5t8.5 -4.5t11.5 -1.5q18 -1 26 9t6 19t-1 10l-18 388l2 11q0 3 2 6t4 5t5 4.5t5 4.5zM890 624q0 1 0.5 2t3 3.5t5 3t7.5 -1.5t10 -8
q8 -8 16.5 -33t15 -58.5t9 -70.5t-1.5 -70q-4 -3 -9 -7.5t-14 -15.5t-9 -18q-1 -17 7 -137l14 -209v-6q0 -3 -7 -10t-22 -10q-9 -2 -16 1t-9.5 6.5t-4 10t-2 8t-0.5 4.5z" />
    <glyph glyph-name="uniE617" unicode="&#xe617;" 
d="M226 12q10 -17 63 -101q5 -9 9 -15t7.5 -12t5.5 -9t3 -4q10 -17 30 -18h1q9 0 17.5 4.5t17.5 12.5q28 33 27 56v2v51v74l104 100q68 -187 93 -251q4 -10 11 -16.5t11.5 -8t9.5 -2.5q22 -2 40 17q40 42 57 63q19 22 18 50q0 3 -8 136q-10 166 -14 230l180 180
q50 50 50 113q0 41 -20 61q-4 4 -9 7.5t-11 6t-13 4t-14.5 2.5t-14.5 1q-25 0 -54.5 -10.5t-58.5 -39.5l-180 -180q-49 3 -195 13q-83 5 -127 8t-46 3h-5q-12 0 -23 -4.5t-22 -12.5q-9 -8 -25.5 -23t-25 -22.5t-12.5 -12.5q-19 -18 -16 -40q2 -23 26 -32q48 -19 253 -95
l-100 -103h-4h-6h-5h-64q-41 1 -47 1v-6l-2 6h-1q-6 0 -12 -1.5t-17.5 -8t-24.5 -18.5l-3 -2q-8 -8 -11 -16t-4 -15q0 -6 1.5 -11.5t5 -10.5t7.5 -8q19 -15 147 -93zM252 53q-73 45 -132 83q12 9 18 11h9h36l4 -1h83h4l6 2q2 0 4 0.5t4 2t4 2.5t4 2.5t4 3.5l108 112
q16 16 11 39q-1 5 -3.5 10t-6 9t-8 7t-9.5 5q-33 12 -86.5 32t-98 36.5t-66.5 24.5q5 5 9.5 9t11.5 10.5t13 11.5t12 10.5t10 9.5q3 2 5.5 3.5t4 2t2.5 0.5h2h3q6 0 172 -11q148 -10 198 -13q19 -1 33 13l181 181q36 36 79 36q3 0 6.5 -0.5t6.5 -0.5l4 -2h4l4 -2
q1 0 1.5 -0.5t1.5 -0.5q4 -5 5.5 -20t-7 -39.5t-29.5 -45.5l-182 -182q-13 -14 -12 -33q1 -18 2.5 -43.5t3.5 -59t3.5 -57.5t3.5 -62l1 -11q0 -5 1 -15q7 -115 7 -120v-5q0 -2 -1.5 -5t-4.5 -7q-14 -17 -51 -56q-54 147 -91 249q-8 22 -31 27q-10 2 -20.5 -1t-18.5 -10
l-113 -108q-13 -13 -13 -30v-79v-49v-4q0 -4 -10 -16l-18 28q-55 88 -63 102q-6 9 -15 14z" />
    <glyph glyph-name="uniE618" unicode="&#xe618;" 
d="M331 240h94v-93h-94v93zM937 368l-393 333q-14 12 -31.5 12t-31.5 -12l-393 -333q-16 -12 -17.5 -32t11.5 -35.5t33 -17t35 11.5l6 5v-383q0 -9 4.5 -16t11 -11t15.5 -4h651q13 0 21.5 9t8.5 22v383l7 -5q13 -12 31 -12q22 0 37 17q6 8 9 17.5t2 18.5t-5.5 17.5
t-11.5 14.5zM808 -53h-114v293h-166v-293h-311v404l295 250l296 -250v-404z" />
    <glyph glyph-name="uniE619" unicode="&#xe619;" 
d="M932 374q0 -44 -31 -75t-75 -31t-75.5 31t-31.5 75q0 -44 -31 -75t-75 -31q-29 0 -53.5 14t-39 39t-14.5 53q0 -44 -31 -75t-75 -31t-75.5 31t-31.5 75q0 -17 -5.5 -33t-15 -29.5t-23 -23t-29.5 -15t-34 -5.5q-44 0 -75 31t-31 75l75 200h702zM799 614h-586q-16 0 -28 12
t-12 28q0 8 3.5 15.5t8.5 13t12.5 8.5t15.5 3h586q28 0 38 -26q2 -6 2 -14q0 -16 -11.5 -28t-28.5 -12zM200 229q5 0 11 1h1l2 1q1 0 2.5 0.5t2.5 0.5q5 1 10.5 2.5t10.5 3.5v-223h533v223q9 -4 21 -6l2 -1h3q1 -1 2 -1q7 -1 12 -1q6 -1 13 -1q13 0 27 2v-268
q0 -17 -12 -28.5t-28 -11.5h-613q-8 0 -15.5 3t-13 8.5t-8.5 12.5t-3 16v268q6 -1 13 -1.5t13 -0.5h8q3 0 6 1zM337 235v-206h64v129l85 -129h55l83 128v-128h63v206h-72q-31 -46 -52 -77t-52 -77l-102 154h-72z" />
    <glyph glyph-name="uniE61A" unicode="&#xe61a;" 
d="M812 378h-130q-4 -7 -10 -19.5t-19.5 -46t-20.5 -60.5q46 -72 46 -157q0 -83 -44 -154q25 -78 46 -94h132q35 36 58 109q58 184 -58 422zM386.5 343q-102.5 0 -175.5 -72.5t-73 -175.5t73 -175.5t175.5 -72.5t175 72.5t72.5 175.5t-72.5 175.5t-175 72.5zM278 158
q-7 -5 -15 -5.5t-15.5 3t-12.5 10.5q-4 5 -5 11t0 12t4.5 11t8.5 9q10 7 22.5 5t20 -12.5t5.5 -23t-13 -20.5zM344.5 279.5q10.5 7.5 23 5t19.5 -13t5 -23t-13 -19.5q-7 -5 -15 -5.5t-15.5 3t-12.5 9.5q-7 11 -4.5 23.5t13 20zM386 114q-11 -7 -23.5 -5t-20 12.5t-5 23
t12.5 20.5q4 2 7.5 3.5t7.5 1.5t8 -0.5t7.5 -2t7 -4.5t6 -6.5t3.5 -7t1.5 -7.5t0 -8t-2.5 -7.5t-4.5 -7t-5.5 -5.5zM662 655v-1q0 -1 1 -3l22 -88h127l23 92v7q0 35 -25.5 60.5t-60.5 25.5q-18 0 -34 -7t-27.5 -18.5t-18.5 -27.5t-7 -33v-7v0zM797 416l6 105h-113l7 -105
h100z" />
    <glyph glyph-name="uniE61B" unicode="&#xe61b;" 
d="M403 233q0 78 45 141h-156q-3 0 -6 -1t-5 -2.5t-3.5 -3.5t-2.5 -5t-1 -6v-116q0 -3 1.5 -6.5t4 -6t5.5 -4t7 -1.5h112q-1 8 -1 11zM407 190h-115q-5 0 -9 -2t-6.5 -6t-2.5 -9v-116q0 -8 5 -13t13 -5h208q-76 58 -93 151zM648 478q5 0 11 -0.5t11.5 -1t10.5 -1.5v61
q0 5 -2.5 9t-6.5 6.5t-9 2.5h-371q-3 0 -5 -0.5t-4 -2t-3.5 -3t-3 -3.5t-2 -4t-0.5 -5v-116q0 -7 5 -12.5t13 -5.5h179q73 76 177 76zM638 447q-33 0 -64 -10.5t-56 -29t-44 -44t-29.5 -56.5t-10.5 -64q0 -55 27.5 -102t74.5 -74.5t102 -27.5q85 0 144.5 60t59.5 144
t-59.5 144t-144.5 60zM709 160q-7 -13 -19 -21q-13 -8 -29 -12h-1q1 -2 1 -3v-14q0 -8 -5 -13.5t-12 -5.5h-4q-5 0 -9 2.5t-6 7t-2 9.5v14q-18 0 -33 3q-17 4 -29 10v51q7 -6 14.5 -10.5t15.5 -7.5l8 -2l8 -2q4 -1 8 -1.5t9 -0.5q9 0 17 2q2 1 4 1.5t4 1.5l4 2q2 2 4 3.5
t3 3.5q2 5 2 10q0 3 -1 6l-2 6q-5 5 -11 9q-2 1 -3.5 2.5t-3.5 2.5l-4 2q-2 1 -5 2q-16 7 -19 8q-27 12 -40 28t-13 39q0 8 1.5 16t5.5 14q7 13 19 21q14 9 29 13q4 1 8 1v3v14q0 3 0.5 5.5t1.5 4.5t2.5 3.5t3.5 3t4 2t5 0.5h4q3 0 6 -1.5t5.5 -4t4 -6t1.5 -7.5v-14v-1
q12 0 20 -2q7 -1 13 -2.5t13 -3.5v-48l-6 4l-7 3q-7 3 -14 5q-3 1 -6.5 2t-7.5 1q-4 1 -7 1h-7q-8 0 -16 -2l-6 -2l-6 -2l-2 -2t-3.5 -3t-1.5 -3q-3 -4 -3 -9.5t3 -9.5q3 -5 8 -9l14 -8q4 -2 8.5 -4t9.5 -4q14 -6 25 -12q3 -2 6.5 -4.5t6.5 -5t5 -5.5q8 -8 13 -19
q4 -10 4 -24q0 -10 -2 -18t-6 -14zM511 -197q-102 0 -194.5 40t-160 107t-107 160t-39.5 195t39.5 194.5t107 160t160 107t194.5 39.5q68 0 133 -18t120 -50t101.5 -78.5t79 -101.5t50.5 -120t18 -133q0 -102 -40 -195t-107 -160t-160 -107t-195 -40zM511 778
q-96 0 -183.5 -37.5t-151 -101t-101 -151t-37.5 -183.5t37.5 -183.5t101 -151t151 -101t183.5 -37.5t184 37.5t151 101t101 151t38 183.5t-37.5 183.5t-101 151t-151.5 101t-184 37.5z" />
    <glyph glyph-name="uniE61C" unicode="&#xe61c;" 
d="M512 748q-185 0 -316.5 -131.5t-131.5 -316.5t131.5 -316.5t316.5 -131.5t316.5 131.5t131.5 316.5t-131.5 316.5t-316.5 131.5zM512 -127q-116 0 -214.5 57t-155.5 155.5t-57 214.5t57 214.5t155.5 155.5t214.5 57t214.5 -57t155.5 -155.5t57 -214.5t-57 -214.5
t-155.5 -155.5t-214.5 -57zM609 378q-1 2 -0.5 5.5t0.5 4.5l-3 8l-5 2q-9 1 -10 3q-1 1 -5.5 7t-5.5 8l-5 8q-3 5 -4 9.5t-2 8.5q9 10 12.5 30.5t-2 38.5t-20.5 21q3 6 5.5 14t4 19t1.5 20.5t-4 19t-12 14.5q-13 7 -27.5 6.5t-24.5 -13t-7 -32.5q-1 -3 -10 -10.5t-8 -17.5
q5 0 8.5 3t7 6.5t7.5 3.5q9 -9 3 -33q-1 -2 -4.5 -4.5t-8.5 -5t-6 -3.5q-10 -8 -18 -15q-4 -4 -8.5 -8t-8 -8.5t-7.5 -9t-8 -9.5q-23 -31 -33 -56q-6 -15 0 -22.5t20.5 -14.5t19.5 -13q-10 -17 -10.5 -37t5 -35t12.5 -36.5t9 -37.5q-8 6 -17.5 8.5t-23 1.5t-21.5 -2t-24 -4
t-19 -4q-17 42 -43 9q-23 -29 -23 -62q0 -11 4 -16q9 2 18 12.5t18.5 16t22.5 2.5q13 9 30.5 9t32 -5t34 -10t34.5 -5q4 0 6.5 2.5t4 6t4.5 4.5q7 -23 4.5 -43.5t-1 -47.5t11.5 -45q-12 -27 -12 -46q2 -1 9.5 -5t12.5 -6t13 -5.5t13.5 -5t13 -2.5t13.5 0t12 4.5t10 9.5
q-5 5 -14 11t-15 10.5t-11.5 13t-5.5 19.5h-4q-4 1 -5.5 1.5t-3 2.5t-2.5 6q-4 24 4 65.5t9 53.5q1 43 -6 63q-7 22 -6 32t10 28q3 8 4.5 16t1.5 13.5t-0.5 15.5t-0.5 16q-1 8 0 14.5t3 14.5t6 14q2 2 7.5 -7t7.5 -13q2 -5 3.5 -8t5 -6t7.5 -3q7 -1 14.5 4t4.5 12z" />
    <glyph glyph-name="uniE61D" unicode="&#xe61d;" 
d="M438 662q-7 0 -11.5 -4.5t-4.5 -10.5v-126q-1 -5 -6.5 -8.5t-12.5 -3.5t-12 4t-6 10v124q0 6 -5 10.5t-11.5 4.5t-11 -4.5t-4.5 -10.5v-124q-1 -6 -6 -10t-13 -4q-15 0 -18 12v126q0 6 -5 10.5t-11.5 4.5t-11 -4.5t-4.5 -10.5v-154v-1v0v-1v-46q0 -17 16.5 -37.5
t32.5 -22.5v-422q0 -15 10.5 -25.5t25.5 -10.5t25.5 10.5t10.5 25.5v422q11 1 22.5 11.5t19 24t7.5 24.5v46l-1 1h1v1v154q0 4 -2.5 7.5t-6 5.5t-7.5 2zM740 523q0 18 -5 39t-15 42.5t-23 39t-29.5 28t-33.5 10.5q-21 0 -41.5 -16.5t-34.5 -41t-22.5 -52t-8.5 -49.5
q0 -33 18.5 -59.5t47.5 -38.5v-457q0 -18 11 -30.5t26.5 -12.5t27 12.5t11.5 30.5v454q31 11 51 38.5t20 62.5z" />
    <glyph glyph-name="uniE61E" unicode="&#xe61e;" 
d="M571 52q21 161 80 285q-3 10 -3 11q-20 -10 -49 -20q-51 -120 -71 -269l-32 4q-11 92 -34 171t-54 145q-19 10 -30 16q3 -26 1 -59q54 -123 73 -269q-159 7 -206 -82q-11 -20 -12 -35h683q-151 67 -346 102zM501 326q-6 4 -12 7.5t-12 7.5q-3 -5 -5 -10t-4 -11l-2 -10
q-2 -6 -2.5 -12t-1.5 -13q5 9 11.5 16.5t13 13.5t14.5 11zM381 157q-21 22 -31 46t-9.5 46.5t2 50.5t3.5 54.5t-5 60.5t-24 67q18 -23 71.5 -53t103.5 -58.5t61 -49.5q-6 39 -23 70t-37 49.5t-51 33t-54.5 21.5t-58.5 15q44 -9 82.5 -7t60 10t46 15.5t41.5 9.5t45 -9
q-44 47 -127.5 49t-157.5 -47q22 23 64 42.5t78 40t52 49.5q-67 13 -128.5 -29.5t-76.5 -100.5q2 15 0.5 30.5t-1.5 32.5t1 32t8 27.5t19 20.5q-25 -1 -44 -18t-27.5 -40t-7.5 -48.5t14 -42.5q-46 22 -86.5 -15t-40.5 -81q39 48 119 72q-65 -35 -100.5 -112t-24.5 -170
q1 26 16 55.5t34 54.5t44 64t41 77q-12 -36 -13 -80t8.5 -89.5t39 -85.5t74.5 -60zM665 471q-30 24 -67 35q-36 5 -82 -14q-7 -2 -24 -8q13 -9 24 -19q5 -1 22 -4.5t24.5 -5t26.5 -4t28.5 -2t30.5 1.5q-57 -14 -93 -34q16 -27 24 -60q71 22 101 57q-7 -33 9 -90l32 -112
q16 -57 9 -92q29 71 21.5 160t-42.5 145q26 -33 55.5 -56.5t51 -34t43 -24t33.5 -28.5q1 46 -22.5 81t-60 54t-81.5 25h19h21q10 0 20.5 -0.5t20.5 -2t18.5 -4.5t16 -8.5t13.5 -12.5q-9 31 -32 52.5t-54.5 23.5t-65.5 -26q10 29 -7 58t-48.5 43.5t-60.5 7.5q21 -6 31 -21
t20.5 -40t24.5 -41z" />
    <glyph glyph-name="uniE61F" unicode="&#xe61f;" 
d="M118 -104h57v403l5 5q4 4 14.5 9.5t20.5 7t23 -4.5t24 -22q2 -3 6.5 -9t18 -33t28.5 -63.5t38 -104.5t46 -152q1 -3 3.5 -8.5t12 -19.5t22.5 -25t36 -21t51 -12h163l255 46q3 1 7.5 3t16 8t20 12.5t14 16.5t3 21t-17.5 24.5t-43 27.5l-249 116l-115 2q-2 0 -7 1.5
t-17.5 8t-23 15.5t-20.5 27.5t-15 41.5q-5 17 -14.5 44t-43 92t-70.5 108q-7 10 -18.5 26t-41.5 58.5t-55 77t-49 67t-32 42.5q-3 -1 -6.5 -3t-16.5 -10t-23.5 -17t-27 -24t-27.5 -31.5t-24 -39t-17.5 -47t-7.5 -55t5 -62.5q2 -2 11 -20t24.5 -64t28.5 -106t22 -155.5
t6 -201.5z" />
    <glyph glyph-name="uniE620" unicode="&#xe620;" 
d="M771 790h-233q-22 0 -37 -16l-267 -266q-6 -7 -6 -16t6 -15l246 -246q3 -3 7 -4.5t8.5 -1.5t8.5 1.5t7 4.5l87 87v62l-102 -103l-215 215l250 251q4 3 8 3h211v-211q-1 -1 -2 -3.5t-1 -3.5l-62 -61v156q10 5 16 15t6 22t-6 22t-16 16t-21 6q-9 0 -17 -3.5t-14 -9.5
t-9.5 -14t-3.5 -17q0 -25 22 -37v-324q0 -3 0.5 -6t2 -5.5t3.5 -4.5t4.5 -3t5.5 -2t6 -1q9 0 15 6.5t6 15.5v106l93 93q15 15 15 37v233q0 9 -6.5 15.5t-15.5 6.5zM7 16v18h81v-18q-12 -25 -29 -46v-129h-19v106q-14 -14 -30 -27q-2 9 -7 20q39 31 64 76h-60zM32 76l17 9
q9 -15 20 -34l-19 -10q-10 21 -18 35zM62 -44l13 11q16 -17 28 -33l-15 -12q-12 17 -26 34zM88 -132h70v123h-59v19h59v74h21v-74h63v-19h-63v-123h71v-20h-162v20zM280 68h215v-20h-194v-174h198v-20h-219v214zM321 21l14 13q15 -13 31.5 -27t33.5 -30q26 29 50 62l19 -12
q-27 -34 -54 -63q32 -29 65 -61l-17 -18q-15 16 -31 31.5t-32 31.5q-36 -37 -73 -65q-6 8 -16 17q39 26 74 62q-10 10 -20.5 20t-21.5 19.5t-22 19.5zM518 59h115q-5 9 -12 20l19 8q8 -13 16 -28h108v-18h-246v18zM537 5h60q-8 13 -18 25l15 11q12 -14 22 -27l-14 -9h57
q6 8 12 17t11 18l19 -11q-6 -8 -11 -13.5t-9 -10.5h63v-131q0 -32 -29 -32h-35q-1 5 -1.5 9t-1 7t-1.5 6q10 -1 18 -1.5t15 -0.5q16 0 16 18v108h-170v-149h-18v166zM610 -15l13 -13q-29 -25 -54 -44q-2 3 -4 5t-3.5 4t-2.5 3.5t-2 2.5q28 19 53 42zM591 -136v81h100v-68
h-82v-13h-18zM673 -107v36h-64v-36h64zM654 -29l11 14q37 -23 56 -37l-12 -16q-25 20 -55 39zM774 -125h80v206h21v-206h44v206h21v-206h81v-19h-247v19zM803 32l10 -24l10 -26q5 -12 10 -25.5t9 -26.5l-20 -10q-17 53 -38 104zM949 -73q25 53 42 103l20 -8
q-23 -60 -44 -103z" />
    <glyph glyph-name="uniE621" unicode="&#xe621;" 
d="M1009 27q11 -22 10.5 -42t-11.5 -35q-12 -14 -32 -23q-20 -8 -47 -8h-418h-278h-146q-14 0 -26 2.5t-22 7.5q-19 12 -27 28q-9 17 -8 38t12 42q16 30 33 62q22 42 36 68l37 69q17 31 36 66q38 70 81 148l137 -268l270 499q72 -126 140 -248q15 -27 30 -53.5t29.5 -53.5
t29.5 -54.5t30 -54.5q15 -26 29 -51.5t28 -50.5q27 -50 47 -88z" />
    <glyph glyph-name="uniE622" unicode="&#xe622;" 
d="M900 345q-4 1 -7.5 3.5t-7.5 7.5q-1 3 -2.5 6.5t-3 8t-2.5 10t-2 12.5q-5 44 -29 64.5t-74 29.5q-53 11 -93 41q-10 8 -19.5 15.5t-18 14.5t-16 14t-13.5 14q-13 12 -23 16t-17 1q-13 -8 -14 -25v-153q0 -63 -0.5 -136t-0.5 -138v-178q1 -27 -9 -60q-5 -17 -14.5 -32.5
t-22.5 -29.5q-5 -5 -10 -9.5t-10.5 -9t-11.5 -9t-12.5 -8t-14 -7.5t-14.5 -7q-45 -21 -113 -24q-35 -2 -66 4t-59 19q-55 27 -85.5 68t-30 89.5t44 91.5t93.5 59.5t97 18.5t83.5 -6t54.5 -15v317q0 133 1 299q0 16 4 29.5t13 23.5q18 21 47 24q12 2 22 -0.5t18 -9t16 -15.5
t16 -20q4 -6 8.5 -12t9.5 -12.5t10.5 -13.5t11.5 -14q24 -30 65 -58q35 -25 61 -37q6 -2 11 -4l10 -4q5 -2 10 -4.5t9.5 -4t8.5 -3.5q12 -5 23 -11l22 -12q22 -14 49 -44q27 -29 33 -61q3 -15 3 -29.5t-2 -27.5q-6 -25 -17.5 -41.5t-19.5 -15.5z" />
    <glyph glyph-name="uniE623" unicode="&#xe623;" 
d="M829 190l-120 -52l-93 104q-6 -12 -22 -37.5t-24 -41.5l120 -130l207 105zM630 273l31 23l-160 243l142 -28l-15 -109l65 23l21 131l-213 69l-114 -55l-33 -16l-80 -38l-31 -185l-116 -9l23 -64l144 9l39 178l120 -218l4 -1q0 1 3 0q8 -1 17 -1l-125 -140q0 -1 8 -23
q4 -13 7 -20t8.5 -22.5t9 -26.5t9.5 -26.5t9.5 -27.5t8.5 -25.5t8 -23.5t5.5 -19t3.5 -14.5t1 -7.5h36h35q1 14 -73 218l175 188q5 3 9 6l10 6zM265 664q0 33 24 57t58 24q13 0 25.5 -4t22.5 -11.5t17.5 -17.5t11.5 -22.5t4 -25.5q0 -34 -24 -58t-57 -24q-22 0 -41 11
t-30 29.5t-11 41.5z" />
    <glyph glyph-name="uniE624" unicode="&#xe624;" 
d="M898 295h-223q-17 -27 -40.5 -53t-54.5 -49l318 52v50zM459 -148h50l58 331q-53 -37 -109 -54zM407 565q17 0 32 8.5t23.5 23.5t8.5 32q0 10 -3.5 20t-9 18t-13.5 13.5t-18 9t-20 3.5q-17 0 -32 -8.5t-23.5 -23.5t-8.5 -32q0 -13 5 -25t13.5 -20.5t20.5 -13.5t25 -5z
M564 197q35 26 62.5 56.5t42 57.5t25 55.5t12.5 48.5t4 37t-1 21l-153 -110q-21 22 -33 54.5t-9 57.5l137 244l-41 29l-157 -210l-325 -1l-2 -48l227 -29q2 -48 13 -91t22 -66.5t23 -42.5l-156 -112q11 -5 26 -9.5t48.5 -8t67 -0.5t79 19.5t88.5 47.5z" />
    <glyph glyph-name="uniE625" unicode="&#xe625;" 
d="M877 375q-8 36 -22 70q-14 33 -34 63t-46 55q-12 13 -26 24.5t-29 21.5q-29 20 -63 34q-35 15 -70 22q-37 7 -75 7q-19 0 -38 -1.5t-37 -5.5q-36 -7 -70 -22q-33 -14 -63 -34q-15 -10 -29 -21.5t-26 -24.5q-26 -25 -46 -55t-34 -63q-15 -34 -22 -70q-2 -9 -3.5 -18.5
t-1.5 -18.5l-2 -20v-18q0 -38 7 -75q4 -18 9.5 -35.5t12.5 -34.5q14 -33 34 -63t46 -55q25 -26 55 -46t63 -34q34 -14 70 -22q37 -7 75 -7q19 0 38 1.5t37 5.5q36 8 69.5 22t63.5 34q15 10 29 21.5t26 24.5q26 25 46 54.5t34 63.5q15 34 22 70q2 12 4 24.5t2.5 25t0.5 25.5
q0 38 -7 75zM830 303q-5 1 -14.5 3t-34 5t-49.5 5t-59 1.5t-65 -3.5q-1 3 -2.5 7t-3.5 9q-5 11 -10.5 23t-11.5 23q114 47 173 120l5 6q71 -87 72 -199zM722 539q-2 -3 -6 -8.5t-18 -19.5t-31.5 -28t-47 -30.5t-63.5 -28.5q-55 101 -119 185q18 4 37 6.5t38 2.5
q120 0 210 -79zM436 609v0h-1h1zM376 588q61 -82 118 -184q-155 -41 -293 -38q15 73 61.5 131.5t113.5 90.5zM194 300v4v2v4q6 1 21 0t49.5 1.5t72 6.5t88 14t96.5 23q14 -28 26 -54q-7 -2 -13 -4q-48 -15 -92.5 -42.5t-73.5 -55t-51 -54t-32 -41.5t-10 -16l1 -1
q-39 44 -60.5 98.5t-21.5 114.5zM512 -18q-114 0 -203 73q5 -4 8 -6q2 6 7.5 15t26 35.5t46 50.5t71 52t98.5 46q1 0 2 1q48 -125 68 -242q-59 -25 -124 -25zM690 36q-18 106 -62 227q29 5 59.5 5.5t52.5 -2t43.5 -6.5t29.5 -6.5t13 -4.5q-11 -65 -46.5 -120.5t-89.5 -92.5z
" />
    <glyph glyph-name="uniE626" unicode="&#xe626;" 
d="M787 389q-23 0 -44 -6l-52 143h96q27 0 37 -18q6 -11 -1 -23q-13 -20 -53 -17q-6 1 -11 -3.5t-5.5 -11t4 -11.5t10.5 -5q58 -4 81 31q18 27 2 55q-18 34 -64 34h-118q-8 0 -12.5 -7t-2.5 -14l18 -50h-265l-8 24h42q7 0 11.5 4.5t4.5 11t-4.5 11t-11.5 4.5h-102
q-6 0 -10.5 -4.5t-4.5 -11t4.5 -11t10.5 -4.5h27v-1v-3l11 -30l-63 -105q-36 18 -77 18q-35 0 -67 -14t-55 -37t-37 -55t-14 -67q0 -71 51 -122t122 -51q66 0 115 44t57 109h38q26 -24 41 -24q20 0 34 13.5t14 33.5q0 12 -6 22l158 201l25 -70q-22 -10 -40 -26t-31 -36
t-20.5 -44.5t-7.5 -49.5q0 -72 50.5 -122.5t122 -50.5t122.5 50.5t51 122t-51 122.5t-122 51zM237 75q-58 0 -99.5 41.5t-41.5 99.5t41.5 99.5t99.5 41.5q31 0 60 -13l-73 -121q-2 -3 -2.5 -5.5t0.5 -4.5v-1q-1 0 -1 -1q0 -2 1 -4t2 -3.5t2.5 -3t3 -2.5t3.5 -1.5t4 -0.5h140
q-8 -49 -48 -85t-92 -36zM263 227l61 101q16 -13 27 -26.5t18 -32.5t9 -42h-115zM442 227h-32q-5 79 -70 128l51 83l67 -184q-14 -12 -16 -27zM488.5 203q-6.5 0 -11 4.5t-4.5 10.5q0 4 1 6.5t3 5t5 3.5t6 1q7 0 11.5 -4.5t4.5 -11t-4.5 -11t-11 -4.5zM506 262q-4 2 -8.5 3
t-9.5 1h-1l-69 189h240zM786.5 75q-58.5 0 -100 41t-41.5 100q0 41 22 75t57 51l48 -132q4 -10 15 -10q3 0 5 1q6 2 9 8t1 12l-48 132q17 4 33 4q29 0 55 -11t45 -30t30 -45t11 -55q0 -59 -41.5 -100t-100 -41z" />
    <glyph glyph-name="uniE627" unicode="&#xe627;" 
d="M958 501q2 13 -5.5 23.5t-20.5 12.5l-83 12l-15 84q0 4 -2 8t-4.5 7t-6 5.5t-7 3.5t-8 1.5t-8.5 -0.5l-302 -56l-235 34q-13 2 -23.5 -6t-12.5 -21l-8 -60l-131 -25q-12 -2 -19.5 -12.5t-5.5 -23.5l94 -521q2 -13 13 -20q9 -6 18 -6q3 0 5 1l416 78l247 -37h4
q12 0 20.5 8t10.5 19l9 65l5 1q13 2 20 13t5 23l-14 77zM779 590l6 -31l-97 14zM171 227l-43 241l80 15zM211 10l-13 70l217 -32zM879 385l-28 -197l-8 -59l-9 -67l-2 -11l-34 5l-192 28l-384 57l50 354l9 66l1 8l23 -3l192 -29l299 -44l65 -9l31 -5zM411 346.5
q16 -2.5 30.5 3.5t24.5 19t12 29q2 10 0 19.5t-6.5 18t-10.5 15t-15 11t-18 5.5q-25 4 -44.5 -11t-23.5 -40q-2 -17 4 -32t18.5 -25t28.5 -12.5zM760 304l-57 -60l-71 144l-136 -159q-3 1 -9.5 3.5t-26 7.5t-38 7.5t-43 1.5t-44 -7.5t-38 -23.5t-28.5 -43l460 -68l68 -10
l-4 22z" />
    <glyph glyph-name="uniE628" unicode="&#xe628;" 
d="M512 509q-95 0 -162.5 -67.5t-67.5 -163t67.5 -163t162.5 -67.5q63 0 116 31t83.5 84t30.5 116q0 46 -18 89t-49 74t-73.5 49t-89.5 18zM643.5 166q-46.5 -54 -118 -59.5t-126 41t-60 118t41 125.5t118 59.5t126 -41t60 -118t-41 -125.5zM512 394q-48 0 -81.5 -34
t-33.5 -81q0 -6 4 -10.5t10 -4.5t10.5 4.5t4.5 10.5q0 35 25 60.5t61 25.5q6 0 10 4t4 10t-4 10.5t-10 4.5zM901 537l-125 20l-40 99q-6 17 -18.5 29t-28 19t-33.5 7h-288q-18 0 -33.5 -7t-28 -19t-18.5 -29l-40 -99l-125 -20q-31 -6 -51.5 -30t-20.5 -56v-432
q0 -35 25.5 -60.5t61.5 -25.5h748q36 0 61.5 25.5t25.5 60.5v432q0 13 -3.5 25t-10 22t-15.5 18t-20 13.5t-23 7.5zM915 19q0 -11 -8.5 -19.5t-20.5 -8.5h-748q-12 0 -20.5 8.5t-8.5 19.5v432q0 7 3 13.5t8.5 10.5t12.5 5l157 26l51 129q4 8 11 13t16 5h288q19 0 27 -18
l51 -129l157 -26q11 -2 17.5 -10t6.5 -19v-432z" />
    <glyph glyph-name="uniE629" unicode="&#xe629;" 
d="M938 811h-853q-35 0 -60 -24.5t-25 -60.5v-681q0 -36 25 -60.5t60 -24.5h853q35 0 60 24.5t25 60.5v681q0 18 -6.5 33.5t-18 27t-27.5 18t-33 6.5zM938 130h-853v596h853v-596zM810 -126h-597q-17 0 -29.5 -12.5t-12.5 -30t12.5 -30t29.5 -12.5h597q9 0 17 3.5t13.5 9
t9 13.5t3.5 17q0 17 -12.5 29.5t-30.5 12.5z" />
    <glyph glyph-name="uniE62A" unicode="&#xe62a;" 
d="M908 33v42h11v523h-737v-10h-42v53h822v-608h-54zM887 -42h-822v608h822v-608zM844 524h-736v-523h736v523zM385 261l50 52l125 -131l100 65l152 -44v-170h-672v202l170 104zM612 352q-9 0 -18 3.5t-15 9.5t-9.5 14.5t-3.5 18.5q0 19 13.5 32.5t33 13.5t33 -13.5
t13.5 -32.5t-13.5 -32.5t-33.5 -13.5z" />
    <glyph glyph-name="uniE62B" unicode="&#xe62b;" 
d="M0 -96v843h1024v-843h-1024zM960 684h-896v-702h896v702zM346 225l174 202l57 -59l115 146l172 -263v-142h-694l116 173zM314 370q-23 0 -42.5 11.5t-31 31t-11.5 42.5q0 36 25 61.5t60.5 25.5t61 -26t25.5 -61q0 -47 -42 -72q-21 -12 -45 -13z" />
    <glyph glyph-name="uniE62C" unicode="&#xe62c;" 
d="M864 275v5v7v-12v0zM262 569q97 87 226 92l19 -2q-1 -16 -1 -22q0 -98 47.5 -181t130 -131.5t180.5 -49.5q-7 -109 -74 -196zM569 644v3v4v3l10 -1q45 -9 86 -29.5t74.5 -50t59.5 -66t42.5 -80t21.5 -89.5q-123 5 -208.5 93.5t-85.5 212.5zM864 338v-27q0 20 -1 27h1z
M529 -61h-9v1v4q0 98 -48.5 181.5t-132 132t-182.5 48.5h-5h-6h-5v4q3 121 79 215l529 -491q-22 -20 -47.5 -37t-53 -29t-58 -19.5t-61.5 -9.5zM141 287q1 -23 4 -44h-2h-2v44zM152 244q126 0 215.5 -89t90.5 -215q-120 15 -207 99.5t-106 203.5h3zM458 -61v1q3 0 9 -1h5
h-14z" />
    <glyph glyph-name="uniE62D" unicode="&#xe62d;" 
d="M31 796zM479 174q-2 -11 -5 -16.5t-13 -12.5q-26 -16 -55 -25.5t-55.5 -21t-46.5 -30.5t-25 -54q-2 -11 -2.5 -21t-1.5 -19q-1 -2 -2 -3.5t-2 -3.5q-37 3 -76 7t-71.5 9t-55 10t-27.5 9q-9 7 -13.5 41t3.5 88q5 30 25 46t47 25.5t55.5 17t50.5 21.5q18 12 27 21.5
t13 19.5t4 21t-1 23q-2 20 -13 31t-25 23q-7 4 -12.5 15t-9.5 21q-4 12 -8 27q-6 2 -11 6q-5 3 -10.5 11t-10.5 21.5t-4 25.5t5 21q4 11 11 18q-1 31 3 63q4 26 12.5 56t26.5 54q15 23 34.5 37.5t39.5 23t40 11.5t40 3q48 0 87 -20.5t58 -43.5q13 -17 16.5 -31t8.5 -32
q-18 -11 -39 -32t-36 -42q-20 -27 -29.5 -60t-14.5 -61q-5 -34 -5 -68q-7 -9 -11 -19t-5 -23t4 -29t10.5 -25t10.5 -14q6 -6 12 -7q4 -16 7 -30q4 -11 9.5 -23t13.5 -18q7 -6 10.5 -10t6 -7.5t3 -9t2.5 -15.5zM996 -5q4 -13 6.5 -32.5t2.5 -39.5t-3 -37.5t-9 -25.5
q-4 -6 -23 -12t-47 -10.5t-62 -9t-68.5 -7.5t-66.5 -5t-56 -2t-55.5 2t-65.5 5t-67 6.5t-60.5 7.5t-46.5 8.5t-24 8.5q-8 7 -12.5 41t2.5 87q5 31 25 46.5t47 25t55.5 17t51.5 22.5q17 11 26.5 21t13.5 19.5t4 20t-1 24.5q-2 19 -13.5 30.5t-24.5 21.5q-7 6 -12.5 16.5
t-9.5 21.5q-4 12 -7 26q-6 2 -12 6q-5 4 -10.5 11.5t-10 21.5t-3.5 26t4 20q4 9 11 17q-1 31 3 63q4 27 12 56.5t26 55.5q15 23 34.5 37.5t40 22.5t41 11t38.5 3q50 0 88.5 -20t57.5 -44q21 -26 31 -58.5t15 -60.5q5 -33 4 -66q5 -4 9 -11q3 -5 5 -14.5t1 -22.5
q-2 -18 -8 -28.5t-12 -16.5q-7 -7 -15 -9q-4 -14 -8 -26q-4 -11 -10 -21.5t-12 -15.5q-8 -7 -14.5 -11.5t-11 -10t-8 -12t-5.5 -16.5q-2 -13 -1.5 -26t6 -25.5t19 -24t36.5 -20.5q20 -9 45 -15t47.5 -15t40.5 -22.5t26 -34.5v-1z" />
    <glyph glyph-name="uniE62E" unicode="&#xe62e;" 
d="M-53 853zM289 301.5q0 17.5 12 29.5t29.5 12t30 -12t12.5 -29.5t-12.5 -30t-30 -12.5t-29.5 12.5t-12 30zM622 301.5q0 17.5 12.5 29.5t30 12t29.5 -12t12 -29.5t-12 -30t-29.5 -12.5t-30 12.5t-12.5 30zM598 128q-16 -17 -41 -18.5t-33 4.5v1h-1l1 31q16 3 25.5 13.5
t9.5 23.5q0 11 -7 17t-17 8.5t-25 2.5q-11 0 -19.5 -1t-15.5 -4.5t-11 -9t-4 -13.5q0 -13 10 -23.5t25 -13.5v-33q-8 -4 -18 -5q-29 -2 -54 22q-10 10 -20 0t0 -20q31 -31 69 -31q5 0 9 2q17 1 31 8q0 -1 1 -1t2 -1q19 -5 38 -5h2q12 0 23.5 3t21.5 8.5t18 14.5q4 5 4 10.5
t-4 9.5q-10 10 -20 0zM893 530q-111 69 -181 77q-14 7 -29 11.5t-33 9.5q-35 9 -77 13.5t-85 4.5q-90 0 -159 -19q-40 -11 -67 -28q-60 -21 -130 -65q-47 -30 -75.5 -68.5t-33 -74t9.5 -64.5t62 -40v-1q-24 -104 42 -187q55 -68 159 -107q48 -17 101.5 -26.5t108.5 -9.5
q111 0 208 36q102 39 158 106q66 81 46 180q0 2 -1 4q56 5 75 40q23 44 -3 104t-96 104zM824 137q-45 -55 -131 -87.5t-187 -32.5q-102 0 -190 32.5t-132 87.5q-47 59 -31 136q2 2 2.5 4.5t1.5 6.5q26 3 51 11t47 25t36 40q90 148 82 215q52 11 115 11q92 0 164 -21
q0 -18 10 -42.5t20 -42.5t36 -57.5t37 -59.5q34 -54 99 -74l4 -22q15 -72 -34 -130z" />
    <glyph glyph-name="uniE62F" unicode="&#xe62f;" 
d="M510 704q-81 2 -155.5 -30.5t-127.5 -87.5t-85 -129.5t-34 -154.5q-2 -82 30.5 -156t88 -127.5t130 -85.5t153.5 -34q82 -2 156.5 30.5t127.5 88t85 130t34 154.5q-3 110 -56.5 201.5t-145 145t-201.5 55.5zM776 100q-49 67 -62 147l44 6q22 3 43 7l42 8
q-11 -94 -67 -168zM843 336q-22 -4 -43.5 -8t-44.5 -7.5t-45 -6.5q4 104 66 190q56 -76 67 -168zM644 307q-50 -5 -100 -6v335q105 -8 186 -82q-85 -112 -86 -247zM477 301q-16 1 -31 1.5t-30.5 2t-31.5 2.5q0 66 -23 130t-66 120q19 16 40.5 29t44.5 23t47.5 16.5t49.5 9.5
v-334zM477 234v-267q-103 9 -182 79q68 88 85 194q24 -2 48 -3.5t49 -2.5zM544 234q17 1 34.5 1.5t35 1.5t34.5 3q16 -103 82 -189q-80 -70 -186 -82v265zM248 510q66 -87 70 -194q-74 12 -138 33l-2 1h-1q12 88 71 160zM176 281q65 -21 138 -32q-4 -28 -13 -54t-22 -51.5
t-31 -48.5q-63 83 -72 186z" />
    <glyph glyph-name="uniE630" unicode="&#xe630;" 
d="M457 336l6 -2q3 -1 5.5 -1.5t5 -1.5t5.5 -2t5.5 -1.5t5.5 -1.5t5.5 -2t5.5 -1.5t5.5 -1.5t5.5 -2q72 -25 131 -33.5t132 -4.5q29 2 61.5 14.5t60.5 32.5q-10 10 -23 16l-263 145h-2v1q39 44 110 44q45 0 73.5 -13t46.5 -45q2 -5 7 -11.5t20.5 -15t32.5 -1.5
q18 7 24.5 18.5t3 22.5t-9.5 21.5t-12 16.5l-6 7q-12 18 -30 33.5t-41 27t-51 18.5t-58 7q-76 0 -135.5 -26t-93 -71t-38.5 -103q-4 -19 -1 -38q1 -13 2.5 -24.5t3.5 -21.5zM285 362q9 0 17.5 1t16.5 3t16 5t15 7q5 9 7.5 19.5t2.5 21.5q0 -17 7 -31q25 18 39 45t14 58
q0 15 -3.5 29.5t-10 27t-16 23.5t-21 20t-25 15.5t-28.5 10t-31 3.5q-55 0 -94.5 -38t-39.5 -91q0 -35 18 -65t49 -47t67 -17zM399 281q-55 24 -110 32.5t-94.5 4t-71 -12t-46.5 -16.5l-16 -8v-75q56 32 120 36t126.5 -12.5t121 -38t122.5 -41t111 -19.5q42 -1 81 3t68 10.5
t55 15t43 16.5t29.5 15t18.5 11l6 4v75q-57 -45 -131 -63t-151.5 -10.5t-145.5 26t-136 47.5zM474 93q-190 82 -283 47q-17 -7 -17 -9v-75q44 22 93 22t96.5 -15t93.5 -33.5t101.5 -34t103.5 -15.5q61 0 117 9.5t83 19.5l26 9v75q-90 -38 -204.5 -38.5t-209.5 38.5z" />
    <glyph glyph-name="uniE631" unicode="&#xe631;" 
d="M886 -30q0 -29 -22.5 -49t-54.5 -20h-550q-21 0 -38.5 9.5t-28 25t-10.5 34.5v651q0 29 22.5 49t54.5 20h550q32 0 54.5 -20t22.5 -49v-651zM817 622h-565v-653h565v653zM659 573l-82 -151q-33 -61 -40 -81h-1q-22 49 -122 232h-77l143 -246h-118v-54h138v-75h-138v-55
h138v-109h69v109h132v55h-133v75h133v54h-114l145 246h-73z" />
    <glyph glyph-name="uniE632" unicode="&#xe632;" 
d="M166 681h693v-739h-60v39h-573v-39h-60v739zM799 626h-573v-589h573v589zM265 486h296v114h59v-114h152v-54h-152v-242q0 -115 -110 -115q-44 0 -91 2q-2 9 -4 19t-4 21t-5 23q53 -7 90 -7q65 0 65 74v185q-96 -149 -284 -264q-15 26 -40 53q184 102 286 251h-258v54z
" />
    <glyph glyph-name="uniE633" unicode="&#xe633;" 
d="M902 322l-461 418q-27 28 -413 14h-12l-6 -261q-1 -191 13 -193l457 -433q22 -22 53.5 -22t53.5 22l289 321q17 20 28 36.5t19 35t3 34.5t-24 28zM215 548q-23 -23 -56 -23t-56 23t-23 56t23 57q15 15 35.5 20.5t41 0t35.5 -20.5q12 -12 18 -27t6 -30t-6 -29.5t-18 -26.5
zM504 99q-1 -2 -2 -3l-4 -4l-2 -2q-2 -2 -3.5 -4t-3.5 -3.5t-3.5 -3.5t-3.5 -4l-4 -4l-8 6q-4 3 -8.5 5.5t-8.5 5.5q5 5 9.5 9t8.5 7t6 6q10 11 -3 22l-68 63q-5 -10 -11 -21.5t-12 -24.5l-24 17q12 23 25 49l-57 53l-33 -34l-18 16l33 34l-52 48l19 20l52 -48l30 32l18 -17
l-30 -31l51 -48q9 18 19 37q13 -12 21 -19q-8 -14 -19 -37l79 -72q29 -26 7 -50zM655 248l-137 125l-61 -63q94 -87 105 -163q-7 1 -15 0.5t-17 -1.5q-8 67 -92 144l-99 91q64 66 121 147l27 -12q-66 -84 -110 -132l61 -56l125 130l19 -18l-44 -46l137 -126zM971 365
l-392 370q-7 6 -19 10.5t-23 6t-21 2.5t-16 0h-6l432 -405q20 -13 30 -31t9.5 -34.5t-4 -30.5t-8.5 -23l-4 -9q-22 -23 -56.5 -61t-107.5 -119t-120 -135.5t-45 -55.5q22 -11 46.5 -6.5t42.5 23.5l264 318q29 42 37.5 73.5t-1.5 56t-38 50.5z" />
    <glyph glyph-name="uniE634" unicode="&#xe634;" 
d="M647 347q16 12 29 26.5t23 31.5t17.5 35t11 38.5t3.5 40.5q0 91 -64 155.5t-155 64.5t-155 -64.5t-64 -155.5q0 -25 5.5 -50t17 -47t27 -41t34.5 -34q-123 -49 -186 -166q-45 -81 -45 -174v-73q0 -15 11 -25.5t26 -10.5h658q10 0 18.5 4.5t13.5 13t5 18.5v73
q0 114 -64 206.5t-167 133.5zM512 666q61 0 103.5 -43t42.5 -103.5t-42.5 -103.5t-103.5 -43t-103.5 43t-42.5 103.5t42.5 103.5t103.5 43zM805 -29h-586v36q0 121 86 207t207 86t207 -86t86 -207v-36zM239 313q20 3 28 21q1 2 1 5q1 1 1 2v1q0 2 1 3v3v3q0 1 -1 3v2v2
q0 1 -1 2q0 2 -0.5 2.5t-1.5 2.5q-1 3 -2.5 5t-2.5 4h-1l-4 4l-4 2q-2 2 -4 3q-30 13 -47.5 40t-17.5 60q0 38 23.5 67.5t59.5 38.5q2 8 5 16l6 16q3 8 7 15.5t8.5 14.5t8.5 14h-4l-4 1q-50 0 -92 -24.5t-66.5 -67t-24.5 -91.5q0 -70 47 -123q-72 -37 -114.5 -106.5
t-42.5 -152.5v-57q0 -10 5 -18.5t13.5 -13.5t18.5 -5h73v74h-37v20q0 75 46 134.5t120 77.5zM867 360q22 25 34.5 56.5t12.5 66.5q0 75 -53.5 129t-129.5 54q-1 0 -2.5 -0.5t-2.5 -0.5h-3q24 -35 35 -76q24 -6 43 -21.5t29.5 -37.5t10.5 -47q0 -33 -17.5 -60t-47.5 -40
q-7 -3 -12 -8v-1h-1l-5 -9q-2 -3 -2 -5q-1 -1 -1 -2v-2v-2q-1 -2 -1 -3v-3v-3q1 -1 1 -4l2 -7q8 -18 28 -21q74 -18 120 -77.5t46 -134.5v-20h-37v-74h73q16 0 26.5 11t10.5 26v57q0 83 -42.5 152.5t-114.5 106.5z" />
    <glyph glyph-name="uniE635" unicode="&#xe635;" 
d="M572 90l-148 30q3 26 4 49l102 70q24 -69 42 -149zM450 407l-50 -34q8 -20 13 -38l85 -17q-21 47 -46 85q0 1 -0.5 2t-1.5 2zM525 252q-9 25 -20 50l-89 18q15 -62 13 -134zM269 489q-1 -4 -2 -7.5t-1 -7.5q0 -8 3 -15.5t8 -13.5t12 -10q-1 -4 -1.5 -7.5t-0.5 -7.5
q0 -15 7 -27.5t19.5 -20t27.5 -7.5q16 0 29 8.5t20 23.5q3 -8 5 -11l49 34q0 2 -1 4l-1 1l-8 20q2 -1 4.5 -2t5.5 -2t5.5 -1.5t5.5 -0.5q9 0 16.5 3.5t13.5 9.5t9 14t3 17q0 18 -12 30.5t-30 12.5t-30 -13q2 32 16 60.5t38 52t56 39.5q45 22 91.5 19.5t86.5 -27.5
q-39 56 -105 73.5t-129 -13.5q-73 -36 -97 -116q0 58 38 99q7 7 14 13q36 33 83.5 42.5t91.5 -3.5q-52 44 -121 43.5t-121 -46.5q-61 -53 -65 -135q-25 39 -68 56.5t-88 6.5q-53 -13 -84.5 -57t-28.5 -99q13 36 40.5 61.5t64.5 34.5q73 18 130 -32q14 -13 25 -29
q-77 31 -151 -6q-62 -32 -89 -96t-8 -130q6 47 33 87t70 62q58 29 121 16zM643 -33l69 14q-1 6 -1.5 11.5t-1.5 11.5l-47 32q-11 -32 -19 -69zM723 98l-24 16q0 -1 -1 -2q-11 -18 -21 -39l40 8q2 9 6 17zM674 66q-5 -11 -10 -24l45 -30q0 17 1.5 32.5t4.5 29.5zM626 274
q20 6 42 1.5t39 -19.5l2 -2l2 -2l2 -2q18 -19 18 -46q-11 37 -45 54q-29 14 -60 6t-49 -34q41 25 83 4q48 -24 51 -71q-2 2 -4 3.5t-4.5 2t-5.5 0.5q-5 0 -9.5 -2.5t-7.5 -7t-3 -10.5q0 -8 6 -14t14 -6l10 3q-1 -3 -2 -5l-2 -4l-1 -3l23 -16q0 1 1 4l1 1q3 -6 9.5 -10.5
t13.5 -4.5q10 0 17.5 7.5t7.5 18.5q0 3 -1 7q5 3 8 7.5t3 10.5q0 2 -0.5 3.5t-1.5 3.5q10 2 19 2t18.5 -2.5t18.5 -6.5q43 -22 48 -70q9 31 -3.5 61t-41.5 44q-34 18 -70 3q12 18 31.5 26t40.5 3q17 -5 30 -16.5t19 -28.5q1 25 -13.5 45.5t-39.5 26.5q-21 6 -40.5 -2.5
t-31.5 -26.5q-2 38 -30 63q-24 21 -56 21t-56 -20zM734 -109q-16 45 -22 84l-71 -15q-2 -11 -4 -21l68 -47q-2 0 -6 0.5t-6 0.5l-58 39q-3 -19 -5 -38h-6h-6h-8h-5q-7 60 -17 120l-181 -124h-9q-4 0 -10 -0.5t-8 -0.5l205 140q-5 25 -9 46l-154 31q-15 -101 -60 -218
q-67 -4 -116.5 -10t-77.5 -13.5t-28 -15.5q0 -12 59 -22t161 -16t222 -6q183 0 312.5 13t129.5 31q0 15 -80.5 26.5t-209.5 15.5z" />
    <glyph glyph-name="uniE636" unicode="&#xe636;" 
d="M437 653h-279q-13 0 -21.5 -8.5t-8.5 -20.5l1 -229l337 -2v227q0 16 -7.5 24.5t-21.5 8.5zM407 394l-216 4v196h216v-200zM473 433h-352q-6 0 -11.5 -2.5t-9.5 -6t-6 -9t-2 -12.5v-265q0 -49 37 -86q34 -34 80 -34h59v-242h62v242h54q48 0 85 36q34 32 34 82v264
q0 15 -7.5 24t-22.5 9zM444 137q0 -21 -17 -38q-20 -18 -43 -18h-175q-21 0 -37 16q-18 18 -18 44v233h290v-237zM899 356h-279q-6 0 -11.5 -2.5t-9.5 -6t-6 -9t-2 -12.5v-188q0 -12 2.5 -23.5t7.5 -22.5t11.5 -21t15.5 -19q34 -34 80 -34h22v-242h63v242h17q48 0 85 36
q38 36 38 84l-3 187q0 10 -4 17t-10.5 10.5t-16.5 3.5zM881 126q0 -21 -17 -38q-20 -18 -43 -18h-124q-20 0 -37 16q-18 18 -18 44v178h239v-182zM793 569h-59q-58 0 -76 -19h-1q-12 -12 -17 -30t-5 -43v-136q0 -2 0.5 -4t2 -3t3 -1.5t3.5 -0.5h5h5h5h5h6q1 0 3 0.5t3 1.5
t2 2.5t1 4.5v136q0 36 8 44q4 4 17.5 5.5t29.5 1.5h59q40 0 48 -7q3 -3 3 -46v-134q0 -3 2 -5t7 -3t8 -1h9h8q4 0 3 -5q7 7 7 14v136q0 55 -18.5 73.5t-76.5 18.5zM721 507q-9 0 -9 -11v-107q0 -4 2.5 -7.5t6.5 -3.5q9 0 9 11v107q0 11 -9 11zM761 507q-9 0 -9 -11v-107
q0 -3 1.5 -5.5t3.5 -4t5 -1.5t6 3t3 8v107q0 3 -1.5 5.5t-3.5 4t-5 1.5zM802 507q-9 0 -9 -11v-107q0 -5 2.5 -8t6.5 -3q9 0 9 11v107q0 11 -9 11z" />
    <glyph glyph-name="uniE637" unicode="&#xe637;" 
d="M69 621v75h191v88h96v-88h185v-75h-185v-61v-7h160v-73h-160l-12 -67h205v-80h-224q-16 -39 -45 -73.5t-71 -67.5h252v76h111v-76h313v-188q3 -60 -26 -89.5t-87 -26.5q-30 -3 -60.5 -3.5t-63.5 -0.5q-3 22 -8.5 43t-14.5 41q26 -3 52 -3.5t47 -0.5q62 0 56 48v97h-208
v-280h-111v280h-197v-221h-107v269l-36 -25q-9 12 -26.5 28t-38.5 37q19 -16 16.5 -14t-24.5 18q61 32 100 65.5t61 66.5h-161v80h197l11 67h-168v73h172v11v57h-191zM593 245v491h351v-80l-72 -124q97 -65 97 -136q0 -103 -120 -115h-48q-19 -4 -31 -4.5t-21 -0.5l-9 40
l-12 49h21q42 -7 60 0q59 0 59 44q0 23 -24 50.5t-76 60.5l77 132h-153v-407h-99z" />
    <glyph glyph-name="uniE638" unicode="&#xe638;" 
d="M512 731q46 0 87.5 -12.5t73 -34.5t56.5 -51t41 -61.5t24.5 -66t8.5 -65.5q0 -45 -9 -80t-28.5 -64t-36.5 -47t-48 -45q-7 41 -32 66q-13 12 -31 24.5t-30 18.5l-11 5q75 50 74 126q-2 50 -43 87.5t-90 37.5q-14 0 -29 -4t-29.5 -11.5t-28 -19t-23.5 -26t-16 -33
t-6 -38.5q0 -76 81 -122q-16 -6 -22.5 -8.5t-22 -11.5t-32.5 -23q-7 -8 -12.5 -14t-10 -12t-7 -9t-5.5 -9t-4 -7.5t-4 -8.5t-4 -8q-36 26 -63 62.5t-43 82t-16 91.5q0 74 35.5 140t103.5 108.5t152 42.5zM512 10q26 0 46 -19q7 -7 11.5 -14.5t6.5 -15.5t2 -17
q0 -27 -20 -46.5t-46 -19.5q-9 0 -17 2t-15.5 6.5t-14.5 11.5q-19 19 -19 46t19 47q21 19 47 19zM622 193q-15 -15 -24.5 -29t-15.5 -31t-6 -34q0 -5 -1.5 -10t-4 -10t-6.5 -9.5t-8.5 -8t-10 -7t-11.5 -5.5t-12 -3.5t-13 -1.5q-30 0 -50.5 16.5t-20.5 40.5q0 21 -5.5 38.5
t-11.5 27t-19 26.5h220zM510 -1q26 0 46 -19.5t20 -46.5q0 -5 -1 -10.5t-2.5 -10t-4 -9t-5.5 -9t-7 -7.5q-10 -10 -21.5 -15t-24.5 -5q-9 0 -17.5 2t-15.5 6.5t-14 11.5q-20 19 -20 46t20 46.5t47 19.5zM510 -1z" />
    <glyph glyph-name="uniE639" unicode="&#xe639;" 
d="M624 526v23q0 43 -30.5 73.5t-73 30.5t-73 -30.5t-30.5 -73.5v-23q0 -42 30.5 -72.5t72.5 -30.5q56 0 87 47q16 26 17 56zM520 783q-123 0 -210.5 -87.5t-87.5 -211.5q0 -21 3 -42t8.5 -40.5t14 -38.5t19 -36t23.5 -32.5t28 -28.5q79 -74 186 -79l-45 43l46 103l-49 39
l-134 -43q-26 32 -40 72t-14 83q0 105 74 179t178 74q69 0 127 -34t92 -92t34 -127q0 -87 -54 -155l-134 43l-49 -39l46 -103l-45 -43q52 2 100 22.5t86 56.5q45 41 70.5 98t25.5 120q0 41 -11 79.5t-30 71.5t-46.5 60.5t-60.5 46.5t-71.5 30t-79.5 11zM2 -67q11 4 23 8
t24 9v59h-22q-5 -24 -12 -44q-8 6 -17 11q14 35 18 83l18 -3q-2 -16 -4 -30h19v56h19v-56h25v-17h-25v-53l25 10q2 -12 3 -19q-12 -5 -28 -11v-99h-19v92q-2 -1 -5 -2l-6 -2q-3 -1 -6.5 -2.5t-6.5 -2.5t-6.5 -2.5t-6.5 -2.5t-7 -3zM83 -15q25 38 45 99l19 -6q-7 -19 -15 -37
h109q-5 -100 -8 -154q-3 -42 -40 -42q-14 0 -33 1q-1 9 -4 21q22 -2 35 -2q20 0 22 23q5 52 8 136h-19q-7 -64 -21 -101q-20 -48 -68 -82l-6 8q-3 4 -7 8q47 33 65 75q14 36 18 92h-22q-7 -48 -20 -77q-17 -33 -45 -59q-7 8 -13 15q28 24 42 52q13 28 18 69h-18
q-13 -29 -26 -49q-6 5 -16 10zM259 -128h80v207h21v-207h44v207h21v-207h81v-19h-247v19zM288 30q10 -25 20 -50.5t20 -52.5l-21 -9q-17 53 -37 104zM434 -75q25 53 42 102l20 -8q-23 -59 -44 -103zM532 69h70v-203q0 -25 -23 -25h-12q-6 0 -12 1q-1 7 -3 17q13 -2 22 -2
q11 0 11 11v57h-35q0 -57 -21 -88q-2 2 -3.5 4t-3.5 3l-3 4q-2 2 -4 3q17 26 17 73v145zM585 53h-35v-48h35v48zM550 -59h35v48h-35v-48zM623 68h124q-1 -11 -1.5 -19t-0.5 -13q-2 -39 -40 -38q-10 0 -32 1q-1 5 -1.5 10t-1.5 10q9 -2 17.5 -2.5t15.5 -0.5q22 -1 23 20
q1 7 2 15h-86v-72h106v-15q-10 -44 -37 -77q22 -20 54 -32q-3 -3 -5 -6l-6 -6l-4 -6q-30 15 -52 36q-19 -19 -45 -33l-10 16q25 13 43 31q-24 31 -32 75h-12v-124h-19v230zM728 -38h-57q8 -36 28 -61q20 26 29 61zM843 86l18 -8q-5 -9 -11 -18h135v-17q-23 -28 -64 -49
q42 -16 101 -19q-8 -11 -14 -21q-66 8 -110 29q-50 -21 -120 -33q-2 3 -4.5 7.5t-5.5 9.5q62 10 109 27q-29 18 -46 41q-19 -23 -43 -42q-7 8 -14 13q46 37 69 80zM790 -61h73q2 12 3 27h20q-2 -15 -3 -27h101q-3 -45 -5 -63q-4 -35 -42 -35h-11h-15q-8 0 -18 1q-2 9 -4 21
q29 -3 47 -3q22 0 24 21q2 19 3 40h-83q-13 -60 -93 -87q-7 9 -13 17q72 23 85 70h-69v18zM958 43h-112q21 -24 52 -39q36 16 60 39z" />
    <glyph glyph-name="uniE63A" unicode="&#xe63a;" 
d="M846 584l-105 105q-25 24 -67 41.5t-77 17.5h-392q-34 0 -59 -24.5t-25 -59.5v-728q0 -34 25 -59t59 -25h616q12 0 22.5 3t20 8.5t17 13.5t13 17t8.5 20t3 22v504q0 17 -4.5 37.5t-12.5 39.5t-19 36.5t-23 30.5zM625 629l6 -2q22 -9 30 -17l106 -106q3 -3 8 -11t9 -19
l3 -6h-162v161zM793 -36h-560v672h336v-224h224v-448zM289 300h448v-56h-448v56zM289 188h448v-56h-448v56zM289 76h448v-56h-448v56z" />
    <glyph glyph-name="uniE63B" unicode="&#xe63b;" 
d="M799 600q-11 2 -24.5 6.5t-21.5 8.5l-9 4q-14 6 -49.5 27.5t-66 38.5t-40.5 18q-9 1 -44.5 1.5t-53.5 0.5h-31q-11 -4 -36 -22.5t-54 -37.5t-50 -24.5t-38 -9t-24 -5.5l-6 -1q-4 -6 -3.5 -12.5t4.5 -14.5t9.5 -14.5t11.5 -12.5q5 -4 18 -11t23 -11l10 -5v-15h182v-18
h-182v-14h396l1 42q1 0 3 0.5t8 2.5t11 4.5t12 5.5t12 6q30 20 37 47q3 14 -5 15zM551 601l-25 13l-25 -14l4 28l-21 18l28 5l13 26l13 -26l28 -3l-20 -20zM335 447q3 -60 14.5 -113.5t24 -84.5t28 -56.5t21.5 -32.5t9 -10h181q13 13 25 31t21 38t16.5 42.5t13 44t10 42.5
t7 38.5t4.5 31t2.5 21t0.5 8.5t-21 1h-54h-74h-80q-41 0 -74 -0.5t-54.5 -0.5t-20.5 0zM594 182h-142q-2 3 -6.5 9t-15.5 26.5t-19.5 42.5t-16 57t-7.5 71l19 -3l6 -61h90l14 30l24 -1l12 -30h80l19 60l15 4q0 -6 -1 -15t-6 -35t-12.5 -50t-21 -54t-31.5 -51zM472 -21
q1 0 3.5 1t9 12t13.5 32q4 12 6 24.5t2 18.5v6h-23l18 44h50l20 -43h-27q0 -9 0.5 -22t8.5 -38.5t24 -33.5l8 -2q31 3 75 139h27q12 -10 30 -24t56.5 -39.5t57.5 -29.5v-134h-640v133q9 2 25 7t58 29t76 58h33q2 -6 5 -15.5t13 -33t20 -41.5t24 -33t27 -15z" />
    <glyph glyph-name="uniE63C" unicode="&#xe63c;" 
d="M528 -50l401 662h94v130h-164l-274 -443l-274 443h-312v-128h104z" />
    <glyph glyph-name="uniE63D" unicode="&#xe63d;" 
d="M719 416q0 86 -60.5 146.5t-146.5 60.5t-146.5 -61t-60.5 -146q0 -80 53 -139t131 -67v-94h-92v-47h92v-92h46v92h92v47h-92v93q39 5 73 23t58 45t38.5 63t14.5 76zM512 253q-67 0 -113.5 47t-46.5 114t47 114t113 47t113 -47.5t47 -113.5q0 -67 -46.5 -114t-113.5 -47z
" />
    <glyph glyph-name="uniE63E" unicode="&#xe63e;" 
d="M754 591h-145v-49h114l-146 -145q-29 24 -63.5 36t-74.5 12q-91 0 -154.5 -63.5t-63.5 -154.5t63.5 -154.5t154.5 -63.5t155 63.5t64 154.5q0 76 -46 134l143 143v-107h48v145v49h-49zM439 58q-71 0 -120.5 49t-49.5 120t49.5 120.5t120.5 49.5q47 0 86 -22.5t61.5 -61.5
t22.5 -86q0 -71 -49.5 -120t-120.5 -49z" />
    <glyph glyph-name="uniE63F" unicode="&#xe63f;" 
d="M768 612h-507q-21 0 -35.5 -15t-14.5 -36v-507q0 -21 14.5 -36t35.5 -15h507q14 0 25.5 7t18.5 18.5t7 25.5v507q0 10 -4 19.5t-11 16.5t-16.5 11t-19.5 4zM318 80q-3 2 -6.5 4t-7.5 4l-8 4q-4 2 -9 4q31 50 50 94l33 -13q-19 -45 -52 -97zM335 211q-7 -1 -17 -1.5
t-23 -0.5q-2 27 -6 41q16 -4 39 -4q28 -2 27 27v2v50l-6 -2q-3 -1 -7 -2.5t-8.5 -2.5t-9.5 -3q-11 -4 -19 -6.5t-14 -4.5l-7 38q32 8 71 19v70h-66v32h66v70h36v-70h54v-32h-54v-60q10 4 25 8q9 3 15.5 4.5t9.5 2.5v-34q-2 -2 -6 -3t-9 -2.5t-12 -2.5q-15 -6 -23 -8v-65
q2 -58 -56 -60zM455 86q-6 10 -16 33q-19 37 -26 52l30 13q26 -45 45 -83zM574 90q-9 23 -31 61q-7 16 -11 24l31 13q10 -16 27 -50q11 -21 17 -33zM703 90q-25 46 -57 92l30 20q10 -18 31 -49q4 -5 7.5 -10.5t6.5 -10t5.5 -9t5 -8t4.5 -6.5zM736 252q-2 -9 -5 -16t-6.5 -12
t-8.5 -8.5t-10.5 -5.5t-11.5 -3q-39 2 -54 62q-10 35 -8 162h-69q0 -52 -12 -93q14 -7 44 -29q12 -7 18 -11l-23 -33q-13 11 -26 20.5t-26 18.5q-22 -54 -93 -108l-5 5l-4 6l-6 6t-6 6.5t-6 7.5q70 44 91 98q-4 2 -14 9q-13 10 -42 27l21 27q10 -7 31 -19q10 -6 15 -10
q3 16 5 33.5t3 38.5h-62v32h62q1 19 1.5 37t0.5 35h35v-72h104q-6 -138 5 -186q4 -23 14 -27q11 -4 15 15q3 11 5 26.5t3 37.5q17 -8 35 -12q-1 -10 -2 -18.5t-2.5 -17t-2.5 -16t-3 -13.5z" />
    <glyph glyph-name="uniE640" unicode="&#xe640;" 
d="M520 202h166v-35h-166v35zM520 263h166v-35h-166v35zM770 589h-507q-21 0 -36 -15t-15 -36v-507q0 -21 15 -35.5t36 -14.5h507q13 0 25 6.5t18.5 18.5t6.5 25v507q0 21 -14.5 36t-35.5 15zM438 475l29 -12q-2 -4 -5 -11t-7 -15q-3 -7 -5.5 -13t-4.5 -11.5t-4.5 -10.5
t-4.5 -9.5t-3.5 -8.5t-3 -7.5t-3.5 -6.5l-26 13q4 9 8.5 18.5t8.5 18.5t7.5 18t7 18.5t6.5 18.5zM321 475q1 -3 2 -6.5t3 -8.5l3 -10q8 -17 23 -69l-29 -11q-2 5 -5 19q-16 53 -25 76zM449 181q-24 28 -53 61v-184h-31v189q-6 -17 -13 -33t-15 -32t-17.5 -30.5t-19.5 -28.5
q0 2 -1 5l-2 4q-1 3 -2 7q-2 4 -10 21q52 66 75 150h-69v31h74v168h31v-168h55v-31h-55v-63l17 18q31 -31 59 -62zM661 64h-65q0 17 -5 34h26q26 -1 41 -1q10 -1 16.5 1t9.5 7t2 13v22h-166v-80h-32v231h231v-175q2 -54 -58 -52zM747 320h-280v29h118v32h-99v27h99v32h-113
v29h113v42h32v-42h123v-29h-123v-32h109v-27h-109v-32h130v-29z" />
    <glyph glyph-name="uniE641" unicode="&#xe641;" 
d="M766 605h-507q-21 0 -36 -15t-15 -36v-507q0 -21 15 -36t36 -15h507q21 0 35.5 15t14.5 36v507q0 21 -14.5 36t-35.5 15zM462 523h278v-33h-135l-15 -63h129v-223h-37v188h-178v-190h-37v225h87l13 63h-105v33zM335 116h-38q0 2 -1 7t-3 12q-2 6 -3 10t-1 6h25h19
q25 -2 23 21v307h-75v32h171v-32h-60v-311q4 -52 -57 -52zM717 97q-13 11 -62 54q-22 18 -37 31t-24 20q-25 -63 -154 -109q-9 13 -23 33q173 42 158 167v78h34v-75q1 -11 0.5 -21.5t-1.5 -20t-3 -17.5q73 -56 138 -111z" />
    <glyph glyph-name="uniE642" unicode="&#xe642;" 
d="M389 207h265v-74h-265v74zM389 387h244v-63h-244v63zM765 605h-507q-21 0 -36 -15t-15 -36v-507q0 -21 15 -36t36 -15h507q14 0 25.5 7t18 18.5t6.5 25.5v507q0 21 -14.5 36t-35.5 15zM692 76h-38v28h-265v-32h-39v349h323v-132h-284v-49h303v-164zM742 413h-37v56h-387
v-56h-38v90h221v2q-9 36 -19 61l36 8q10 -23 23 -63l-28 -8h229v-90z" />
    <glyph glyph-name="uniE643" unicode="&#xe643;" 
d="M513 530q28 0 51.5 -17t37 -46t13.5 -63.5t-13.5 -64t-37 -46.5t-51.5 -17q-21 0 -40 10t-33 27t-22 40.5t-8 49.5q0 53 30 90t73 37zM894 288q12 13 24 27.5t28 38t25.5 48t7.5 43.5q-4 31 -71.5 78t-176.5 92t-218 67q-160 -28 -310 -108t-156 -129q-3 -25 15.5 -60.5
t35 -56.5t33.5 -40l5 -124q393 47 753 1zM888 138l2 -33q-8 -101 -119 -153q-96 -45 -258 -46q-87 0 -154 13.5t-106 32.5t-65.5 46t-36.5 49t-13 46t-2.5 32t1.5 13q392 48 751 0z" />
    <glyph glyph-name="uniE644" unicode="&#xe644;" 
d="M743 310q-17 4 -21.5 10.5t-1.5 11.5l4 6q0 1 1.5 3.5t4.5 9.5t5 14t2.5 17.5t-0.5 20t-6.5 20t-14.5 19.5q-31 26 -72 22.5t-77.5 -15.5t-36.5 -14q-10 -3 -17.5 -4.5t-11.5 0t-6 3.5t-1.5 8t1 10t3 13.5t3.5 15.5q0 16 -2.5 30t-12 29.5t-25 23.5t-44 7.5t-66.5 -13.5
t-77.5 -39.5t-67.5 -52t-55 -56t-35.5 -41.5t-13.5 -18q-22 -30 -37.5 -60.5t-21.5 -52.5t-8.5 -40t-2.5 -27l1 -9q6 -53 31.5 -94.5t61 -67.5t84 -44t93 -26.5t94.5 -12.5q81 -6 168 13.5t162 66.5t106 113q16 33 19 62t-5 49.5t-20.5 37t-29.5 27t-30 16.5t-24 8zM408 -31
q-77 -4 -142.5 18.5t-103.5 64.5t-38 94q0 78 82.5 134.5t201.5 61.5q39 2 76 -2t68 -13t57.5 -23.5t44.5 -33t28.5 -41.5t10.5 -49q0 -80 -84 -143t-201 -68zM377 273q-32 -4 -57.5 -15.5t-40 -25.5t-24 -32.5t-13 -33t-5 -30.5t-1 -21.5t0.5 -8.5v-2q0 -2 1 -7.5t2 -10.5
t4.5 -12.5t7.5 -14t11.5 -13t16.5 -11.5q71 -35 134 -21t101 64q15 18 20 45.5t-2.5 55.5t-24.5 51.5t-51.5 35.5t-79.5 7zM337 64.5q-22 -2.5 -37.5 9t-15.5 29.5q0 19 14.5 35t35.5 19q25 2 40.5 -10t15.5 -31t-15.5 -34t-37.5 -17.5zM430 144q-18 -13 -27 3q-5 6 -3 15.5
t9 14.5q6 4 12 5t10.5 -1t6.5 -6q4 -7 2 -16t-10 -15zM820 375q9 0 16.5 6t8.5 15v2v1q4 36 -1.5 63t-18 42t-28 25t-32 12.5t-30.5 3.5t-23 -1l-9 -1q-10 0 -18 -7.5t-8 -18.5q0 -5 2.5 -10t5.5 -8.5t8 -5.5t10 -2q34 7 54 0.5t28 -21.5t10 -30.5t0 -27.5l-1 -12
q0 -7 3.5 -13t9.5 -9t13 -3zM801 678q-25 6 -56 6t-44.5 -2t-28.5 -5q-1 0 -2 -1t-2 -1h-1q-5 -2 -9 -4.5t-7.5 -6t-6 -7.5t-3.5 -9t-1 -10q0 -15 11 -26.5t26 -11.5q21 3 34 8q6 1 19.5 2.5t36 -4.5t45 -14.5t46.5 -28.5t40 -47q29 -65 12 -126q-8 -18 -8 -36q0 -6 2 -11.5
t5.5 -9.5t8 -7t10.5 -4.5t12 -1.5q16 0 24.5 6t11.5 26q20 61 15.5 110.5t-21.5 86.5t-46.5 63.5t-60 42.5t-62.5 23z" />
    <glyph glyph-name="uniE645" unicode="&#xe645;" 
d="M911 139q-5 31 -17 61t-25.5 50.5t-26.5 37t-21 24.5l-8 9q2 15 2 29.5t-1.5 25t-3.5 19.5t-5 15t-6 11t-6 8l-5 5q-2 2 -4 3l-1 1q-2 62 -18.5 112.5t-39.5 81.5t-54 53.5t-57 32.5t-54 15.5t-38.5 6t-17.5 0.5q-6 0 -16.5 -0.5t-39 -6t-54 -15.5t-57 -32.5t-54.5 -53.5
t-39.5 -81.5t-17.5 -112.5q-2 -1 -4.5 -3t-9.5 -10t-10.5 -20.5t-7 -34t0.5 -49.5l-9 -9q-5 -5 -19.5 -23.5t-26.5 -38t-24.5 -50t-17.5 -61.5q-1 -4 -1 -10t1 -22t3.5 -28t9 -21t15.5 -8t25 17t37 50q23 -62 64 -117q-3 -1 -8 -3.5t-17.5 -10t-21.5 -17t-16 -26t-5 -34.5
q0 -2 0.5 -4.5t3 -10t8 -14t17.5 -14.5t28 -13.5t42.5 -9t58.5 -2.5q13 1 32.5 4t59.5 17t55 36h30q15 -22 52 -36t66 -17l29 -4q45 -1 78 5.5t47.5 15.5t23 21.5t9 17.5t0.5 8q2 18 -4.5 34t-16.5 26t-20.5 17.5t-18.5 10.5l-8 3q12 15 23 33t18 32t12.5 26t8.5 19l2 7
q21 -34 37 -50.5t25.5 -16.5t16 7.5t8.5 21.5t3.5 27.5t1.5 23.5z" />
    <glyph glyph-name="uniE646" unicode="&#xe646;" 
d="M459 723q-90 -20 -149 -89t-66 -164q-2 -28 -5 -28t-7 -6t-7 -13.5t-3 -12.5q0 -10 -5 -18q-6 -8 -4 -33l1 -25l-22 -28q-39 -52 -54 -105t-3 -99q4 -14 7 -20t7.5 -7.5t11.5 1.5q8 4 24 21t21 27q6 8 9 3q0 -6 12.5 -30t23.5 -40q3 -4 5.5 -7.5t4 -6t3 -4.5t2.5 -3v-2
q-1 -1 -15 -8q-21 -11 -30.5 -27.5t-9.5 -43.5q-1 -17 6 -27q2 -3 4 -5.5t4 -5.5t3 -5q9 -15 27 -23.5t52 -13.5q26 -4 50.5 -2t74.5 12q51 10 82.5 10t84.5 -10q146 -29 193 20q35 38 23 67q-5 12 -3 13q0 1 -1 4.5t-3 8.5q-5 9 -16 18t-25 14l-12 6l18 26q18 26 28 51
l9 25l13 -20q10 -15 22 -27.5t20 -15.5q10 -3 18 17t11 54q1 32 -6 60q-6 25 -23 60.5t-33 56.5q-11 15 -12.5 19.5t0.5 18.5q7 38 -14 72l-4 6l-2 6q-2 3 -3 6.5t-2 7.5t-1.5 8.5t-1.5 11.5q-6 55 -32.5 103t-70 83.5t-97.5 52.5q-23 8 -65 9.5t-68 -4.5zM606 600
q25 -16 28 -59q3 -38 -12.5 -62.5t-38 -23t-37.5 31.5q-9 16 -8.5 44t8.5 45q10 20 27.5 27t32.5 -3zM463 597q25 -17 28 -61t-18 -67q-21 -22 -44 -12q-37 16 -37 73q0 22 6 38t18 26q8 7 23 8t24 -5zM611 432q33 -9 62.5 -24t29.5 -24q0 -5 -17 -16t-31 -15q-8 -2 -8 -1
q0 2 11 17l3 4l1 2l1 2q3 5 1 5q-4 0 -19 -12q-38 -28 -80 -38t-83.5 -1t-77.5 36q-19 14 -20 12l6 -14q7 -12 5 -14q-1 -1 -4 0t-8.5 3t-11 4.5t-11 5.5t-8.5 6q-4 3 -7 7t-3 7q0 7 17.5 17.5t44.5 20.5t53 15q18 3 47.5 3.5t58.5 -2t48 -6.5zM390 312q50 -17 114 -17
q16 0 24 -1t8 -3q-2 -3 -18.5 -3t-42 2.5t-43.5 6.5q-22 4 -41.5 9.5t-22.5 9.5q-6 5 8 1q6 -2 14 -5zM586 295q-3 -1 -8 -1.5t-10 -0.5h-11h-19l20 2q3 0 6 0.5t6 0.5t5.5 0.5t4.5 0.5h4h3h5zM310 244q1 0 1.5 -3t0 -8.5t-1.5 -14t-3 -20.5q-4 -28 -4.5 -45t2.5 -28t10 -20
q20 -23 64 -23q35 -1 43 10.5t8 61.5v43l29 -3q77 -8 148.5 7t126.5 51q18 13 21 10q9 -10 12 -57.5t-4 -75.5q-20 -79 -84.5 -130t-149.5 -55q-117 -5 -198 74q-61 62 -70 146q-1 14 0 30.5t4 33t7 25.5l5 12l14 -9q5 -3 11.5 -7t7.5 -5zM280 16q6 -6 17 -13q13 -8 26 -21
q10 -9 38 -33q25 -20 25 -27.5t-8.5 -10t-38.5 -2.5q-42 0 -72.5 11t-38.5 29q-3 6 -2 10.5t7 14.5q6 12 6.5 14.5t-4.5 4.5q-12 4 11 20q24 16 34 3zM774 17q21 -10 20 -21q0 -5 -8 -5q-5 0 1 -7q6 -6 8 -23q1 -11 -0.5 -15.5t-10.5 -11.5q-26 -23 -94 -22q-42 0 -47 5
t1 12.5t25 17.5q40 23 46 35l3 2q1 2 3 3.5t4 2.5l4 2q5 1 10.5 5.5t9.5 10.5q8 12 12 13t13 -4zM562 552q-4 -5 -7 -11.5t-4 -12.5t1 -11q3 -14 10 0q2 3 3 9q4 16 14 15q5 -1 7 -9l3 -17q3 -15 8 -5l2 17q0 18 -8 24q-16 14 -29 1zM446 555q-3 -4 -5.5 -8.5t-3 -9.5
t-0.5 -10.5t1.5 -10t4 -8.5t5.5 -7q6 -3 9.5 -4t7 1t8.5 7q5 4 7 9.5t2 14.5q0 12 -6.5 21t-14 10.5t-15.5 -5.5zM470 534q0 -8 -5.5 -9.5t-8.5 4.5q-2 5 2 10.5t8 3.5q4 -1 4 -9z" />
    <glyph glyph-name="uniE647" unicode="&#xe647;" 
d="M693 465q15 0 35 -2q-23 109 -127.5 181.5t-238.5 72.5q-58 0 -113.5 -15.5t-100 -43.5t-78 -66t-52 -85t-18.5 -98q0 -143 145 -245l-36 -109l127 64q6 -2 25 -5.5t27 -5t22.5 -4t26.5 -3t25 -0.5q16 0 34 1q-5 19 -8 38t-3 38q0 119 89.5 203t218.5 84zM498 563
q21 0 33.5 -12.5t12.5 -32.5q0 -14 -6 -24t-16 -16t-24 -6q-21 0 -37.5 13t-16.5 32.5t16.5 32.5t37.5 13zM245 472q-14 0 -26.5 6t-20.5 16.5t-8 23.5t8 23.5t20.5 16t26.5 5.5q20 0 32.5 -12.5t12.5 -33t-12.5 -33t-32.5 -12.5zM1024 182q0 71 -43 132t-113.5 96
t-151.5 35q-129 0 -218.5 -77t-89.5 -186t89.5 -186t218.5 -77q37 0 109 18l99 -54l-27 90q127 96 127 209zM616 228q-13 0 -24.5 11t-11.5 25q0 9 5 17.5t13.5 13.5t17.5 5q20 0 33 -11t13 -25q0 -7 -3.5 -13.5t-9.5 -11.5t-14.5 -8t-18.5 -3zM815 228q-8 0 -16.5 5
t-14 13.5t-5.5 17.5q0 13 11.5 24.5t24.5 11.5q20 0 33 -11t13 -25q0 -7 -3.5 -13.5t-9 -11.5t-14.5 -8t-19 -3z" />
    <glyph glyph-name="uniE648" unicode="&#xe648;" 
d="M321 -212q-20 41 -29 78.5t-9 66t9 58t20.5 50.5t29.5 47q25 37 43 79t23 65l6 23q2 -2 4.5 -6.5t10 -20t10.5 -31.5t6 -41.5t-4 -50.5q54 60 74 147t9 137q66 -47 114 -119t69.5 -152.5t14.5 -168t-45 -161.5q113 64 181 141.5t87 151t12 150t-35.5 139t-64.5 117.5
t-66 87.5t-49 46.5q13 -28 17 -61.5t-5 -68.5t-32 -55q-23 87 -61 158t-75.5 110t-72 65t-55.5 35l-22 8q29 -194 -194 -469q-4 57 -11.5 92.5t-30.5 77.5q-3 -50 -27.5 -106t-54 -115.5t-39.5 -106.5q-25 -122 29 -214.5t213 -182.5z" />
    <glyph glyph-name="uniE649" unicode="&#xe649;" 
d="M79 746l-14 -14l879 -880l15 15zM79 746l-14 -14l879 -880l15 15zM944 746l-879 -879l14 -15l880 880z" />
    <glyph glyph-name="uniE64A" unicode="&#xe64a;" 
d="M3 -82h1021v128h-1021v-128zM3 237h1021v128h-1021v-128zM3 684v-128h1021v128h-1021z" />
    <glyph glyph-name="uniE64B" unicode="&#xe64b;" 
d="M196 586q0 -9 -6.5 -16t-16.5 -7h-86q-9 0 -16 7t-7 16v86q0 10 7 16.5t16 6.5h86q4 0 7.5 -1t6.5 -3t5 -5t3 -6.5t1 -7.5v-86zM959 586q0 -9 -6.5 -16t-16.5 -7h-625q-6 0 -11.5 3t-8.5 8.5t-3 11.5v86q0 10 7 16.5t16 6.5h625q3 0 5 -0.5t4 -1.5l4 -2q2 -1 3.5 -2.5
t3 -3.5t2.5 -4t1 -5v-4v-86zM196 279q0 -9 -6.5 -16t-16.5 -7h-86q-9 0 -16 7t-7 16v86q0 6 3 11.5t8.5 8.5t11.5 3h86q7 0 12 -3t8 -8.5t3 -11.5v-86zM959 279q0 -9 -6.5 -16t-16.5 -7h-625q-5 0 -9 2t-7 5t-5 7t-2 9v86q0 10 7 16.5t16 6.5h625q10 0 16.5 -6.5t6.5 -16.5
v-86zM196 -28q0 -5 -1.5 -9t-4.5 -7t-7.5 -5t-9.5 -2h-86q-9 0 -16 7t-7 16v86q0 10 7 16.5t16 6.5h86q7 0 12 -3t8 -8.5t3 -11.5v-86zM959 -28q0 -9 -6.5 -16t-16.5 -7h-625q-9 0 -16 7t-7 16v86q0 4 1 7.5t3.5 6.5t5 5t6 3t7.5 1h625q10 0 16.5 -6.5t6.5 -16.5v-86z" />
    <glyph glyph-name="uniE64C" unicode="&#xe64c;" 
d="M512 -155q-88 0 -169 34q-78 33 -138.5 93t-93.5 138q-17 40 -25.5 83t-8.5 87q0 130 72 239q69 105 185 157l4 2q7 3 13.5 2.5t12 -5t8.5 -10.5q2 -5 2 -10t-2 -9.5t-5.5 -8.5t-7.5 -6q-1 0 -2 -0.5t-2 -0.5q-102 -46 -164 -140q-63 -95 -63 -210q0 -77 29 -147
t83.5 -124.5t124.5 -83.5t147 -29t147 29t124.5 83.5t83.5 124.5t29 147q0 117 -66 214q-31 46 -74 81.5t-94 57.5q-10 4 -14 14t0 19.5t14 13.5t20 0q118 -50 191 -157q74 -110 74 -243q0 -89 -34 -170q-17 -39 -40.5 -73.5t-53 -64.5t-64.5 -53.5t-74 -39.5
q-81 -34 -169 -34zM512 418q-11 0 -18.5 7.5t-7.5 17.5v287q0 10 7.5 17.5t18.5 7.5q7 0 13 -3t9.5 -9t3.5 -13v-287q0 -10 -7.5 -17.5t-18.5 -7.5z" />
    <glyph glyph-name="uniE64D" unicode="&#xe64d;" 
d="M971 734l-25 26l-434 -435l-435 435l-25 -26l434 -434l-434 -434l25 -26l435 435l434 -435l25 26l-434 434z" />
  </font>
</defs>
</svg>
